<?xml version="1.0" encoding="utf-8"?>
<!-- Generator: Adobe Illustrator 16.0.4, SVG Export Plug-In . SVG Version: 6.00 Build 0)  -->
<!DOCTYPE svg PUBLIC "-//W3C//DTD SVG 1.1//EN" "http://www.w3.org/Graphics/SVG/1.1/DTD/svg11.dtd">
<svg version="1.1" xmlns="http://www.w3.org/2000/svg" xmlns:xlink="http://www.w3.org/1999/xlink" x="0px" y="0px" width="40px"
	 height="40px" viewBox="0 0 40 40" enable-background="new 0 0 40 40" xml:space="preserve">
<g id="Layer_3">
</g>
<g id="Layer_1">
	<polygon fill="#EF4136" points="21.116,40 0,40 0,0 17.728,0 18.137,1.569 2.25,1.569 2.25,37.477 21.116,37.477 	"/>
	<polyline fill="none" stroke="#EF4136" stroke-width="3" stroke-miterlimit="10" points="28.539,0.598 39.125,0.598 39.125,38.958 
		19.134,38.958 	"/>
	<path fill="#EF4136" d="M22.861,31.819h-2.569c0,0,1.187-13.991-1.284-20.312c-2.507-6.414-6.161-9.938-13.718-9.938
		c0,0,9.785-1.569,12.438-1.569c5.137,0,5.133,3.958,5.133,11.214C22.861,14.496,22.861,31.819,22.861,31.819z"/>
	<polygon fill="#EF4136" points="21.628,33.226 14.279,24.852 16.799,24.852 21.614,29.604 26.348,24.858 28.679,24.852 	"/>
	<path fill="none" stroke="#EF4136" stroke-width="2" stroke-miterlimit="10" d="M23.783,0.598"/>
	<path fill="none" stroke="#EF4136" stroke-width="2" stroke-miterlimit="10" d="M21.116,8.812"/>
</g>
<g id="Layer_2">
</g>
</svg>
