<?xml version="1.0" encoding="utf-8"?>
<!-- Generator: Adobe Illustrator 16.0.4, SVG Export Plug-In . SVG Version: 6.00 Build 0)  -->
<!DOCTYPE svg PUBLIC "-//W3C//DTD SVG 1.1//EN" "http://www.w3.org/Graphics/SVG/1.1/DTD/svg11.dtd">
<svg version="1.1" xmlns="http://www.w3.org/2000/svg" xmlns:xlink="http://www.w3.org/1999/xlink" x="0px" y="0px" width="40px"
	 height="40px" viewBox="0 0 40 40" enable-background="new 0 0 40 40" xml:space="preserve">
<g id="Layer_3">
</g>
<g id="Layer_1">
	<circle fill="#EF4136" cx="6.355" cy="25.736" r="5.683"/>
	<circle fill="#EF4136" cx="32.49" cy="20.868" r="5.37"/>
	<circle fill="#EF4136" cx="36.292" cy="23.766" r="3.389"/>
	<circle fill="#EF4136" cx="13.004" cy="23.578" r="7.958"/>
	<circle fill="#EF4136" cx="22.93" cy="18.338" r="8.731"/>
	<polyline fill="#EF4136" points="0.673,25.334 0.673,40.037 39.681,40.037 39.681,24.881 28.15,21.861 	"/>
</g>
<g id="Layer_2">
	<path fill="#FFFFFF" d="M23.722,35.974l-1.545-0.006c0,0,0.65-7.999-0.815-12.409c-1.489-4.475-4.618-8.041-9.164-8.06
		c0,0,12.841,0,19.77,0C22.539,15.746,23.722,35.974,23.722,35.974z"/>
	<polygon fill="#FFFFFF" points="22.844,38.028 15.698,28.461 17.947,28.461 22.942,33.659 28.422,28.273 30.234,28.227 	"/>
</g>
</svg>
