<?xml version="1.0" encoding="utf-8"?>
<!-- Generator: Adobe Illustrator 16.0.4, SVG Export Plug-In . SVG Version: 6.00 Build 0)  -->
<!DOCTYPE svg PUBLIC "-//W3C//DTD SVG 1.1//EN" "http://www.w3.org/Graphics/SVG/1.1/DTD/svg11.dtd">
<svg version="1.1" xmlns="http://www.w3.org/2000/svg" xmlns:xlink="http://www.w3.org/1999/xlink" x="0px" y="0px" width="1000px"
	 height="1000px" viewBox="0 0 1000 1000" enable-background="new 0 0 1000 1000" xml:space="preserve">
<g id="dark_background" display="none">
	
		<rect x="-5.16" y="-3" display="inline" fill="#0A1C2A" stroke="#FFFFFF" stroke-width="3.6881" stroke-miterlimit="10" width="1008.101" height="1003"/>
</g>
<g id="Layer_2">
</g>
<g id="Layer_1">
	<path fill="none" stroke="#FFFFFF" stroke-width="9" stroke-linecap="round" stroke-miterlimit="10" d="M409.198,336.365
		c8.182,60.727,17.191,141.816,85.984,163.123c41.82,12.949,86.145-4.082,117.949-31.977
		c42.053-36.883,28.908-75.326,38.443-124.131"/>
	<path fill="none" stroke="#FFFFFF" stroke-width="9" stroke-linecap="round" stroke-miterlimit="10" d="M427.774,111.016
		c-4.742-12.096-22.205-10.055-37.041-6.836c-0.855,2.68-0.822,7.375-1.189,9.986c-28.404-6.467-32.141,13.744-28.066,37.094
		c12.379,0.48,17.496,0.832,25.646-6.355c-33-7.766-66.406,12.748-47.885,48.025c-31.992,11.922-24.549,70.615-4.754,45.684
		c-15.039,3.984-20.834,14.697-17.082,29.793c2.881,1.492,5.941,2.07,9.189,1.711c1.793,15.41,0.244,31.631,4.535,46.877
		c8.078-2.926,19.594-0.887,28.424-9.297c-2.107,13.467-9.51,53.42-1.361,63.488c9.18,11.336,32.242,4.576,47.008,8.838
		c9.301-1.178,0.627-1.83-3.281-3.061"/>
	<path fill="none" stroke="#FFFFFF" stroke-width="9" stroke-linecap="round" stroke-miterlimit="10" d="M431.465,99.941
		c11.037-46.998,136.822-65.68,104.111-3.617c1.117-47.604,94.488,18.27,87.84,54.898c38.73,1.537,89.328,41.826,88.375,85.357
		c-3.541,0.562-6.842-0.781-10.279,0.42c3.414,11.539,11.689,23.783,18.172,35.637c-18.486,12.605,2.477,45.047-22.523,62.242
		c13.617,7.699,35.48,27.334,30.514,45.557c-5.117,18.727-24.24,10.475-41.414,12.529c2.521,9.027-2.604,21.383-0.105,30.176
		c-9.768,4.346-19.229,2.746-25.682-1.859"/>
	<path fill="none" stroke="#FFFFFF" stroke-width="9" stroke-linecap="round" stroke-miterlimit="10" d="M376.346,266.141
		c-9.895-9.115-18.471-20.221-22.447-33.23"/>
	<path fill="none" stroke="#FFFFFF" stroke-width="9" stroke-linecap="round" stroke-miterlimit="10" d="M516.422,195.975
		c-4.391-0.811-9.889-0.104-14.289,0.354c3.26,8.072,3.48,16.852,6.617,24.969c-31.199,15.312-31.199,38.361-22.166,73.182
		c-3.512-0.264-7.842-0.578-11.191-1.711c8.527-1.869,35.607,3.113,21.387,16.527c-3.15,2.973-29.875,2.979-35.93,4.562"/>
	<path fill="none" stroke="#FFFFFF" stroke-width="9" stroke-linecap="round" stroke-miterlimit="10" d="M479.483,229.213
		c-63.893,55.234,54.029,94.127,40.07,31.691c-3.545,5.783-5.18,12.379-6.703,18.943c12.471,4.66,25.652-0.383,29.936-13.393
		c-5.305,15.344-6.34,32.383-0.127,47.627c9.07-4.27,18.967-7.945,24.646-16.73c-2.627,5.326-4.938,10.818-6.91,16.424
		c13.34,3.699,28.975,1.949,38.475-8.967"/>
	<path fill="none" stroke="#FFFFFF" stroke-width="9" stroke-linecap="round" stroke-miterlimit="10" d="M575.52,107.324
		c-28.375-1.695-49.896,48.887-17.436,52.068c-17.121,11.801-25.779,33.514-16.387,52.174c5.387-1.074,11.803,0.668,16.68-0.33
		c-13.994,7.188-12.809,12.199-16.59,25.059c21.699,2.73,45.699,2.625,59.625-16.498c-9.738,15.238-5.996,14.938-0.338,27.932
		c15.381-13.01,12.664-32.246,11.322-51.139c-0.137,13.281,9.58,16.305,14.832,25.24"/>
	<path fill="none" stroke="#FFFFFF" stroke-width="9" stroke-linecap="round" stroke-miterlimit="10" d="M420.387,340.027
		c28.529,13.189,52.814,18.637,84.953,11.074"/>
	<path fill="none" stroke="#FFFFFF" stroke-width="9" stroke-linecap="round" stroke-miterlimit="10" d="M557.049,347.41
		c37.279,11.508,56.607-3.963,88.65-11.074"/>
	<path fill="none" stroke="#FFFFFF" stroke-width="9" stroke-linecap="round" stroke-miterlimit="10" d="M442.547,472.996
		c12.449,10.166,13.043,57.066,11.08,77.48c-3.023,31.475-15.895,47.012-41.629,66.773
		c-45.416,34.873-120.484,10.055-163.654,52.324c-30.496,29.875-30.199,108.557-31.107,147.652
		c-0.828,35.697,4.082,144.104-36.936,150.715"/>
	<path fill="none" stroke="#FFFFFF" stroke-width="9" stroke-linecap="round" stroke-miterlimit="10" d="M593.985,480.387
		c0,44.529-13.625,105.645,28.008,130.27c21.037,12.447,44.797,8.957,68.859,13.678c39.748,7.803,73.264,35.975,112.232,44.947
		c57.65,61.838,30.986,214.824,30.986,291.27"/>
	<path fill="none" stroke="#FFFFFF" stroke-width="9" stroke-linecap="round" stroke-miterlimit="10" d="M376.061,639.203
		c46.217,3.287,65.498,73.781,85.797,106.119c25.844,41.189,34.246,58.82,41.168,103.852c35.355,3,82.045-16.514,112.168,8.883
		c-34.496-57.328-10.016-208.65,71.133-218.854"/>
	<path fill="none" stroke="#FFFFFF" stroke-width="9" stroke-linecap="round" stroke-miterlimit="10" d="M675.247,639.203
		c8.529,3.812,16.73,3.504,25.854,0"/>
	<path fill="none" stroke="#FFFFFF" stroke-width="9" stroke-linecap="round" stroke-miterlimit="10" d="M324.354,295.701
		c-20.727-0.211-39.326,27.07-32.713,54.949c3.148,0.27,6.572,0,9.529,1.117c-38.902,18.164-12.346,105,27.223,59.686
		c-10.496,35.531,44.168,38.607,51.494,10.773c-6.537,27.789,35.186,40.875,55.273,43.381"/>
	<path fill="none" stroke="#FFFFFF" stroke-width="9" stroke-linecap="round" stroke-miterlimit="10" d="M486.872,118.412
		c3.877-17.961-74.482-17.084-66.082,42.66c11.043-1.574,10.334,2.244,17.402-4.816c-37.453,9.918-38.98,54.305,4.355,50.793"/>
	<path fill="none" stroke="#FFFFFF" stroke-width="9" stroke-linecap="round" stroke-miterlimit="10" d="M708.491,295.701
		c22.387,4.275,41.242,25.029,22.516,43.199c11.996,16.057,22.777,37.244-1.08,45.242c5.221,3.189,12.986,14.734,18.98,17.939
		c-29.373,3.203-27.467,25.637-43.912,40.529c-12.92,11.703-46.352,19.273-62.086,19.545c-5.025,10.729-7.652,7.945-15.74,14.99
		c-7.016-1.605-0.533-4.51-3.631-7.85"/>
</g>
<g id="Layer_4">
</g>
<g id="Layer_3">
</g>
<g id="Layer_5">
</g>
</svg>
