<?xml version="1.0" encoding="utf-8"?>
<!-- Generator: Adobe Illustrator 16.0.4, SVG Export Plug-In . SVG Version: 6.00 Build 0)  -->
<!DOCTYPE svg PUBLIC "-//W3C//DTD SVG 1.1//EN" "http://www.w3.org/Graphics/SVG/1.1/DTD/svg11.dtd">
<svg version="1.1" xmlns="http://www.w3.org/2000/svg" xmlns:xlink="http://www.w3.org/1999/xlink" x="0px" y="0px" width="1000px"
	 height="1000px" viewBox="0 0 1000 1000" enable-background="new 0 0 1000 1000" xml:space="preserve">
<g id="dark_background" display="none">
	
		<rect x="-5.16" y="-3" display="inline" fill="#0A1C2A" stroke="#FFFFFF" stroke-width="3.6881" stroke-miterlimit="10" width="1008.101" height="1003"/>
</g>
<g id="Layer_2">
</g>
<g id="Layer_1">
	<path fill="none" stroke="#FFFFFF" stroke-width="9" stroke-miterlimit="10" d="M830,953.666C831,876,837,799,827,720
		c-3-21-8-41-16-60c-3-6-6-13-10-19c-1-1-2-2-3-3c-23-48-75-71-124.714-78.129"/>
	<path fill="none" stroke="#FFFFFF" stroke-width="9" stroke-miterlimit="10" d="M500.919,657.282
		c-41.875,0.335-83.717-4.757-124.397-14.638c-40.979-9.955-80.724-24.709-118.624-43.157
		c-21.359-10.396-43.699-20.165-62.439-35.001c1.038-0.316,2.096-0.668,3.161-0.847c-0.97,0.453-2.092,0.842-3.161,0.847
		C203,563,217,553,221,563c1,2-1,5-2,8c-60,90-95,184-105,288c0,3-2,6-2,9c-2,32-5,63-4.477,94.992c0.888-0.001,0-19.061,0,0
		c0.888-0.001,1.776-0.002,2.664-0.004"/>
	<path fill="none" stroke="#FFFFFF" stroke-width="9" stroke-miterlimit="10" d="M628.321,184.572
		c0,0,33.851,329.938-147.002,329.938c-156.803,0-150.269-320.138-150.269-320.138"/>
	<path fill="none" stroke="#FFFFFF" stroke-width="9" stroke-miterlimit="10" d="M497.652,285.84"/>
	<path fill="none" stroke="#FFFFFF" stroke-width="9" stroke-miterlimit="10" d="M504.187,93.104
		c0.753,69.286-68.824,89.761-111.237,120.868c-33.331,24.446-24.206,52.181-39.201,87.045c0.262-15.571,0.543-31.553-0.481-46.846
		c-8.32,15.148-17.571,32.672-15.606,50.281c-2.785-18.316-17.451-32.568-22.774-51.449c-4.488-15.922-5.783-34.513-6.702-52.099
		c-1.71-32.715-2.395-65.602,12.16-94.745c17.402-34.852,41.133-44.779,79.384-52.426c56.833-11.36,81.939,3.047,120.792,42.637"/>
	<path fill="none" stroke="#FFFFFF" stroke-width="9" stroke-miterlimit="10" d="M478.053,54.036
		c57.776,10.186,92.514-19.881,154.152,16.692c51.097,30.319,64.958,97.494,77.122,153.621
		c14.118,65.156,34.818,193.507,117.769,168.879c-3.066,13.184-15.869,19.13-28.087,23.912c13.139,5.624,27.108,5.688,38.215-2.548
		c-3.897,15.123-16.135,25.102-29.461,27.766c17.965,9.837,53.216,12.065,71.847,0.446c-31.276,42.309-74.669,71.335-127.32,59.337
		c-25.959-5.917-16.248,15.556-65.167,2.284c-15.816-4.29-32.551-16.229-45.826-11.169c-22.928,8.735-38.837,12.01-64.905,10.654
		c22.14-53.453,39.651-100.374,46.124-164.275c2.95-29.133,8.854-59.624,2.9-87.367c-2.753-12.826-10.235-30.771-13.428-48.271
		c-2.088-11.443-3.423-22.003-8.986-30.986c-5.366,17.38-7.328,37.95-20.57,50.88c0.291-46.627-47.174-114.751-84.778-131.45"/>
	<path fill="none" stroke="#FFFFFF" stroke-width="9" stroke-miterlimit="10" d="M295.981,155.172
		c5.281,18.878-9.217,54.58-12.619,75.233c-8.886,53.928-14.011,111.444-31.182,163.359c-9.36,28.295-17.976,49.05-41.304,65.945
		c-16.104,11.661-36.204,13.625-48.539,26.063c14.69-14.078,35.37-13.141,49.314-28.995c-6.77,20.015-27.482,30.443-43.884,41.708
		c33.414-0.004,61.06-9.398,84.635-31.757c-4.068,11.914-14.207,19.789-25.256,25.07c16.552-0.243,35.854,2.3,50.707-2.54
		c5.442-1.773,9.762-10.074,14.914-10.598c19.798-2.006,14.483,1.428,34.712,12.876c25.721,14.557,68.866,18.212,65.721-19.507
		c-2.095-25.102-27.874-63.332-36.909-88.434c-9.75-27.088-17.71-56.994-25.84-81.424"/>
	<path fill="none" stroke="#FFFFFF" stroke-width="9" stroke-miterlimit="10" d="M350.65,284.207
		c28.134-13.466,45.264-22.665,74.966-16.334c20.573,4.385,41.821,23.738,62.236,22.856c22.112-0.956,30.874-20.454,49.739-25.396
		c23.979-6.284,59.265-1.649,83.87-0.063c-23.309,24.407-12.51,64.44-52.68,83.364c-6.912,3.256-31.533,16.723-54.785-2.36
		c-13.971-11.469-10.446-37.593-35.45-32.173c-0.567,27.599-28.685,58.941-58.655,44.6c-23.919-11.444-39.391-61.141-65.662-61.909
		c-0.504-3.979,0.619-8.706-0.312-12.585"/>
	<path fill="none" stroke="#FFFFFF" stroke-width="9" stroke-miterlimit="10" d="M680.589,563.511
		c-63.87,96.965-199.413,91.606-299.708,50.32c41.006,26.885,116.688,33.566,165.772,28.081
		c38.004-4.248,117.511-22.915,130.669-65.335"/>
	<path fill="none" stroke="#FFFFFF" stroke-width="9" stroke-miterlimit="10" d="M204.846,573.619
		C168.966,664.478,319.394,692.68,376.9,696.795c84.803,6.068,458.168-75.528,418.023,75.785"/>
</g>
<g id="Layer_4">
</g>
<g id="Layer_3">
</g>
<g id="Layer_5">
</g>
</svg>
