<?xml version="1.0" encoding="utf-8"?>
<!-- Generator: Adobe Illustrator 16.0.4, SVG Export Plug-In . SVG Version: 6.00 Build 0)  -->
<!DOCTYPE svg PUBLIC "-//W3C//DTD SVG 1.1//EN" "http://www.w3.org/Graphics/SVG/1.1/DTD/svg11.dtd">
<svg version="1.1" xmlns="http://www.w3.org/2000/svg" xmlns:xlink="http://www.w3.org/1999/xlink" x="0px" y="0px" width="1000px"
	 height="1000px" viewBox="0 0 1000 1000" enable-background="new 0 0 1000 1000" xml:space="preserve">
<g id="dark_background" display="none">
	
		<rect x="-5.16" y="-3" display="inline" fill="#0A1C2A" stroke="#FFFFFF" stroke-width="3.6881" stroke-miterlimit="10" width="1008.101" height="1003"/>
</g>
<g id="Layer_2">
</g>
<g id="Layer_1">
	<path fill="none" stroke="#FDFDFE" stroke-width="9" stroke-miterlimit="10" d="M278.177,177.74
		c16.638,48.562,16.436,104.314,28.541,155.412c5.086,21.462,9.92,51.679,23.634,69.793c21.179,27.98,23.965,35.277,62.421,40.797
		c43.916,6.31,108.113,4.264,135.048-45.021c13.74-25.136,18.994-86.799,25.665-117.956c4.988-23.316,12.315-43.948,15.243-66.183"
		/>
	<path fill="none" stroke="#FDFDFE" stroke-width="9" stroke-miterlimit="10" d="M527.807,431.472
		c15.238,43.334,8.271,76.36,48.028,108.331c63.584,51.154,140.766,1.429,207.981,35.711
		c48.204,24.586,53.789,93.083,63.193,141.188c15.272,78.154,4.086,167.48,4.086,246.774"/>
	<path fill="none" stroke="#FDFDFE" stroke-width="9" stroke-miterlimit="10" d="M341.647,416.843
		c21.762,65.85-4.084,107.579-58.551,140.365c-21.801,13.135-43.204,25.669-71.602,30.101
		c-76.539,11.943-52.625,25.119-72.443,52.867c-59.103,82.718-10.787,228.229-7.89,330.865c3.897,1.229,7.885,1.438,11.963,0.613"/>
	<path fill="none" stroke="#FDFDFE" stroke-width="9" stroke-miterlimit="10" d="M298.635,554.24
		c20.076,20.142,22.415,43.742,49.041,56.27c32.494,15.285,89.149,10.723,124.794,9.209c41.014-1.745,109.178-15.719,120.811-61.38"
		/>
	<path fill="none" stroke="#FDFDFE" stroke-width="9" stroke-miterlimit="10" d="M331.373,521.497
		c-17.475,95.695,200.812,87.083,233.263,16.376"/>
	<path fill="none" stroke="#FDFDFE" stroke-width="9" stroke-miterlimit="10" d="M478.693,71.34
		c-44.556-36.159-135.263-26.658-181.784,3.093c-50.432,32.253-41.864,85.32-75.998,122.019
		c21.351,3.584,58.463-11.429,67.301-33.142c-17.891,14.364-20.174,34.697-38.426,46.45c41.13-3.116,95.026-24.115,110.183-67.065
		c-15.286,16.202-31.983,32.786-43.538,51.78c45.74-1.88,67.022-7.907,103.928-29.36c-13.255,6.483-29.12,14.938-39.405,24.098
		c35.82,5.552,102.117-14.581,126.026-43.957c-15.337,19.41-42.585,28.77-56.69,48.03c34.477,7.289,83.346-13.3,101.37-40.366
		c3.868,22.966,1.056,54.479,8.885,73.931"/>
	<path fill="none" stroke="#FDFDFE" stroke-width="9" stroke-miterlimit="10" d="M437.773,46.793
		c47.307,0.458,84.964-20.808,122.472,20.64c24.553,27.132,20.762,55.478,20.762,90.954c0,32.236,2.318,65.297-4.91,95.305
		c-6.087,25.278-39.516,77.914-15.552,95.934"/>
	<path fill="none" stroke="#FDFDFE" stroke-width="9" stroke-miterlimit="10" d="M687.408,787.499
		c9.984,47.747,23.398,140.899,4.086,184.155"/>
	<path fill="none" stroke="#FDFDFE" stroke-width="9" stroke-miterlimit="10" d="M274.078,820.232
		c13.379,42.943,8.19,101.381,8.19,147.334"/>
	<path fill="none" stroke="#FDFDFE" stroke-width="9" stroke-miterlimit="10" d="M331.91,221.273
		c-43.344,7.295-25.223,83.135,24.011,83.334c29.146,0.116,29.622-9.029,49.333-24.456c8.113-6.351-5.155-23.759,16.269-20.632
		c18.397,2.694,5.104,18.919,15.152,28.912c28.622,28.461,81.453,36.591,91.562-12.261c11.607-56.119-79.637-69.651-87.076-33.459
		c-7.332,3.093-23.844,5.005-31.42,3.874c-8.598-25.486-56.598-28.946-78.115-25.459"/>
</g>
<g id="Layer_4">
</g>
<g id="Layer_3">
</g>
<g id="Layer_5">
</g>
</svg>
