<?xml version="1.0" encoding="utf-8"?>
<!-- Generator: Adobe Illustrator 16.0.4, SVG Export Plug-In . SVG Version: 6.00 Build 0)  -->
<!DOCTYPE svg PUBLIC "-//W3C//DTD SVG 1.1//EN" "http://www.w3.org/Graphics/SVG/1.1/DTD/svg11.dtd">
<svg version="1.1" id="Layer_1" xmlns="http://www.w3.org/2000/svg" xmlns:xlink="http://www.w3.org/1999/xlink" x="0px" y="0px"
	 width="300px" height="87px" viewBox="0 0 300 87" enable-background="new 0 0 300 87" xml:space="preserve">
<g id="Layer_1_1_">
	<path fill="#EF4136" d="M266.906,75.595c0,0.097,0,0.198,0,0.306c0,0.108-0.008,0.225-0.021,0.347h-7.882
		c0.014,0.474,0.107,0.92,0.284,1.341c0.176,0.419,0.419,0.785,0.73,1.098c0.312,0.311,0.678,0.56,1.099,0.741
		c0.419,0.183,0.872,0.273,1.359,0.273c0.719,0,1.339-0.165,1.859-0.498c0.521-0.332,0.917-0.714,1.188-1.147l1.036,0.813
		c-0.567,0.718-1.195,1.231-1.88,1.543c-0.684,0.312-1.418,0.468-2.204,0.468c-0.703,0-1.357-0.125-1.96-0.376
		s-1.119-0.599-1.555-1.047c-0.435-0.445-0.776-0.976-1.026-1.584c-0.251-0.608-0.375-1.272-0.375-1.991
		c0-0.718,0.121-1.382,0.366-1.992c0.243-0.606,0.582-1.137,1.016-1.582c0.434-0.447,0.94-0.797,1.523-1.048
		c0.582-0.251,1.212-0.376,1.892-0.376c0.741,0,1.399,0.125,1.969,0.376s1.044,0.591,1.423,1.017
		c0.379,0.427,0.667,0.925,0.862,1.494C266.808,74.336,266.906,74.945,266.906,75.595z M265.504,75.148
		c-0.041-0.896-0.328-1.637-0.863-2.226c-0.534-0.59-1.298-0.883-2.285-0.883c-0.461,0-0.888,0.084-1.279,0.253
		c-0.395,0.17-0.738,0.398-1.036,0.689c-0.299,0.293-0.536,0.623-0.712,0.996s-0.277,0.762-0.305,1.168h6.48V75.148z"/>
	<path fill="#EF4136" d="M282.306,74.48c0-0.819-0.218-1.432-0.649-1.834c-0.436-0.404-1.064-0.605-1.891-0.605
		c-0.567,0-1.097,0.102-1.585,0.304c-0.486,0.204-0.899,0.476-1.238,0.813l-0.771-0.916c0.394-0.393,0.91-0.717,1.554-0.975
		c0.645-0.258,1.372-0.387,2.185-0.387c0.516,0,0.996,0.071,1.442,0.213c0.447,0.143,0.841,0.355,1.179,0.641
		s0.603,0.645,0.792,1.076c0.189,0.436,0.285,0.942,0.285,1.524V78.5c0,0.366,0.013,0.744,0.039,1.137
		c0.027,0.395,0.068,0.728,0.123,0.996h-1.239c-0.04-0.229-0.075-0.48-0.103-0.752c-0.026-0.27-0.04-0.535-0.04-0.792h-0.041
		c-0.433,0.638-0.925,1.095-1.474,1.372c-0.547,0.275-1.208,0.416-1.98,0.416c-0.364,0-0.74-0.051-1.128-0.152
		c-0.386-0.103-0.737-0.269-1.057-0.5c-0.317-0.23-0.582-0.529-0.792-0.896c-0.211-0.366-0.315-0.814-0.315-1.346
		c0-0.733,0.188-1.313,0.561-1.742c0.371-0.43,0.87-0.747,1.492-0.957c0.623-0.211,1.338-0.348,2.144-0.408
		c0.806-0.062,1.643-0.092,2.51-0.092L282.306,74.48L282.306,74.48z M281.898,75.88c-0.568,0-1.142,0.022-1.717,0.071
		c-0.575,0.048-1.098,0.142-1.563,0.283c-0.468,0.144-0.852,0.351-1.149,0.621c-0.297,0.271-0.444,0.629-0.444,1.076
		c0,0.338,0.062,0.623,0.191,0.854c0.128,0.23,0.301,0.416,0.52,0.559c0.216,0.145,0.456,0.243,0.721,0.305
		c0.265,0.062,0.532,0.092,0.803,0.092c0.487,0,0.921-0.083,1.301-0.252c0.378-0.17,0.697-0.4,0.954-0.692
		c0.258-0.291,0.453-0.626,0.589-1.006c0.136-0.379,0.204-0.776,0.204-1.198v-0.711L281.898,75.88L281.898,75.88z"/>
	<g>
		<circle fill="none" stroke="#EF4136" stroke-width="1.1994" stroke-miterlimit="10" cx="250.438" cy="75.916" r="4.42"/>
		
			<line fill="none" stroke="#EF4136" stroke-width="1.1993" stroke-miterlimit="10" x1="246.017" y1="76.045" x2="246.017" y2="65.16"/>
	</g>
	<path fill="#EF4136" d="M274.394,72.27h-2.682v5.545c0,0.353,0.033,0.644,0.103,0.873c0.066,0.23,0.164,0.41,0.294,0.539
		c0.129,0.129,0.281,0.217,0.458,0.265c0.175,0.048,0.365,0.071,0.568,0.071c0.188,0,1.218-0.002,1.218-0.002v1.178
		c0,0-1.271,0.003-1.584,0.003c-0.257,0-0.528-0.034-0.812-0.103s-0.549-0.197-0.793-0.388c-0.243-0.188-0.443-0.444-0.6-0.771
		c-0.155-0.326-0.232-0.752-0.232-1.28v-5.933h-1.971v-1.158h1.971v-2.684h1.381v2.684h2.682L274.394,72.27L274.394,72.27z"/>
</g>
<g id="Layer_2">
</g>
<g id="Layer_3">
	<g>
		<g>
			<g>
				<path fill="#EF4136" d="M34.316,32.758h-7.312v27.5h-6.249v-27.5H6.076v-5.119h14.679v-6.582c0-1.861,0.21-3.578,0.631-5.151
					s1.108-2.937,2.062-4.089s2.171-2.062,3.656-2.727c1.484-0.665,3.291-0.998,5.418-0.998c1.052,0,23.388-0.146,23.388,5.149
					c0,0.272-23.134,0.237-23.321,0.237c-1.197,0-2.161,0.211-2.892,0.631c-0.731,0.422-1.298,0.988-1.695,1.695
					c-0.399,0.709-0.666,1.52-0.798,2.426c-0.133,0.91-0.199,1.853-0.199,2.826v6.582h7.312V32.758z"/>
				<path fill="#EF4136" d="M97.672,35.617c-0.71-1.152-1.707-2.096-2.992-2.826s-2.726-1.098-4.32-1.098
					c-0.709,0-1.42,0.078-2.127,0.233c-0.711,0.156-1.342,0.399-1.896,0.731c-0.555,0.333-0.997,0.754-1.33,1.263
					c-0.333,0.511-0.499,1.142-0.499,1.896c0,1.328,0.598,2.314,1.795,2.957s2.991,1.23,5.385,1.763
					c1.506,0.354,2.902,0.774,4.188,1.263s2.404,1.098,3.357,1.828s1.694,1.607,2.228,2.626c0.532,1.021,0.797,2.218,0.797,3.59
					c0,1.861-0.354,3.435-1.063,4.72c-0.709,1.287-1.65,2.338-2.825,3.157c-1.175,0.82-2.517,1.407-4.022,1.763
					c-1.507,0.354-3.058,0.531-4.652,0.531c-2.395,0-4.732-0.466-7.016-1.396c-2.283-0.931-4.177-2.349-5.683-4.254l4.454-3.79
					c0.841,1.242,2.005,2.283,3.49,3.125c1.484,0.843,3.112,1.263,4.887,1.263c0.797,0,1.562-0.077,2.293-0.231
					c0.73-0.154,1.396-0.41,1.994-0.766c0.6-0.354,1.074-0.82,1.431-1.396c0.354-0.574,0.531-1.308,0.531-2.193
					c0-1.463-0.699-2.548-2.095-3.258c-1.396-0.708-3.447-1.373-6.149-1.995c-1.063-0.265-2.14-0.587-3.226-0.964
					c-1.086-0.375-2.071-0.897-2.957-1.562c-0.888-0.664-1.607-1.496-2.162-2.492c-0.555-0.998-0.83-2.228-0.83-3.689
					c0-1.686,0.343-3.137,1.029-4.355c0.688-1.219,1.584-2.215,2.691-2.99s2.371-1.352,3.791-1.729
					c1.417-0.375,2.88-0.565,4.388-0.565c2.261,0,4.442,0.444,6.548,1.33c2.104,0.888,3.734,2.172,4.888,3.855L97.672,35.617z"/>
				<path fill="#EF4136" d="M125.593,32.758h-8.377v16.371c0,1.898,0.354,3.26,1.063,4.076s1.84,1.227,3.392,1.227
					c0.167,0,3.944,0.019,3.944,0.019v5.241h-3.194c0,0-1.938-0.008-2.213-0.008c-2.97,0-5.242-0.819-6.813-2.461
					c-1.574-1.64-2.36-4.099-2.36-7.379V32.758h-6.05v-5.119h6.05v-9.041h6.183v9.041h8.377L125.593,32.758L125.593,32.758z"/>
				<path fill="#EF4136" d="M231.761,35.617c-0.71-1.152-1.707-2.096-2.992-2.826s-2.725-1.098-4.319-1.098
					c-0.709,0-1.419,0.078-2.128,0.233c-0.709,0.156-1.341,0.399-1.896,0.731c-0.556,0.333-0.997,0.754-1.33,1.263
					c-0.331,0.511-0.499,1.142-0.499,1.896c0,1.328,0.6,2.314,1.795,2.957c1.196,0.643,2.992,1.23,5.387,1.763
					c1.506,0.354,2.901,0.774,4.188,1.263c1.284,0.488,2.404,1.098,3.357,1.828s1.693,1.607,2.227,2.626
					c0.531,1.021,0.798,2.218,0.798,3.59c0,1.861-0.354,3.435-1.062,4.72c-0.711,1.287-1.652,2.338-2.825,3.157
					c-1.177,0.82-2.518,1.407-4.022,1.763c-1.508,0.354-3.059,0.531-4.653,0.531c-2.395,0-4.731-0.466-7.015-1.396
					c-2.282-0.931-4.178-2.349-5.684-4.254l4.453-3.79c0.842,1.242,2.005,2.283,3.491,3.125c1.483,0.843,3.112,1.263,4.886,1.263
					c0.799,0,1.562-0.077,2.293-0.231c0.732-0.154,1.396-0.41,1.995-0.766s1.074-0.82,1.43-1.396
					c0.354-0.574,0.531-1.308,0.531-2.193c0-1.463-0.696-2.548-2.094-3.258c-1.397-0.708-3.447-1.373-6.15-1.995
					c-1.062-0.265-2.138-0.587-3.224-0.964c-1.086-0.375-2.072-0.897-2.958-1.562c-0.889-0.664-1.607-1.496-2.16-2.492
					c-0.556-0.998-0.831-2.228-0.831-3.689c0-1.686,0.342-3.137,1.029-4.355s1.584-2.215,2.691-2.99
					c1.108-0.775,2.371-1.352,3.79-1.729c1.417-0.375,2.88-0.565,4.388-0.565c2.261,0,4.442,0.444,6.549,1.33
					c2.104,0.888,3.733,2.172,4.887,3.855L231.761,35.617z"/>
				<path fill="#EF4136" d="M259.682,32.758h-8.377v16.371c0,1.898,0.354,3.26,1.063,4.076s1.839,1.227,3.391,1.227
					c0.576,0,11.153,0.027,11.83,0.027c8.164,0,15.463,1.1,15.463,5.227c0,0-28.428-0.002-28.755-0.002
					c-2.969,0-5.241-0.819-6.813-2.461c-1.573-1.64-2.359-4.099-2.359-7.379V32.758h-6.05v-5.119h6.05v-9.041h6.183v9.041h8.377
					L259.682,32.758L259.682,32.758z"/>
			</g>
			<circle fill="none" stroke="#EF4136" stroke-width="5.0862" stroke-miterlimit="10" cx="54.801" cy="42.75" r="14.75"/>
			<path fill="none" stroke="#EF4136" stroke-width="5.0862" stroke-miterlimit="10" d="M203.25,42.75
				c0,8.146-6.605,14.75-14.75,14.75c-8.146,0-14.75-6.604-14.75-14.75S180.354,28,188.5,28S203.25,34.604,203.25,42.75z"/>
			<circle fill="none" stroke="#EF4136" stroke-width="5.0862" stroke-miterlimit="10" cx="148.98" cy="43.12" r="14.75"/>
			
				<line fill="none" stroke="#EF4136" stroke-width="5.0862" stroke-miterlimit="10" x1="134.232" y1="43.12" x2="134.232" y2="80.488"/>
		</g>
		<path fill="#FFFFFF" d="M49.105,10.99c0,0.674-0.547,1.221-1.222,1.221l0,0c-0.674,0-1.22-0.547-1.22-1.221l0,0
			c0-0.674,0.546-1.221,1.22-1.221l0,0C48.559,9.77,49.105,10.316,49.105,10.99L49.105,10.99z"/>
		<path fill="#FFFFFF" d="M276.194,57.152c0,0.623-0.505,1.128-1.13,1.128l0,0c-0.622,0-1.129-0.505-1.129-1.128l0,0
			c0-0.625,0.506-1.129,1.129-1.129l0,0C275.689,56.023,276.194,56.527,276.194,57.152L276.194,57.152z"/>
	</g>
</g>
<g id="Layer_4">
</g>
</svg>
