<?xml version="1.0" encoding="utf-8"?>
<!-- Generator: Adobe Illustrator 16.0.4, SVG Export Plug-In . SVG Version: 6.00 Build 0)  -->
<!DOCTYPE svg PUBLIC "-//W3C//DTD SVG 1.1//EN" "http://www.w3.org/Graphics/SVG/1.1/DTD/svg11.dtd">
<svg version="1.1" xmlns="http://www.w3.org/2000/svg" xmlns:xlink="http://www.w3.org/1999/xlink" x="0px" y="0px" width="40px"
	 height="40px" viewBox="0 0 40 40" enable-background="new 0 0 40 40" xml:space="preserve">
<g id="Layer_3">
	<polygon points="0,0 0,40 40,0 	"/>
</g>
<g id="Layer_1">
</g>
<g id="Layer_2">
	<path fill="none" stroke="#EF4136" stroke-miterlimit="10" d="M4.37,22.307c0.58-1.327,0.446-5.17,1.701-6.129
		C7.267,15.265,7.95,16.93,8.2,17.969c0.228,0.947,0.234,2.62,1.366,2.842c1.481,0.289,1.122-2.148,1.903-3.221
		c1.229-1.688,2.951-0.636,3.433,1.262c0.294,1.16,0.385,1.715,1.021,1.729c1.016,0.023,1.068-0.791,1.428-1.638
		c0.689-1.623,1.124-4.885,2.56-2.266c0.752,1.371,0.681,5.881,2.771,4.762c1.094-0.586,1.021-4.591,2.596-4.312
		c0.752,0.133,0.775,1.96,1.193,2.675c0.646,1.107,1.409,1.858,2.676,1.475c1.594-0.482,1.684-4.074,3.092-3.979
		c1.434,0.097,1.586,4.665,3.393,3.508"/>
	<circle fill="#EF4136" cx="33.62" cy="33.212" r="4.122"/>
</g>
<g id="Layer_4">
</g>
</svg>
