<?xml version="1.0" encoding="utf-8"?>
<!-- Generator: Adobe Illustrator 16.0.4, SVG Export Plug-In . SVG Version: 6.00 Build 0)  -->
<!DOCTYPE svg PUBLIC "-//W3C//DTD SVG 1.1//EN" "http://www.w3.org/Graphics/SVG/1.1/DTD/svg11.dtd">
<svg version="1.1" xmlns="http://www.w3.org/2000/svg" xmlns:xlink="http://www.w3.org/1999/xlink" x="0px" y="0px" width="40px"
	 height="40px" viewBox="0 0 40 40" enable-background="new 0 0 40 40" xml:space="preserve">
<g id="Layer_3">
</g>
<g id="Layer_1">
	<path fill="none" stroke="#EF4136" stroke-miterlimit="10" d="M4.073,22.307c0.58-1.327,0.446-5.17,1.701-6.129
		c1.195-0.913,1.879,0.752,2.129,1.791c0.228,0.947,0.234,2.62,1.366,2.842c1.481,0.289,1.122-2.148,1.903-3.221
		c1.229-1.688,2.951-0.636,3.433,1.262c0.294,1.16,0.385,1.715,1.021,1.729c1.016,0.023,1.068-0.791,1.428-1.638
		c0.689-1.623,1.124-4.885,2.56-2.266c0.752,1.371,0.681,5.881,2.771,4.762c1.094-0.586,1.021-4.591,2.596-4.312
		c0.752,0.133,0.775,1.96,1.193,2.675c0.646,1.107,1.409,1.858,2.676,1.475c1.594-0.482,1.684-4.074,3.092-3.979
		c1.434,0.097,1.586,4.665,3.393,3.508"/>
	<rect fill="none" stroke="#EF4136" stroke-miterlimit="10" width="40" height="40"/>
</g>
<g id="Layer_2">
	<line fill="none" stroke="#EF4136" stroke-width="0.25" stroke-miterlimit="10" x1="2.487" y1="6.034" x2="4.385" y2="13.134"/>
	<line fill="none" stroke="#EF4136" stroke-width="0.25" stroke-miterlimit="10" x1="11.426" y1="4.794" x2="12.593" y2="12.076"/>
	<line fill="none" stroke="#EF4136" stroke-width="0.25" stroke-miterlimit="10" x1="20.019" y1="4.75" x2="20.019" y2="11.689"/>
	<line fill="none" stroke="#EF4136" stroke-width="0.25" stroke-miterlimit="10" x1="29.379" y1="5.086" x2="26.827" y2="11.689"/>
	<line fill="none" stroke="#EF4136" stroke-width="0.25" stroke-miterlimit="10" x1="37.47" y1="6.018" x2="32.562" y2="12.561"/>
	<line fill="none" stroke="#EF4136" stroke-width="0.25" stroke-miterlimit="10" x1="37.47" y1="32.246" x2="35.572" y2="25.146"/>
	<line fill="none" stroke="#EF4136" stroke-width="0.25" stroke-miterlimit="10" x1="28.531" y1="33.486" x2="27.364" y2="26.204"/>
	<line fill="none" stroke="#EF4136" stroke-width="0.25" stroke-miterlimit="10" x1="19.938" y1="33.53" x2="19.938" y2="26.591"/>
	<line fill="none" stroke="#EF4136" stroke-width="0.25" stroke-miterlimit="10" x1="10.578" y1="33.194" x2="13.13" y2="26.591"/>
	<line fill="none" stroke="#EF4136" stroke-width="0.25" stroke-miterlimit="10" x1="2.487" y1="32.263" x2="7.395" y2="25.72"/>
	<circle fill="#EF4136" cx="34.756" cy="35.354" r="3.092"/>
</g>
<g id="Layer_4">
</g>
</svg>
