<?xml version="1.0" encoding="utf-8"?>
<!-- Generator: Adobe Illustrator 16.0.4, SVG Export Plug-In . SVG Version: 6.00 Build 0)  -->
<!DOCTYPE svg PUBLIC "-//W3C//DTD SVG 1.1//EN" "http://www.w3.org/Graphics/SVG/1.1/DTD/svg11.dtd">
<svg version="1.1" xmlns="http://www.w3.org/2000/svg" xmlns:xlink="http://www.w3.org/1999/xlink" x="0px" y="0px" width="40px"
	 height="40px" viewBox="0 0 40 40" enable-background="new 0 0 40 40" xml:space="preserve">
<symbol  id="New_Symbol" viewBox="-0.517 -13.735 1.034 27.471">
	<g>
		<path fill="none" stroke="#EF4136" stroke-width="0.25" stroke-miterlimit="10" d="M0.02,9.102
			c-1.261,1.632,1.276,2.92,0.005,4.557"/>
		<path fill="none" stroke="#EF4136" stroke-width="0.25" stroke-miterlimit="10" d="M0.005,4.544
			C-1.257,6.176,1.276,7.462,0.01,9.102"/>
		<path fill="none" stroke="#EF4136" stroke-width="0.25" stroke-miterlimit="10" d="M0-0.01c-1.257,1.636,1.271,2.918,0.005,4.558"
			/>
		<path fill="none" stroke="#EF4136" stroke-width="0.25" stroke-miterlimit="10" d="M-0.01-4.554
			c-1.262,1.632,1.271,2.918,0.005,4.558"/>
		<path fill="none" stroke="#EF4136" stroke-width="0.25" stroke-miterlimit="10" d="M-0.02-9.103
			c-1.257,1.636,1.271,2.918,0.005,4.558"/>
		<path fill="none" stroke="#EF4136" stroke-width="0.25" stroke-miterlimit="10" d="M-0.029-13.659
			c-1.262,1.632,1.275,2.92,0.005,4.557"/>
	</g>
</symbol>
<g id="Layer_5">
	<rect x="1.492" y="0.667" fill="#FFFFFF" width="39.333" height="39"/>
</g>
<g id="Layer_3">
</g>
<g id="Layer_1">
	<g>
		
			<use xlink:href="#New_Symbol"  width="1.034" height="27.471" x="-0.517" y="-13.735" transform="matrix(1 0 0 -1.4617 39.9102 20)" overflow="visible"/>
	</g>
	<g>
		
			<use xlink:href="#New_Symbol"  width="1.034" height="27.471" x="-0.517" y="-13.735" transform="matrix(1 0 0 -1.4617 38.8164 20)" overflow="visible"/>
	</g>
	<g>
		
			<use xlink:href="#New_Symbol"  width="1.034" height="27.471" x="-0.517" y="-13.735" transform="matrix(1 0 0 -1.4617 37.7217 20)" overflow="visible"/>
	</g>
	<g>
		
			<use xlink:href="#New_Symbol"  width="1.034" height="27.471" x="-0.517" y="-13.735" transform="matrix(1 0 0 -1.4617 36.627 20)" overflow="visible"/>
	</g>
	<g>
		
			<use xlink:href="#New_Symbol"  width="1.034" height="27.471" x="-0.517" y="-13.735" transform="matrix(1 0 0 -1.4617 35.5332 20)" overflow="visible"/>
	</g>
	<g>
		
			<use xlink:href="#New_Symbol"  width="1.034" height="27.471" x="-0.517" y="-13.735" transform="matrix(1 0 0 -1.4617 34.4395 20)" overflow="visible"/>
	</g>
	<g>
		
			<use xlink:href="#New_Symbol"  width="1.034" height="27.471" x="-0.517" y="-13.735" transform="matrix(1 0 0 -1.4617 33.3447 20)" overflow="visible"/>
	</g>
	<g>
		
			<use xlink:href="#New_Symbol"  width="1.034" height="27.471" x="-0.517" y="-13.735" transform="matrix(1 0 0 -1.4617 32.25 20)" overflow="visible"/>
	</g>
	<g>
		
			<use xlink:href="#New_Symbol"  width="1.034" height="27.471" x="-0.517" y="-13.735" transform="matrix(1 0 0 -1.4617 31.1562 20)" overflow="visible"/>
	</g>
	<g>
		
			<use xlink:href="#New_Symbol"  width="1.034" height="27.471" x="-0.517" y="-13.735" transform="matrix(1 0 0 -1.4617 30.0625 20)" overflow="visible"/>
	</g>
	<g>
		
			<use xlink:href="#New_Symbol"  width="1.034" height="27.471" x="-0.517" y="-13.735" transform="matrix(1 0 0 -1.4617 28.9678 20)" overflow="visible"/>
	</g>
	<g>
		
			<use xlink:href="#New_Symbol"  width="1.034" height="27.471" x="-0.517" y="-13.735" transform="matrix(1 0 0 -1.4617 27.873 20)" overflow="visible"/>
	</g>
	<g>
		
			<use xlink:href="#New_Symbol"  width="1.034" height="27.471" x="-0.517" y="-13.735" transform="matrix(1 0 0 -1.4617 26.7793 20)" overflow="visible"/>
	</g>
	<g>
		
			<use xlink:href="#New_Symbol"  width="1.034" height="27.471" x="-0.517" y="-13.735" transform="matrix(1 0 0 -1.4617 25.6855 20)" overflow="visible"/>
	</g>
	<g>
		
			<use xlink:href="#New_Symbol"  width="1.034" height="27.471" x="-0.517" y="-13.735" transform="matrix(1 0 0 -1.4617 24.5908 20)" overflow="visible"/>
	</g>
	<g>
		
			<use xlink:href="#New_Symbol"  width="1.034" height="27.471" x="-0.517" y="-13.735" transform="matrix(1 0 0 -1.4617 23.4961 20)" overflow="visible"/>
	</g>
	<g>
		
			<use xlink:href="#New_Symbol"  width="1.034" height="27.471" x="-0.517" y="-13.735" transform="matrix(1 0 0 -1.4617 22.4023 20)" overflow="visible"/>
	</g>
	<g>
		
			<use xlink:href="#New_Symbol"  width="1.034" height="27.471" x="-0.517" y="-13.735" transform="matrix(1 0 0 -1.4617 21.3086 20)" overflow="visible"/>
	</g>
	<g>
		
			<use xlink:href="#New_Symbol"  width="1.034" height="27.471" x="-0.517" y="-13.735" transform="matrix(1 0 0 -1.4617 20.2139 20)" overflow="visible"/>
	</g>
	<g>
		
			<use xlink:href="#New_Symbol"  width="1.034" height="27.471" x="-0.517" y="-13.735" transform="matrix(1 0 0 -1.4617 19.1191 20)" overflow="visible"/>
	</g>
	<g>
		
			<use xlink:href="#New_Symbol"  width="1.034" height="27.471" x="-0.517" y="-13.735" transform="matrix(1 0 0 -1.4617 18.0254 20)" overflow="visible"/>
	</g>
	<g>
		
			<use xlink:href="#New_Symbol"  width="1.034" height="27.471" x="-0.517" y="-13.735" transform="matrix(1 0 0 -1.4617 16.9316 20)" overflow="visible"/>
	</g>
	<g>
		
			<use xlink:href="#New_Symbol"  width="1.034" height="27.471" x="-0.517" y="-13.735" transform="matrix(1 0 0 -1.4617 15.8369 20)" overflow="visible"/>
	</g>
	<g>
		
			<use xlink:href="#New_Symbol"  width="1.034" height="27.471" x="-0.517" y="-13.735" transform="matrix(1 0 0 -1.4617 14.7422 20)" overflow="visible"/>
	</g>
	<g>
		
			<use xlink:href="#New_Symbol"  width="1.034" height="27.471" x="-0.517" y="-13.735" transform="matrix(1 0 0 -1.4617 13.6484 20)" overflow="visible"/>
	</g>
	<g>
		
			<use xlink:href="#New_Symbol"  width="1.034" height="27.471" x="-0.517" y="-13.735" transform="matrix(1 0 0 -1.4617 12.5547 20)" overflow="visible"/>
	</g>
</g>
<g id="Layer_2">
	<circle fill="#EF4136" cx="34.655" cy="34.071" r="4.122"/>
	<g>
		<path fill="none" stroke="#EF4136" stroke-width="1.4849" stroke-miterlimit="10" d="M18.052,18.837
			c-0.18,0.619-0.423,1.237-0.746,1.666c-0.828,1.096-1.499-0.468-1.835-1.666c-0.344-1.032-0.898-2.719-1.733-1.827
			c-0.385,0.41-0.663,1.121-0.862,1.803"/>
		<path fill="none" stroke="#EF4136" stroke-width="1.4849" stroke-miterlimit="10" d="M23.225,18.862
			c-0.181,0.618-0.424,1.235-0.747,1.665c-0.827,1.095-1.499-0.468-1.835-1.665c-0.344-1.033-0.898-2.72-1.733-1.828
			c-0.384,0.41-0.662,1.121-0.861,1.803"/>
		<path fill="none" stroke="#EF4136" stroke-width="1.4849" stroke-miterlimit="10" d="M28.387,18.911
			c-0.181,0.619-0.423,1.236-0.748,1.665c-0.826,1.096-1.498-0.467-1.833-1.665c-0.345-1.033-0.899-2.72-1.734-1.828
			c-0.385,0.41-0.662,1.122-0.861,1.803"/>
		<path fill="none" stroke="#EF4136" stroke-width="1.4849" stroke-miterlimit="10" d="M33.554,18.959
			c-0.182,0.62-0.424,1.237-0.747,1.666c-0.827,1.096-1.498-0.467-1.834-1.666c-0.344-1.031-0.899-2.718-1.733-1.827
			c-0.385,0.411-0.663,1.122-0.862,1.804"/>
		<path fill="none" stroke="#EF4136" stroke-width="1.4849" stroke-miterlimit="10" d="M38.73,19.009
			c-0.181,0.619-0.424,1.236-0.746,1.666c-0.828,1.095-1.5-0.468-1.836-1.666c-0.345-1.032-0.899-2.719-1.732-1.828
			c-0.385,0.411-0.664,1.122-0.862,1.804"/>
	</g>
</g>
<g id="Layer_4">
</g>
</svg>
