<?xml version="1.0" encoding="utf-8"?>
<!-- Generator: Adobe Illustrator 16.0.4, SVG Export Plug-In . SVG Version: 6.00 Build 0)  -->
<!DOCTYPE svg PUBLIC "-//W3C//DTD SVG 1.1//EN" "http://www.w3.org/Graphics/SVG/1.1/DTD/svg11.dtd">
<svg version="1.1" xmlns="http://www.w3.org/2000/svg" xmlns:xlink="http://www.w3.org/1999/xlink" x="0px" y="0px" width="40px"
	 height="40px" viewBox="0 0 40 40" enable-background="new 0 0 40 40" xml:space="preserve">
<g id="Layer_3">
</g>
<g id="Layer_1">
	<path fill="none" stroke="#EF4136" stroke-miterlimit="10" d="M4.074,22.307c0.579-1.327,0.446-5.17,1.701-6.129
		c1.195-0.913,1.879,0.752,2.128,1.791c0.228,0.947,0.234,2.62,1.367,2.842c1.482,0.289,1.123-2.148,1.903-3.221
		c1.229-1.688,2.952-0.636,3.433,1.262c0.294,1.16,0.385,1.715,1.02,1.729c1.017,0.023,1.069-0.791,1.429-1.638
		c0.689-1.623,1.124-4.885,2.559-2.266c0.752,1.371,0.68,5.881,2.771,4.762c1.094-0.586,1.021-4.591,2.596-4.312
		c0.751,0.133,0.775,1.96,1.193,2.675c0.647,1.107,1.41,1.858,2.677,1.475c1.593-0.482,1.683-4.074,3.092-3.979
		c1.433,0.097,1.585,4.665,3.393,3.508"/>
	<rect fill="none" stroke="#EF4136" stroke-miterlimit="10" width="40" height="40"/>
</g>
<g id="Layer_2">
	<circle fill="#EF4136" cx="33.621" cy="33.212" r="4.122"/>
</g>
<g id="Layer_4">
</g>
</svg>
