<?xml version="1.0" encoding="utf-8"?>
<!-- Generator: Adobe Illustrator 16.0.4, SVG Export Plug-In . SVG Version: 6.00 Build 0)  -->
<!DOCTYPE svg PUBLIC "-//W3C//DTD SVG 1.1//EN" "http://www.w3.org/Graphics/SVG/1.1/DTD/svg11.dtd">
<svg version="1.1" xmlns="http://www.w3.org/2000/svg" xmlns:xlink="http://www.w3.org/1999/xlink" x="0px" y="0px" width="40px"
	 height="40px" viewBox="0 0 40 40" enable-background="new 0 0 40 40" xml:space="preserve">
<g id="Layer_5">
	<rect x="1" y="0.667" fill="#FFFFFF" width="39.333" height="39"/>
</g>
<g id="Layer_3">
	<line fill="none" stroke="#EF4136" stroke-width="0.5" stroke-miterlimit="10" x1="0" y1="0" x2="0" y2="40"/>
	<linearGradient id="SVGID_1_" gradientUnits="userSpaceOnUse" x1="0" y1="20.083" x2="40.6465" y2="20.083">
		<stop  offset="0" style="stop-color:#FFFFFF"/>
		<stop  offset="1" style="stop-color:#EF4136"/>
	</linearGradient>
	<rect fill="url(#SVGID_1_)" width="40.646" height="40.166"/>
</g>
<g id="Layer_1">
</g>
<g id="Layer_2">
	<circle fill="#FFFFFF" cx="33.62" cy="33.212" r="4.122"/>
	<g>
		<path fill="none" stroke="#FDFDFE" stroke-width="2.0228" stroke-miterlimit="10" d="M10.898,19.555
			c-0.185,0.619-0.431,1.236-0.763,1.665c-0.844,1.096-1.528-0.467-1.871-1.665c-0.352-1.033-0.918-2.72-1.769-1.827
			c-0.394,0.41-0.677,1.121-0.88,1.803"/>
		<path fill="none" stroke="#FDFDFE" stroke-width="2.0228" stroke-miterlimit="10" d="M16.181,19.628
			c-0.184,0.619-0.432,1.237-0.762,1.666c-0.844,1.096-1.529-0.468-1.872-1.666c-0.351-1.032-0.917-2.719-1.769-1.827
			c-0.393,0.41-0.677,1.121-0.88,1.803"/>
		<path fill="none" stroke="#FDFDFE" stroke-width="2.0228" stroke-miterlimit="10" d="M21.46,19.653
			c-0.186,0.618-0.433,1.235-0.764,1.665c-0.844,1.095-1.529-0.468-1.871-1.665c-0.352-1.033-0.918-2.72-1.769-1.828
			c-0.394,0.41-0.677,1.121-0.88,1.803"/>
		<path fill="none" stroke="#FDFDFE" stroke-width="2.0228" stroke-miterlimit="10" d="M26.728,19.702
			c-0.186,0.619-0.432,1.236-0.763,1.665c-0.844,1.096-1.529-0.467-1.872-1.665c-0.351-1.033-0.917-2.72-1.769-1.828
			c-0.394,0.41-0.677,1.122-0.88,1.803"/>
		<path fill="none" stroke="#FDFDFE" stroke-width="2.0228" stroke-miterlimit="10" d="M32,19.75
			c-0.185,0.62-0.433,1.237-0.763,1.666c-0.844,1.096-1.529-0.467-1.871-1.666c-0.352-1.031-0.918-2.718-1.769-1.827
			c-0.394,0.411-0.677,1.122-0.88,1.804"/>
		<path fill="none" stroke="#FDFDFE" stroke-width="2.0228" stroke-miterlimit="10" d="M37.282,19.8
			c-0.184,0.619-0.432,1.236-0.762,1.666c-0.844,1.095-1.529-0.468-1.872-1.666c-0.352-1.032-0.918-2.719-1.769-1.828
			c-0.393,0.411-0.677,1.122-0.88,1.804"/>
	</g>
</g>
<g id="Layer_4">
</g>
</svg>
