<?xml version="1.0" encoding="UTF-8" standalone="no"?>
<!-- Generator: Adobe Illustrator 16.0.4, SVG Export Plug-In . SVG Version: 6.00 Build 0)  -->

<svg
   xmlns:dc="http://purl.org/dc/elements/1.1/"
   xmlns:cc="http://creativecommons.org/ns#"
   xmlns:rdf="http://www.w3.org/1999/02/22-rdf-syntax-ns#"
   xmlns:svg="http://www.w3.org/2000/svg"
   xmlns="http://www.w3.org/2000/svg"
   xmlns:sodipodi="http://sodipodi.sourceforge.net/DTD/sodipodi-0.dtd"
   xmlns:inkscape="http://www.inkscape.org/namespaces/inkscape"
   version="1.1"
   id="Layer_1"
   x="0px"
   y="0px"
   width="424px"
   height="424px"
   viewBox="0 0 424 424"
   style="enable-background:new 0 0 424 424;"
   xml:space="preserve"
   inkscape:version="0.91 r13725"
   sodipodi:docname="sunny3.svg"><metadata
     id="metadata63"><rdf:RDF><cc:Work
         rdf:about=""><dc:format>image/svg+xml</dc:format><dc:type
           rdf:resource="http://purl.org/dc/dcmitype/StillImage" /><dc:title></dc:title></cc:Work></rdf:RDF></metadata><defs
     id="defs61" /><sodipodi:namedview
     pagecolor="#ffffff"
     bordercolor="#666666"
     borderopacity="1"
     objecttolerance="10"
     gridtolerance="10"
     guidetolerance="10"
     inkscape:pageopacity="0"
     inkscape:pageshadow="2"
     inkscape:window-width="640"
     inkscape:window-height="480"
     id="namedview59"
     showgrid="false"
     inkscape:zoom="0.55660377"
     inkscape:cx="212"
     inkscape:cy="212"
     inkscape:window-x="159"
     inkscape:window-y="67"
     inkscape:window-maximized="0"
     inkscape:current-layer="Layer_1" /><g
     id="Layer_1_1_" /><g
     id="Isolation_Mode"><path
       style="fill:#EF4237;"
       d="M213.455,145.778c40.236,0,72.881,32.611,72.881,72.883c0,40.217-32.645,72.823-72.881,72.823   c-40.217,0-72.817-32.606-72.817-72.823C140.638,178.389,173.238,145.778,213.455,145.778z"
       id="path5" /><g
       id="g7"><path
         style="fill:none;stroke:#EF4237;stroke-width:2.8638;stroke-miterlimit:10;"
         d="M115.331,376.989    c0,0,257.471-36.388,182.399-316.451"
         id="path9" /><path
         style="fill:none;stroke:#EF4237;stroke-width:2.8638;stroke-miterlimit:10;"
         d="M159.693,396.957    c0,0,239.218-101.715,94.196-352.925"
         id="path11" /><path
         style="fill:none;stroke:#EF4237;stroke-width:2.8638;stroke-miterlimit:10;"
         d="M207.703,404.758    c0,0,204.71-160.195-0.348-365.251"
         id="path13" /><path
         style="fill:none;stroke:#EF4237;stroke-width:2.8638;stroke-miterlimit:10;"
         d="M256.059,399.897    c0,0,156.312-207.75-94.845-352.73"
         id="path15" /><path
         style="fill:none;stroke:#EF4237;stroke-width:2.8638;stroke-miterlimit:10;"
         d="M301.506,382.695    c0,0,97.191-241.051-182.96-316.146"
         id="path17" /><path
         style="fill:none;stroke:#EF4237;stroke-width:2.8638;stroke-miterlimit:10;"
         d="M340.984,354.309    c0,0,31.428-258.003-258.598-258.003"
         id="path19" /><path
         style="fill:none;stroke:#EF4237;stroke-width:2.8638;stroke-miterlimit:10;"
         d="M371.652,316.664    c0,0-36.375-257.353-316.482-182.29"
         id="path21" /><path
         style="fill:none;stroke:#EF4237;stroke-width:2.8638;stroke-miterlimit:10;"
         d="M391.663,272.365    c0,0-101.746-239.208-352.901-94.195"
         id="path23" /><path
         style="fill:none;stroke:#EF4237;stroke-width:2.8638;stroke-miterlimit:10;"
         d="M399.477,224.402    c0,0-160.172-204.7-365.229,0.354"
         id="path25" /><path
         style="fill:none;stroke:#EF4237;stroke-width:2.8638;stroke-miterlimit:10;"
         d="M394.616,176.045    c0,0-207.747-156.289-352.729,94.889"
         id="path27" /><path
         style="fill:none;stroke:#EF4237;stroke-width:2.8638;stroke-miterlimit:10;"
         d="M377.383,130.564    c0,0-241.04-97.179-316.135,182.962"
         id="path29" /><path
         style="fill:none;stroke:#EF4237;stroke-width:2.8638;stroke-miterlimit:10;"
         d="M348.95,91.129    c0,0-257.968-31.48-257.968,258.533"
         id="path31" /><path
         style="fill:none;stroke:#EF4237;stroke-width:2.8638;stroke-miterlimit:10;"
         d="M311.337,60.374    c0,0-257.339,36.377-182.244,316.494"
         id="path33" /><path
         style="fill:none;stroke:#EF4237;stroke-width:2.8638;stroke-miterlimit:10;"
         d="M267.041,40.43    c0,0-239.175,101.746-94.193,352.858"
         id="path35" /><path
         style="fill:none;stroke:#EF4237;stroke-width:2.8638;stroke-miterlimit:10;"
         d="M219.011,32.626    c0,0-204.644,160.194,0.413,365.196"
         id="path37" /><path
         style="fill:none;stroke:#EF4237;stroke-width:2.8638;stroke-miterlimit:10;"
         d="M170.719,37.488    c0,0-156.222,207.747,94.848,352.697"
         id="path39" /><path
         style="fill:none;stroke:#EF4237;stroke-width:2.8638;stroke-miterlimit:10;"
         d="M125.23,54.72    c0,0-97.104,241.074,182.939,316.114"
         id="path41" /><path
         style="fill:none;stroke:#EF4237;stroke-width:2.8638;stroke-miterlimit:10;"
         d="M85.859,83.109    c0,0-31.472,258.025,258.491,257.991"
         id="path43" /><path
         style="fill:none;stroke:#EF4237;stroke-width:2.8638;stroke-miterlimit:10;"
         d="M55.127,120.722    c0,0,36.439,257.352,316.482,182.322"
         id="path45" /><path
         style="fill:none;stroke:#EF4237;stroke-width:2.8638;stroke-miterlimit:10;"
         d="M35.116,165.084    c0,0,101.81,239.109,352.901,94.129"
         id="path47" /><path
         style="fill:none;stroke:#EF4237;stroke-width:2.8638;stroke-miterlimit:10;"
         d="M27.346,213.016    c0,0,160.239,204.633,365.208-0.424"
         id="path49" /><path
         style="fill:none;stroke:#EF4237;stroke-width:2.8638;stroke-miterlimit:10;"
         d="M32.207,261.372    c0,0,207.746,156.169,352.686-94.897"
         id="path51" /><path
         style="fill:none;stroke:#EF4237;stroke-width:2.8638;stroke-miterlimit:10;"
         d="M49.484,306.787    c0,0,241.019,97.082,316.026-182.928"
         id="path53" /><path
         style="fill:none;stroke:#EF4237;stroke-width:2.8638;stroke-miterlimit:10;"
         d="M77.873,346.225    c0,0,257.968,31.402,257.927-258.502"
         id="path55" /><path
         style="fill:none;stroke:#EF4237;stroke-width:2.8638;stroke-miterlimit:10;"
         d="M115.463,376.989    c0,0,257.339-36.496,182.268-316.483"
         id="path57" /></g></g></svg>