<?xml version="1.0" encoding="utf-8"?>
<!-- Generator: Adobe Illustrator 16.0.4, SVG Export Plug-In . SVG Version: 6.00 Build 0)  -->
<!DOCTYPE svg PUBLIC "-//W3C//DTD SVG 1.1//EN" "http://www.w3.org/Graphics/SVG/1.1/DTD/svg11.dtd">
<svg version="1.1" xmlns="http://www.w3.org/2000/svg" xmlns:xlink="http://www.w3.org/1999/xlink" x="0px" y="0px" width="40px"
	 height="40px" viewBox="0 0 40 40" enable-background="new 0 0 40 40" xml:space="preserve">
<g id="Layer_3">
	<circle fill="#EF4136" cx="20" cy="20" r="19.146"/>
</g>
<g id="Layer_1">
	<path fill="none" stroke="#FFFFFF" stroke-width="0.5" stroke-miterlimit="10" d="M26.417,6.938c0,3.36-2.724,6.083-6.083,6.083
		l0,0c-3.36,0-6.084-2.724-6.084-6.083l0,0c0-3.36,2.724-6.083,6.084-6.083l0,0C23.693,0.854,26.417,3.578,26.417,6.938
		L26.417,6.938z"/>
	<path fill="none" stroke="#FFFFFF" stroke-width="0.5" stroke-miterlimit="10" d="M21.562,5.531
		c1.149,3.157-0.479,6.648-3.636,7.797l0,0c-3.157,1.149-6.648-0.478-7.798-3.635l0,0c-1.149-3.157,0.479-6.648,3.637-7.798l0,0
		C16.923,0.746,20.413,2.374,21.562,5.531L21.562,5.531z"/>
	<path fill="none" stroke="#FFFFFF" stroke-width="0.5" stroke-miterlimit="10" d="M16.52,5.869c2.16,2.574,1.824,6.411-0.75,8.57
		l0,0c-2.573,2.161-6.411,1.825-8.57-0.749l0,0c-2.16-2.573-1.823-6.411,0.75-8.571l0,0C10.523,2.959,14.36,3.295,16.52,5.869
		L16.52,5.869z"/>
	<path fill="none" stroke="#FFFFFF" stroke-width="0.5" stroke-miterlimit="10" d="M11.896,7.912c2.91,1.68,3.906,5.4,2.226,8.31
		l0,0c-1.679,2.911-5.399,3.908-8.309,2.228l0,0c-2.91-1.679-3.906-5.4-2.227-8.311l0,0C5.267,7.229,8.987,6.232,11.896,7.912
		L11.896,7.912z"/>
	<path fill="none" stroke="#FFFFFF" stroke-width="0.5" stroke-miterlimit="10" d="M8.251,11.413
		c3.309,0.583,5.518,3.738,4.934,7.047l0,0c-0.582,3.31-3.737,5.52-7.046,4.935l0,0c-3.31-0.583-5.519-3.739-4.935-7.048l0,0
		C1.787,13.039,4.942,10.829,8.251,11.413L8.251,11.413z"/>
	<path fill="none" stroke="#FFFFFF" stroke-width="0.5" stroke-miterlimit="10" d="M6.022,15.949
		c3.309-0.583,6.463,1.625,7.047,4.935l0,0c0.584,3.309-1.625,6.465-4.934,7.047l0,0c-3.309,0.584-6.465-1.626-7.048-4.935l0,0
		C0.505,19.688,2.714,16.533,6.022,15.949L6.022,15.949z"/>
	<path fill="none" stroke="#FFFFFF" stroke-width="0.5" stroke-miterlimit="10" d="M5.479,20.975c2.91-1.68,6.63-0.683,8.311,2.227
		l0,0c1.681,2.91,0.684,6.631-2.227,8.31l0,0c-2.908,1.68-6.631,0.683-8.311-2.228l0,0C1.574,26.375,2.57,22.655,5.479,20.975
		L5.479,20.975z"/>
	<path fill="none" stroke="#FFFFFF" stroke-width="0.5" stroke-miterlimit="10" d="M6.688,25.882c2.16-2.574,5.996-2.91,8.571-0.75
		l0,0c2.574,2.159,2.91,5.997,0.75,8.57l0,0c-2.158,2.573-5.997,2.91-8.571,0.75l0,0C4.866,32.292,4.53,28.456,6.688,25.882
		L6.688,25.882z"/>
	<path fill="none" stroke="#FFFFFF" stroke-width="0.5" stroke-miterlimit="10" d="M9.503,30.081
		c1.149-3.158,4.64-4.785,7.798-3.637l0,0c3.157,1.149,4.786,4.641,3.637,7.797l0,0c-1.148,3.156-4.641,4.786-7.799,3.636l0,0
		C9.983,36.727,8.355,33.237,9.503,30.081L9.503,30.081z"/>
	<path fill="none" stroke="#FFFFFF" stroke-width="0.5" stroke-miterlimit="10" d="M13.584,33.063c0-3.36,2.723-6.083,6.083-6.084
		l0,0c3.36,0,6.085,2.724,6.085,6.083l0,0c0,3.359-2.724,6.084-6.085,6.083l0,0C16.309,39.144,13.585,36.421,13.584,33.063
		L13.584,33.063z"/>
	<path fill="none" stroke="#FFFFFF" stroke-width="0.5" stroke-miterlimit="10" d="M18.438,34.47
		c-1.149-3.158,0.479-6.648,3.636-7.799l0,0c3.157-1.148,6.649,0.479,7.798,3.636l0,0c1.149,3.156-0.478,6.649-3.637,7.798l0,0
		C23.079,39.252,19.589,37.625,18.438,34.47L18.438,34.47z"/>
	<path fill="none" stroke="#FFFFFF" stroke-width="0.5" stroke-miterlimit="10" d="M23.481,34.132
		c-2.16-2.575-1.824-6.412,0.75-8.572l0,0c2.574-2.159,6.412-1.824,8.57,0.75l0,0c2.16,2.573,1.825,6.411-0.75,8.571l0,0
		C29.478,37.039,25.643,36.703,23.481,34.132L23.481,34.132z"/>
	<path fill="none" stroke="#FFFFFF" stroke-width="0.5" stroke-miterlimit="10" d="M28.104,32.089
		c-2.91-1.681-3.906-5.401-2.227-8.312l0,0c1.681-2.909,5.401-3.907,8.31-2.227l0,0c2.91,1.679,3.908,5.4,2.227,8.311l0,0
		C34.733,32.77,31.015,33.766,28.104,32.089L28.104,32.089z"/>
	<path fill="none" stroke="#FFFFFF" stroke-width="0.5" stroke-miterlimit="10" d="M31.751,28.588
		c-3.311-0.584-5.519-3.739-4.936-7.049l0,0c0.584-3.309,3.74-5.519,7.047-4.935l0,0c3.309,0.582,5.52,3.738,4.935,7.047l0,0
		C38.212,26.961,35.059,29.169,31.751,28.588L31.751,28.588z"/>
	<path fill="none" stroke="#FFFFFF" stroke-width="0.5" stroke-miterlimit="10" d="M33.979,24.052
		c-3.311,0.583-6.465-1.626-7.049-4.936l0,0c-0.582-3.309,1.628-6.465,4.935-7.047l0,0c3.308-0.585,6.465,1.625,7.047,4.935l0,0
		C39.494,20.313,37.286,23.466,33.979,24.052L33.979,24.052z"/>
	<path fill="none" stroke="#FFFFFF" stroke-width="0.5" stroke-miterlimit="10" d="M34.522,19.026
		c-2.912,1.681-6.631,0.683-8.312-2.227l0,0c-1.678-2.911-0.681-6.632,2.227-8.31l0,0c2.908-1.681,6.631-0.685,8.311,2.227l0,0
		C38.426,13.627,37.429,17.345,34.522,19.026L34.522,19.026z"/>
	<path fill="none" stroke="#FFFFFF" stroke-width="0.5" stroke-miterlimit="10" d="M33.313,14.119
		c-2.161,2.575-5.997,2.909-8.572,0.75l0,0c-2.572-2.161-2.908-6-0.75-8.57l0,0c2.158-2.574,5.996-2.912,8.57-0.75l0,0
		C35.135,7.709,35.47,11.544,33.313,14.119L33.313,14.119z"/>
	<path fill="none" stroke="#FFFFFF" stroke-width="0.5" stroke-miterlimit="10" d="M30.499,9.92
		c-1.15,3.159-4.641,4.784-7.799,3.636l0,0c-3.156-1.151-4.785-4.643-3.636-7.796l0,0c1.147-3.157,4.639-4.787,7.797-3.637l0,0
		C30.019,3.274,31.645,6.763,30.499,9.92L30.499,9.92z"/>
</g>
<g id="Layer_2">
</g>
<g id="Layer_4">
</g>
</svg>
