<?xml version="1.0" encoding="utf-8"?>
<!-- Generator: Adobe Illustrator 16.0.4, SVG Export Plug-In . SVG Version: 6.00 Build 0)  -->
<!DOCTYPE svg PUBLIC "-//W3C//DTD SVG 1.1//EN" "http://www.w3.org/Graphics/SVG/1.1/DTD/svg11.dtd">
<svg version="1.1" xmlns="http://www.w3.org/2000/svg" xmlns:xlink="http://www.w3.org/1999/xlink" x="0px" y="0px" width="40px"
	 height="40px" viewBox="0 0 40 40" enable-background="new 0 0 40 40" xml:space="preserve">
<g id="Layer_3">
</g>
<g id="Layer_1">
	<g>
		<rect y="10.547" fill="none" stroke="#EF4136" stroke-width="0.25" stroke-miterlimit="10" width="40" height="29.453"/>
	</g>
	<circle fill="#EF4136" cx="32.477" cy="17.763" r="2.544"/>
	<polyline fill="#EF4136" points="-0.059,40 5.564,24.942 9.418,29.699 16.107,18.796 22.52,33.244 28.095,25.701 33.821,35.598 
		37.086,31.141 40.08,40 	"/>
	<g>
		<path fill="none" stroke="#EF4136" stroke-width="0.1" stroke-miterlimit="10" d="M29.051,23.292c0,0,8.99-1.27,6.369-11.05"/>
		<path fill="none" stroke="#EF4136" stroke-width="0.1" stroke-miterlimit="10" d="M30.599,23.989c0,0,8.354-3.552,3.29-12.323"/>
		<path fill="none" stroke="#EF4136" stroke-width="0.1" stroke-miterlimit="10" d="M32.275,24.262c0,0,7.149-5.594-0.012-12.754"/>
		<path fill="none" stroke="#EF4136" stroke-width="0.1" stroke-miterlimit="10" d="M33.964,24.092c0,0,5.458-7.254-3.312-12.316"/>
		<path fill="none" stroke="#EF4136" stroke-width="0.1" stroke-miterlimit="10" d="M35.551,23.491c0,0,3.394-8.417-6.388-11.039"/>
		<path fill="none" stroke="#EF4136" stroke-width="0.1" stroke-miterlimit="10" d="M36.929,22.5c0,0,1.098-9.009-9.029-9.009"/>
		<path fill="none" stroke="#EF4136" stroke-width="0.1" stroke-miterlimit="10" d="M38.001,21.186c0,0-1.27-8.987-11.051-6.366"/>
		<path fill="none" stroke="#EF4136" stroke-width="0.1" stroke-miterlimit="10" d="M38.699,19.639c0,0-3.552-8.353-12.322-3.29"/>
		<path fill="none" stroke="#EF4136" stroke-width="0.1" stroke-miterlimit="10" d="M38.973,17.964c0,0-5.594-7.148-12.754,0.012"/>
		<path fill="none" stroke="#EF4136" stroke-width="0.1" stroke-miterlimit="10" d="M38.803,16.275c0,0-7.254-5.456-12.316,3.314"/>
		<path fill="none" stroke="#EF4136" stroke-width="0.1" stroke-miterlimit="10" d="M38.201,14.688c0,0-8.417-3.394-11.039,6.388"/>
		<path fill="none" stroke="#EF4136" stroke-width="0.1" stroke-miterlimit="10" d="M37.208,13.311c0,0-9.008-1.1-9.008,9.027"/>
		<path fill="none" stroke="#EF4136" stroke-width="0.1" stroke-miterlimit="10" d="M35.894,12.237c0,0-8.985,1.27-6.363,11.051"/>
		<path fill="none" stroke="#EF4136" stroke-width="0.1" stroke-miterlimit="10" d="M34.347,11.54c0,0-8.351,3.553-3.288,12.322"/>
		<path fill="none" stroke="#EF4136" stroke-width="0.1" stroke-miterlimit="10" d="M32.671,11.268c0,0-7.145,5.593,0.014,12.752"/>
		<path fill="none" stroke="#EF4136" stroke-width="0.1" stroke-miterlimit="10" d="M30.984,11.438c0,0-5.455,7.253,3.313,12.315"/>
		<path fill="none" stroke="#EF4136" stroke-width="0.1" stroke-miterlimit="10" d="M29.397,12.039c0,0-3.391,8.418,6.387,11.038"/>
		<path fill="none" stroke="#EF4136" stroke-width="0.1" stroke-miterlimit="10" d="M28.021,13.03c0,0-1.098,9.01,9.026,9.009"/>
		<path fill="none" stroke="#EF4136" stroke-width="0.1" stroke-miterlimit="10" d="M26.948,14.344c0,0,1.272,8.986,11.051,6.366"/>
		<path fill="none" stroke="#EF4136" stroke-width="0.1" stroke-miterlimit="10" d="M26.25,15.892c0,0,3.555,8.35,12.322,3.288"/>
		<path fill="none" stroke="#EF4136" stroke-width="0.1" stroke-miterlimit="10" d="M25.978,17.567c0,0,5.595,7.145,12.753-0.015"/>
		<path fill="none" stroke="#EF4136" stroke-width="0.1" stroke-miterlimit="10" d="M26.149,19.255c0,0,7.253,5.453,12.314-3.313"/>
		<path fill="none" stroke="#EF4136" stroke-width="0.1" stroke-miterlimit="10" d="M26.751,20.841c0,0,8.416,3.39,11.035-6.388"/>
		<path fill="none" stroke="#EF4136" stroke-width="0.1" stroke-miterlimit="10" d="M27.742,22.218c0,0,9.008,1.096,9.007-9.027"/>
		<path fill="none" stroke="#EF4136" stroke-width="0.1" stroke-miterlimit="10" d="M29.055,23.292c0,0,8.986-1.274,6.365-11.051"/>
	</g>
</g>
<g id="Layer_2">
</g>
</svg>
