<?xml version="1.0" encoding="utf-8"?>
<!-- Generator: Adobe Illustrator 15.0.0, SVG Export Plug-In  -->
<!DOCTYPE svg PUBLIC "-//W3C//DTD SVG 1.1//EN" "http://www.w3.org/Graphics/SVG/1.1/DTD/svg11.dtd" [
	<!ENTITY ns_flows "http://ns.adobe.com/Flows/1.0/">
]>
<svg version="1.1"
	 xmlns="http://www.w3.org/2000/svg" xmlns:xlink="http://www.w3.org/1999/xlink" xmlns:a="http://ns.adobe.com/AdobeSVGViewerExtensions/3.0/"
	 x="0px" y="0px" width="1000px" height="1000px" viewBox="0.787 8 1000 1000"
	 overflow="visible" enable-background="new 0.787 8 1000 1000" xml:space="preserve">
<defs>
</defs>
<g>
	<text transform="matrix(1 0 0 1 382.4395 976.2012)" fill="#010101" font-family="'HelveticaNeue-Light'" font-size="48">©Luis Prado</text>
</g>
<g>
	<defs>
		<rect id="SVGID_8_" width="1001.574" height="928.476"/>
	</defs>
	<clipPath id="SVGID_10_">
		<use xlink:href="#SVGID_8_"  overflow="visible"/>
	</clipPath>
	<g clip-path="url(#SVGID_10_)">
		<path fill="#010101" d="M244.898,505.103c47.086-32.4,59.029-96.886,26.742-143.856c-32.543-47.201-96.971-59.144-144.057-26.744
			c-47.199,32.486-59.143,96.916-26.6,143.972C133.27,525.617,197.699,537.646,244.898,505.103z"/>
		<path fill="#010101" d="M628.984,982.303c-25.457-195.314-141.543-322.428-167.572-348.857l-104.027,10.028
			c-0.287,0-0.543,0.029-0.857,0c-6.914,0.343-12.914-4.886-13.543-11.886c-0.686-7.229,4.6-13.656,11.857-14.399l188.971-18.686
			c71.086-1.943,65.744-67.4,65.744-67.4l-5.459-220.914c-5.084-66.8-95.457-62.229-93.027,4.114l-1.371,184.771l-199.029,0.114
			c-131,11.942-106.486,138.687-106.486,138.687s12.115,76.971,59.172,144.399c63.914,91.313,154.115,185.714,154.115,185.714
			l48.229-36.057c6.57,22,12.256,44.828,15.484,69.686c23.771,181.628-122.484,393.428-152.027,434.114
			c-24.229,33.2-16.857,79.828,16.428,104.057c13.229,9.629,28.572,14.257,43.771,14.257c23.029,0,45.715-10.6,60.285-30.656
			C499.412,1455.045,659.299,1214.074,628.984,982.303z"/>
		<polygon fill="#010101" points="323.955,396.188 487.242,344.475 487.242,385.617 327.184,438.531 		"/>
		<path fill="#010101" d="M847.014,119.246l-37.486,12.342c0,0,18.285,47.572,0.172,80c-17.115,30.686-60.287,44.115-60.287,44.115
			l-119.285,41.172l1.029,39.398l130.914-43.171c0,0,47.857-16.086,76.4-4.886c35.113,13.715,44.514,63.686,44.514,63.686
			l37.514-12.343L847.014,119.246z"/>
		<path fill="#010101" d="M778.299,372.045c-7.4-21.371-31.943-39.17-68.514-27.627l-77.744,26.542l0.6,24.313l84.4-28.771
			c23.143-7.342,35.457,1.973,39.4,13.172c4.514,13.086-1.6,30.4-21.686,38.029l-100.629,34.371l0.6,24.285l107.887-36.828
			C776.584,426.674,786.299,395.188,778.299,372.045z"/>
	</g>
</g>
</svg>
