<?xml version="1.0" encoding="utf-8"?>
<!-- Generator: Adobe Illustrator 15.0.0, SVG Export Plug-In  -->
<!DOCTYPE svg PUBLIC "-//W3C//DTD SVG 1.1//EN" "http://www.w3.org/Graphics/SVG/1.1/DTD/svg11.dtd" [
	<!ENTITY ns_flows "http://ns.adobe.com/Flows/1.0/">
]>
<svg version="1.1"
	 xmlns="http://www.w3.org/2000/svg" xmlns:xlink="http://www.w3.org/1999/xlink" xmlns:a="http://ns.adobe.com/AdobeSVGViewerExtensions/3.0/"
	 x="0px" y="0px" width="1000px" height="1000px" viewBox="0.787 0 1000 1000"
	 overflow="visible" enable-background="new 0.787 0 1000 1000" xml:space="preserve">
<defs>
</defs>
<g>
	<text transform="matrix(1 0 0 1 509.5059 977.1006)" fill="#010101" font-family="'HelveticaNeue-Light'" font-size="48">©Sarah Rudkin</text>
</g>
<g>
	<defs>
		<rect id="SVGID_10_" width="1001.574" height="928.476"/>
	</defs>
	<clipPath id="SVGID_11_">
		<use xlink:href="#SVGID_10_"  overflow="visible"/>
	</clipPath>
	<path clip-path="url(#SVGID_11_)" fill="#010101" d="M683.34,302.455c-36.237-62.758-104.031-105.018-181.721-105.018
		c-77.701,0-145.473,42.26-181.731,105.018H683.34z"/>
	<path clip-path="url(#SVGID_11_)" fill="#010101" d="M292.885,385.844c-0.707,7.033-1.077,14.17-1.077,21.395
		c0,115.865,93.935,209.811,209.801,209.811c115.855,0,209.788-93.945,209.788-209.811c0-7.225-0.348-14.361-1.075-21.395H292.885
		L292.885,385.844z"/>
	<path clip-path="url(#SVGID_11_)" fill="#010101" d="M869.962,269.506c-5.217-21.418-38.188-12.34-32.972,9.076
		c0.808,3.33,1.077,7.18,0.718,14.448c-0.685,13.407-8.549,23.987-19.678,30.818c-18.532,11.376-42.271,9.604-63.362,9.592
		c-12.688,0-25.354-0.011-38.042-0.011C704.857,190.358,550.319,61.32,550.319,61.32c-7.427-6.192-16.592-3.971-20.351,4.937
		c0,0-12.486,29.65-33.442,29.64c-20.991-0.011-33.478-29.662-33.478-29.662c-3.746-8.907-12.879-11.14-20.316-4.947
		c0,0-155.088,129.229-166.62,272.501c-16.851-0.168-33.7-0.392-50.528-0.707c-22.695-0.438-50.305-7.258-58.046-31.312
		c-2.716-8.459-1.997-19.508-1.032-23.457c5.239-21.417-27.721-30.516-32.96-9.099c-15.706,64.216,43.651,98.187,100.003,98.21
		c42.945,0.01,85.891,0.032,128.812,0.043c132.896,0.057,265.771,0.113,398.645,0.169c32.434,0.011,65.686-3.276,90.389-26.533
		C869.962,323.602,875.875,293.748,869.962,269.506z"/>
	<polygon clip-path="url(#SVGID_11_)" fill="#010101" points="709.524,562.863 709.524,689.017 545.361,689.017 	"/>
	<g clip-path="url(#SVGID_11_)">
		<path fill="#010101" d="M723.02,594.916v105.892H537.228c-21.126,15.279-35.619,25.5-35.619,25.5s-14.495-10.221-35.62-25.5
			H274.082V597.27c-57.159,24.334-97.501,81.078-97.501,146.842V1157.8h650.076V744.102
			C826.669,676.025,783.388,617.699,723.02,594.916z M732.118,923.937l-85.453,54.948l-0.235-0.37l-0.235,0.37l-85.452-54.948
			V814.33h11.812v103.154l73.886,47.479l73.888-47.479V814.33h11.812v109.606H732.118z"/>
	</g>
	<polygon clip-path="url(#SVGID_11_)" fill="#010101" points="287.309,562.863 287.309,689.017 456.386,689.017 	"/>
</g>
</svg>
