<?xml version="1.0" encoding="utf-8"?>
<!-- Generator: Adobe Illustrator 15.0.0, SVG Export Plug-In  -->
<!DOCTYPE svg PUBLIC "-//W3C//DTD SVG 1.1//EN" "http://www.w3.org/Graphics/SVG/1.1/DTD/svg11.dtd" [
	<!ENTITY ns_flows "http://ns.adobe.com/Flows/1.0/">
]>
<svg version="1.1"
	 xmlns="http://www.w3.org/2000/svg" xmlns:xlink="http://www.w3.org/1999/xlink" xmlns:a="http://ns.adobe.com/AdobeSVGViewerExtensions/3.0/"
	 x="0px" y="0px" width="1000px" height="1000px" viewBox="0 8 1000 1000"
	 overflow="visible" enable-background="new 0 8 1000 1000" xml:space="preserve">
<defs>
</defs>
<g>
	<text transform="matrix(1 0 0 1 457.2124 996.2012)" fill="#010101" font-family="'HelveticaNeue-Light'" font-size="48">© Andrea Fajardo</text>
</g>
<g>
	<defs>
		<rect id="SVGID_10_" width="1001.574" height="954.664"/>
	</defs>
	<clipPath id="SVGID_11_">
		<use xlink:href="#SVGID_10_"  overflow="visible"/>
	</clipPath>
	<g clip-path="url(#SVGID_11_)">
		<path fill="#010101" d="M679.984,321.702c-22.939-4.256-45.952-7.424-69.401-10.121v76.408l-47.422-30.146l-62.304,166.109
			L438.57,357.843l-47.438,30.148v-76.41c-23.34,2.678-46.535,5.848-69.494,10.121c-98.319,18.25-165.675,106.646-160.551,203.916
			l22.145,411.907h96.87V543.796h29.84v462.081h85.263l50.191,635.774h71.685h50.282l45.192-635.774h81.48V543.796h27.576v393.729
			h96.69l22.179-411.907C845.661,428.332,778.287,339.936,679.984,321.702"/>
	</g>
	<path clip-path="url(#SVGID_11_)" fill="#010101" d="M622.407,162.146c0-130.005-76.103-149.415-121.604-149.415
		c-77.334,0-121.694,54.482-121.694,149.415c0,31.957,8.111,61.381,22.126,85.646c1.321,1.81,2.371,3.24,3.277,4.453
		c0,0.182,2.371,3.856,11.316,16.784c22.071,26.327,51.821,42.552,84.974,42.552c32.139,0,61.453-15.463,83.199-40.632
		c6.52-5.975,13.763-19.066,17.98-27.576c-0.833,1.883-1.757,3.983-2.879,6.626C613.697,225.303,622.407,194.973,622.407,162.146z
		 M500.803,29.57c37.208,0,97.376,14.848,106.593,107.518h-17.491c-1.574-13.472-9.759-20.298-38.711-20.298
		c-27.758,0-42.261,6.826-43.132,20.298h-13.524c-0.724-13.96-15.571-21.005-44.216-21.005c-30.637,0-38.26,7.641-39.598,21.005
		h-16.568C401.435,68.464,439.349,29.57,500.803,29.57z M578.716,143.913c0,14.359-1.865,25.35-25.313,25.35
		c-29.459,0-33.876-18.288-33.876-29.205c0-9.001,10.555-13.563,31.306-13.563C578.716,126.494,578.716,134.57,578.716,143.913z
		 M482.135,140.058c0,8.763-3.313,29.205-33.95,29.205c-23.393,0-25.258-10.973-25.258-25.35c0-9.361,0-17.419,27.866-17.419
		C471.58,126.494,482.135,131.057,482.135,140.058z M588.004,240.095c1.032-2.353,1.847-4.199,2.571-5.848
		c-3.767,7.533-10.177,19.156-15.953,24.462c-19.283,22.325-45.301,36.052-73.819,36.052c-29.423,0-55.841-14.414-75.415-37.754
		c-7.948-11.462-10.085-14.721-10.085-14.902c-0.76-1.068-1.702-2.316-2.897-3.927c-12.44-21.565-19.628-47.658-19.628-76.031
		c0-4.345,0.182-8.511,0.38-12.655c5.233,0.018,12.548,0.054,17.491,0.054c0.906,15.934,6.591,30.146,36.43,30.146
		c31.179,0,42.189-15.607,45.829-29.351c3.512-0.524,6.826-0.778,9.813-0.813c2.099,0.018,4.381,0.163,6.735,0.434
		c3.367,13.599,13.979,29.024,44.832,29.024c29.15,0,34.784-13.778,35.725-29.458c1.321,0.018,2.553,0.018,4.146,0.018
		c4.615,0,9.958-0.018,14.033-0.054c0.198,4.183,0.469,8.22,0.469,12.655C608.718,191.28,600.985,218.187,588.004,240.095z"/>
</g>
</svg>
