<?xml version="1.0" encoding="utf-8"?>
<!-- Generator: Adobe Illustrator 15.0.0, SVG Export Plug-In  -->
<!DOCTYPE svg PUBLIC "-//W3C//DTD SVG 1.1//EN" "http://www.w3.org/Graphics/SVG/1.1/DTD/svg11.dtd" [
	<!ENTITY ns_flows "http://ns.adobe.com/Flows/1.0/">
]>
<svg version="1.1"
	 xmlns="http://www.w3.org/2000/svg" xmlns:xlink="http://www.w3.org/1999/xlink" xmlns:a="http://ns.adobe.com/AdobeSVGViewerExtensions/3.0/"
	 x="0px" y="0px" width="1000px" height="1000px" viewBox="0 0 1000 1000"
	 overflow="visible" enable-background="new 0 0 1000 1000" xml:space="preserve">
<defs>
</defs>
<g>
	<text transform="matrix(1 0 0 1 531.7188 983)" fill="#010101" font-family="'HelveticaNeue-Light'" font-size="48">©Sarah Rudkin</text>
</g>
<g>
	<defs>
		<rect id="SVGID_10_" width="1001.574" height="940.385"/>
	</defs>
	<clipPath id="SVGID_11_">
		<use xlink:href="#SVGID_10_"  overflow="visible"/>
	</clipPath>
	<path clip-path="url(#SVGID_11_)" fill="#010101" d="M616.211,341.212c-95.779,6.908-194.822,14.04-314.17,21.055
		c-1.952,0.117-3.904,0.175-5.869,0.175c-2.537,0-5.097-0.094-7.657-0.28l-32.862,3.062
		c18.238,110.92,114.287,195.641,230.374,195.641c126.817,0,229.8-101.076,233.399-227.006
		C684.145,336.325,649.938,338.78,616.211,341.212z"/>
	<path clip-path="url(#SVGID_11_)" fill="#010101" d="M934.076,282.97c-13.398-10.089-31.646-14.005-48.119-13.035
		c-72.773,4.291-58.078,8.558-130.863,12.848c-0.175-3.062-0.104-6.09-0.385-9.176C741.194,128.655,612.716,22.086,467.742,35.599
		c-144.938,13.525-251.51,142.004-237.996,286.955c0.854,9.025,2.152,17.922,3.836,26.643l54.816-5.121
		c4.255,0.387,8.476,0.457,12.578,0.211c238.439-14.016,389.41-28.045,627.862-42.074
		C942.854,301.382,944.398,290.755,934.076,282.97z"/>
	<path clip-path="url(#SVGID_11_)" fill="#010101" d="M690.668,525.851c-0.409,0.387-0.877,0.783-1.286,1.17l2.537-0.971
		C691.498,526.003,691.077,525.897,690.668,525.851z"/>
	<path clip-path="url(#SVGID_11_)" fill="#010101" d="M692.444,526.132v342.461c0,0-0.771,121.839,38.789,132.255v162.462h116.905
		V702.425C848.15,612.127,779.913,537.108,692.444,526.132z"/>
	<path clip-path="url(#SVGID_11_)" fill="#010101" d="M281.36,868.593V525.851c-88.31,10.16-157.482,85.668-157.482,176.574v460.896
		h118.658v-162.474C282.144,990.432,281.36,868.593,281.36,868.593z"/>
	<path clip-path="url(#SVGID_11_)" fill="#010101" d="M486.026,813.367c130.815,0,156.769-194.378,161.644-253.742
		c-66.074,46.399-161.644,97.978-161.644,97.978S382.4,601.666,316.338,553.897C319.413,590.056,344.092,813.367,486.026,813.367z"
		/>
	<g clip-path="url(#SVGID_11_)">
		<polygon fill="#010101" points="346.138,1162.62 346.138,928.448 404.637,869.984 570.454,869.984 628.941,928.448 
			628.941,1162.62 638.598,1162.62 638.598,923.912 574.99,860.315 400.089,860.315 336.481,923.912 336.481,1162.62 		"/>
		<polygon fill="#010101" points="410.879,882.459 358.635,934.702 358.635,1162.62 425.083,1162.62 425.083,952.309 
			448.359,929.021 527.294,929.021 550.557,952.309 550.557,1162.62 617.018,1162.62 617.018,935.276 563.639,882.459 		"/>
		<polygon fill="#010101" points="445.519,1155.595 445.519,962.55 458.016,950.04 516.503,950.04 528.988,962.55 528.988,1156.179 
			522.547,1162.62 533.922,1162.62 538.656,1157.875 538.656,960.258 518.771,940.385 456.309,940.385 436.434,960.258 
			436.434,1157.875 441.181,1162.62 452.532,1162.62 		"/>
	</g>
</g>
</svg>
