<?xml version="1.0" encoding="utf-8"?>
<!-- Generator: Adobe Illustrator 15.0.0, SVG Export Plug-In  -->
<!DOCTYPE svg PUBLIC "-//W3C//DTD SVG 1.1//EN" "http://www.w3.org/Graphics/SVG/1.1/DTD/svg11.dtd" [
	<!ENTITY ns_flows "http://ns.adobe.com/Flows/1.0/">
]>
<svg version="1.1"
	 xmlns="http://www.w3.org/2000/svg" xmlns:xlink="http://www.w3.org/1999/xlink" xmlns:a="http://ns.adobe.com/AdobeSVGViewerExtensions/3.0/"
	 x="0px" y="0px" width="1000px" height="1000px" viewBox="0.787 -2.729 1000 1000"
	 overflow="visible" enable-background="new 0.787 -2.729 1000 1000" xml:space="preserve">
<defs>
</defs>
<g>
	<text transform="matrix(1 0 0 1 509.5059 973.4717)" fill="#010101" font-family="'HelveticaNeue-Light'" font-size="48">©George Patterson</text>
</g>
<g>
	<defs>
		<rect id="SVGID_9_" width="1001.574" height="928.476"/>
	</defs>
	<clipPath id="SVGID_10_">
		<use xlink:href="#SVGID_9_"  overflow="visible"/>
	</clipPath>
	<path clip-path="url(#SVGID_10_)" fill="#010101" d="M457.713,486.284c-5.157-6.759-9.604-14.23-13.34-21.879L457.713,486.284z"/>
	<path clip-path="url(#SVGID_10_)" fill="#010101" d="M879.817,1696.387c13.698,37.711-5.691,79.334-43.401,93.031
		c-8.183,3.022-16.544,4.446-24.885,4.446c-29.706,0-57.456-18.321-68.128-47.85l-13.874-38.243l-37.533,7.488
		c-4.251-39.507-46.07-210.429-72.379-310.059l-24.546-67.594c-1.245-3.735-2.33-7.292-3.042-11.028l-41.801-215.765l-39.329-0.357
		l-188.372,214.682l-7.649,36.66c-0.195,0.355-0.373,0.891-0.373,1.423c-15.12,91.59-14.054,205.982-13.163,267.173l-43.225,0.533
		l-6.76,32.553c-8.182,39.31-46.781,64.392-85.915,56.209c-39.31-8.378-64.392-46.8-56.21-86.111l0.178-0.711l-45.18,0.533
		c30.95-61.172,78.977-196.021,105.837-289.051c0-0.356,0-0.533,0.177-0.712l14.055-67.061c2.668-12.272,8.377-23.479,16.56-32.925
		l176.634-201.34l0.177-0.196c3.379-9.071,4.625-19.388,4.269-30.595c-37.71-14.229-63.502-26.681-63.502-26.681
		c-20.278-48.917-0.355-349.709,57.454-447.186L262.208,354.975c-3.913-6.226-6.226-13.163-7.097-20.278L227.896,86.558
		c-2.846-26.682,16.188-50.519,42.868-53.364c26.682-3.024,50.519,16.188,53.364,42.69l25.971,237.29l93.759,150.307
		c0.178,0.178,0.178,0.534,0.516,0.889c3.736,7.649,8.183,15.12,13.34,21.88c0.375,0.533,0.713,1.066,1.086,1.423l1.227,1.956h0.375
		c9.96,12.808,22.412,23.658,36.464,32.196c-1.067,3.202-2.312,6.937-3.379,11.385c-3.735,14.764-7.098,36.108-9.587,58.877
		c-5.158,45.182-7.668,96.232-5.355,114.731c5.871-20.99,24.547-67.949,43.242-107.973c8.521-18.854,17.077-36.108,24.369-48.383
		c1.938-3.735,3.914-6.938,5.675-9.605c5.532,0.712,11.029,1.067,16.721,1.067c26.504,0,51.406-7.471,72.378-20.455l12.629,2.312
		c10.852,1.778,20.83,7.471,28.105,15.83l142.302,163.47c4.644,5.337,8.183,11.74,9.979,18.856l69.728,250.984
		c7.116,25.793-8.004,52.475-33.797,59.59c-4.251,1.245-8.697,1.796-12.967,1.796c-21.167,0-40.556-14.052-46.604-35.397
		L743.6,758.241l-86.805-99.789c-5.87,69.728-10.495,179.835,7.649,273.043c2.312,11.917,3.556,22.945,3.734,32.729
		c0.179,0.179,0.179,0.179,0.179,0.355c4.446,15.992,8.181,32.73,10.69,50.34c1.066,3.203,1.938,6.581,2.65,10.122l51.939,268.239
		l55.498,152.993c29.705,58.521,72.77,132.163,132.892,223.414l-48.399,9.606L879.817,1696.387z"/>
	<g clip-path="url(#SVGID_10_)">
		<path fill="#010101" d="M685.042,403.393c0,52.475-34.509,96.766-82.181,111.529c-0.177-0.177-0.177,0-0.354,0
			c-10.691,3.203-22.234,4.981-33.975,4.981c-25.971,0-50.161-8.539-69.372-23.303h-0.179
			c-28.46-21.167-46.782-54.965-46.782-93.208c0-64.213,52.119-116.332,116.333-116.332
			C632.923,287.061,685.042,339.18,685.042,403.393z"/>
		<path fill="#010101" d="M444.373,464.405c3.736,7.648,8.183,15.12,13.34,21.879L444.373,464.405z"/>
	</g>
</g>
</svg>
