<?xml version="1.0" encoding="utf-8"?>
<!-- Generator: Adobe Illustrator 15.0.0, SVG Export Plug-In  -->
<!DOCTYPE svg PUBLIC "-//W3C//DTD SVG 1.1//EN" "http://www.w3.org/Graphics/SVG/1.1/DTD/svg11.dtd" [
	<!ENTITY ns_flows "http://ns.adobe.com/Flows/1.0/">
]>
<svg version="1.1"
	 xmlns="http://www.w3.org/2000/svg" xmlns:xlink="http://www.w3.org/1999/xlink" xmlns:a="http://ns.adobe.com/AdobeSVGViewerExtensions/3.0/"
	 x="0px" y="0px" width="1000px" height="1000px" viewBox="19.296 0 1000 1000"
	 overflow="visible" enable-background="new 19.296 0 1000 1000" xml:space="preserve">
<defs>
</defs>
<g>
	<text transform="matrix(1 0 0 1 413.2061 979.3027)" fill="#010101" font-family="'HelveticaNeue-Light'" font-size="48">©Hum</text>
</g>
<g>
	<defs>
		<rect id="SVGID_10_" x="18.509" width="1001.574" height="928.476"/>
	</defs>
	<clipPath id="SVGID_11_">
		<use xlink:href="#SVGID_10_"  overflow="visible"/>
	</clipPath>
	<g clip-path="url(#SVGID_11_)">
		<g>
			<path fill="#010101" d="M402.745,305.558l30.826,6.258c35.562,7.21,70.225-15.727,77.449-51.286l17.275-83.04
				c7.197-35.52-15.753-70.183-51.3-77.406l-30.813-6.258c-35.561-7.21-70.223,15.74-77.434,51.287l-17.277,83.024
				C344.249,263.671,367.226,298.334,402.745,305.558z"/>
			<path fill="#010101" d="M547.765,933.098c-0.641-6.992-1.252-13.958-1.864-20.883c-1.891-21.438-3.688-42.158-5.238-60.103
				c-0.162-3.387-0.285-6.747-0.53-10.284c-0.64-11.047-1.986-27.235-3.795-46.893c-1.088-5.129-4.299-4.014-6.109-3.007
				c-4.175,2.285-8.135,4.612-11.821,6.966c-7.632,4.802-14.38,9.699-20.283,14.732c-19.005,16.202-27.059,31.535-35.126,48.784
				c-0.748,1.578-1.482,3.143-2.23,4.775c-7.795,16.814-15.849,34.214-32.881,52.524c-5.319,5.714-10.869,11.033-16.475,15.795
				c-5.755,4.91-11.754,9.236-17.849,13.209c-0.504,0.327-1.007,0.68-1.524,0.993c-2.067,1.333-4.162,2.571-6.257,3.782
				c-2.231,1.279-4.462,2.544-6.72,3.687c-20.298,10.34-41.941,15.739-64.049,15.739c-2.611,0-7.822,0.137-9.183,5.633
				c-1.347,5.495-4.136,18.338-4.136,18.338c-8.285,30.582-18.637,40.731-39.193,38.363c-20.542-2.381-131.986-12.501-193.571-18.12
				c-61.599-5.646-77.039,72.292-65.3,73.462c11.74,1.129,192.172,28.133,271.51,40.595
				c79.338,12.475,102.859-36.433,129.238-88.345c0.422-0.844,0.885-1.755,1.333-2.626c0.095-0.231,0.081-0.462,0.19-0.693
				c4.068-8.027,9.033-17.536,14.475-27.916c4.135-7.85,8.557-16.189,13.087-24.732c1.212-2.271,2.435-4.558,3.66-6.869
				c1.237-2.327,2.489-4.667,3.741-7.007c26.064-48.743,53.463-98.942,53.885-99.704c0.178-0.34,0.477-0.558,0.722-0.857
				c2.148-2.802,5.999-3.808,9.209-2.054c3.552,1.945,4.815,6.38,2.912,9.917c-0.396,0.722-25.249,46.254-50.104,92.616
				c-1.346,2.517-2.68,5.007-4.013,7.496c-1.333,2.503-2.666,4.993-3.985,7.482c-7.768,14.57-15.25,28.718-21.712,41.098
				l21.698,50.893c10.23,29.983,7.346,44.199-11.02,53.722c-18.338,9.551-116.383,63.518-170.58,93.311
				c-54.199,29.793-23.373,103.023-13.02,97.432c10.379-5.631,175.016-84.223,247.742-118.259
				c72.727-34.064,64.864-87.76,57.626-145.55C557.191,1036.053,552.335,984.439,547.765,933.098z"/>
			<path fill="#010101" d="M838.061,435.477c-6.3-1.157-13.944-2.653-22.583-4.422c-1.728-0.34-4.707-0.979-7.973,1.266
				c-23.357,19.916-44.552,37.981-63.721,54.32c-1.143,0.98-0.421,3.292,1.034,3.469c35.792,4.504,66.075,8.162,82.521,9.985
				C888.87,506.897,889.075,444.822,838.061,435.477z"/>
			<path fill="#010101" d="M486.831,358.545c12.734,20.094,20.543,40.949,23.06,61.409c0.163,1.048,0.422,2.055,0.612,3.115
				l0.027,0.259l0.026,0.258c0.272,2.422,1.674,14.284,3.769,32.608c0.109,0.912,0.341,2.653,2.652,3.238
				c24.95,3.891,106.548,15.06,109.676,15.387c3.13,0.326,4.83-0.708,5.523-1.307c19.657-16.773,44.023-37.383,73.951-63.041
				c2.762-2.354,0.055-3.292-1.429-3.632c-81.896-18.706-173.764-41.058-213.705-53.083
				C487.321,352.669,484.587,355.009,486.831,358.545z"/>
			<path fill="#010101" d="M258.72,427.368c2.557,4.543,4.91,8.748,7.087,12.692c2.122,3.836,4.054,7.401,5.755,10.598
				c0.979,1.836,2.925,7.482,3.115,8.652c0,0,12.366,64.089,27.861,142.72c0.271,1.415,1.374,3.7,5.781,3.401
				c9.918-1.769,18.815-4.299,26.419-8.707c2.477-1.429,4.681-2.979,6.788-4.774c9.306-7.932,14.095-18.747,19.631-31.29
				c6.285-14.229,13.414-30.377,28.65-43.355c4.598-3.918,9.74-7.387,15.25-10.258c13.536-7.088,27.766-10.706,42.336-10.706
				c17.508,0,35.52,5.184,54.39,15.658c1.496,0.843,4.106-0.885,3.917-2.612c-5.631-49.56-9.658-84.101-9.658-84.101
				c-8.965-58.334-49.791-101.472-105.336-101.472c-5.564,0-11.319,0.436-17.154,1.333l-12.108,1.863
				c-9.306,1.429-17.767,4.245-25.82,7.307c-2.285,0.884-4.108,0.517-6.38-2.178c-0.572-0.693-1.09-1.456-1.633-2.176
				c-1.469-1.946-2.992-3.959-4.531-6C261.971,243.524,129.25,80.003,101.62,43.911C64.046-5.212,19.044,37.545,47.544,80.86
				C80.425,130.842,207.146,336.29,258.72,427.368z"/>
			<path fill="#010101" d="M855.093,372.544c1.755-1.51,0.027-3.388,0.027-3.388l-34.119-28.881
				c-1.43-1.251-5.211-4.068-7.973-1.674c-32.581,28.106-61.137,52.132-86.031,73.326c-31.112,26.556-56.647,48.308-77.352,65.952
				c-49.07,41.846-71.844,61.245-82.455,70.278c-7.115,6.095-4.966,12.869-2.815,15.305c1.088,1.211,2.121,2.436,3.183,3.673
				c6.054,7.128,11.687,14.557,16.733,22.052v0.028c0.585,0.856,1.251,1.89,1.945,2.979c1.891,2.897,6.462,4.041,9.781,1.225
				c13.155-11.237,51.736-44.118,124.722-106.329c20.882-17.821,44.635-38.064,71.394-60.864
				C811.519,409.683,832.563,391.984,855.093,372.544z M693.477,487.117c-1.483,1.278-3.347,1.904-5.156,1.904
				c-2.258,0-4.489-0.952-6.054-2.802c-1.088-1.266-1.537-2.775-1.728-4.3c-0.285-2.543,0.531-5.143,2.599-6.924
				c1.51-1.278,3.319-1.905,5.183-1.905c2.232,0,4.463,0.953,6.055,2.803c1.945,2.285,2.285,5.347,1.278,7.986
				C695.178,485.063,694.538,486.22,693.477,487.117z M735.187,451.542c-1.483,1.279-3.347,1.905-5.156,1.905
				c-2.257,0-4.489-0.953-6.053-2.803c-2.844-3.36-2.477-8.38,0.896-11.224c1.483-1.292,3.319-1.918,5.156-1.918
				c2.259,0,4.489,0.952,6.055,2.802C738.928,443.666,738.56,448.699,735.187,451.542z"/>
			<path fill="#010101" d="M979.312,280.01l-51.969-60.96c-1.454-1.714-3.427-2.639-5.209-2.639c-1.035,0-1.986,0.312-2.763,0.965
				l-87.337,94.1c-2.096,1.782-1.892,5.428,0.421,8.148l23.78,27.901l11.985,14.067c0.611,0.707,1.306,1.252,2.04,1.687
				c1.034,0.612,2.122,0.967,3.184,0.967c1.006,0,1.986-0.3,2.734-0.952l103.513-75.136
				C981.841,286.362,981.623,282.703,979.312,280.01z"/>
			<path fill="#010101" d="M586.468,702.332c-1.646,0-3.511,0.586-5.604,1.837c-7.143,4.245-13.741,6.244-19.794,6.244
				c-7.252,0-13.74-2.938-19.399-8.325c-2.952-2.815-5.715-6.285-8.218-10.407c-0.108-0.218-0.218-0.408-0.312-0.612
				c-4.435-7.577-6.108-15.753-2.789-25.82c1.279-3.769,3.293-7.835,6.081-12.203c6.856-10.814,18.679-23.671,37.438-39.642
				c2.53-2.177,5.047-5.374,3.115-8.489c-1.51-2.462-3.429-5.522-4.789-7.522c-4.733-7.061-9.985-13.999-15.753-20.76
				c-4.067-4.775-8.312-9.237-12.625-13.536c-2.122-2.163-4.271-4.34-6.488-6.38c-4.231-3.904-8.503-7.646-12.802-11.225
				c-2.707-2.217-5.387-4.366-8.135-6.434c-2.652-2-5.32-3.918-8-5.769c-19.645-13.509-40.132-22.297-61.014-22.297
				c-11.768,0-23.617,2.775-35.547,9.033c-4.83,2.53-8.951,5.373-12.543,8.435c-25.113,21.385-24.324,54.212-48.295,74.645
				c-2.652,2.272-5.618,4.367-8.965,6.299c-10.652,6.177-22.801,9.184-35.833,11.251c-2.38,0.381-4.815,0.721-7.251,1.047
				c-2.381,0.327-4.816,0.627-7.265,0.926c-29.671,3.592-62.674,6.38-93.024,30.826c-1.836,1.483-3.646,2.966-5.388,4.462
				c-81.827,69.748-71.598,154.746-5.155,232.725c36.2,42.444,79.435,65.966,122.273,67.544c1.537,0.055,3.074,0.163,4.584,0.163
				c18.76,0,37.411-4.245,55.314-13.006c2.258-1.115,4.488-2.422,6.747-3.673c2.068-1.169,4.149-2.354,6.218-3.646
				c1.496-0.926,2.966-1.946,4.462-2.938c4.788-3.251,9.55-6.72,14.188-10.679c5.184-4.422,10.285-9.306,15.25-14.639
				c14.91-16.025,22.379-31.574,29.535-47.028c8.257-17.822,16.106-35.452,34.459-53.424c2.339-2.258,4.815-4.517,7.469-6.788
				c11.264-9.632,25.915-19.358,45.614-29.263c2.258-1.143,4.625-2.272,7.019-3.414c2.286-1.075,4.652-2.163,7.047-3.265
				c2.231-1.007,4.408-2.014,6.775-3.048c7.17-3.115,13.236-7.02,18.284-11.306C597.228,731.826,598.222,702.332,586.468,702.332z
				 M423.355,546.975c2.476-2.095,5.495-3.129,8.503-3.129c3.713,0,7.399,1.578,9.998,4.612c4.707,5.509,4.027,13.794-1.469,18.501
				c-2.49,2.109-5.51,3.13-8.529,3.13c-3.688,0-7.374-1.565-9.986-4.6C417.179,559.98,417.846,551.695,423.355,546.975z
				 M333.637,714.739l28.718-24.487c0.871-0.734,1.918-1.075,2.979-1.075c1.292,0,2.599,0.532,3.497,1.593l44.443,52.145
				c1.66,1.958,1.429,4.828-0.503,6.488l-28.718,24.487c-0.871,0.735-1.932,1.103-2.993,1.103c-1.306,0-2.585-0.559-3.495-1.619
				l-44.459-52.145C331.474,719.283,331.705,716.398,333.637,714.739z M262.842,761.293l4.747-4.055
				c0.871-0.721,1.932-1.088,2.993-1.088c1.307,0,2.585,0.544,3.483,1.619l58.102,68.129c1.646,1.932,1.402,4.828-0.517,6.488
				l-4.733,4.041c-0.871,0.734-1.919,1.088-2.993,1.088c-1.294,0-2.572-0.53-3.483-1.605l-58.103-68.142
				C260.692,765.836,260.923,762.925,262.842,761.293z M306.306,916.637c-2.367,1.823-5.17,2.693-7.944,2.693
				c-3.945,0-7.85-1.781-10.448-5.184c-4.38-5.768-3.278-13.998,2.504-18.405c2.367-1.81,5.156-2.666,7.932-2.666
				c3.957,0,7.861,1.781,10.447,5.169C313.19,904.026,312.074,912.257,306.306,916.637z M359.104,909.468
				c-1.43,1.074-3.021,1.795-4.654,2.218c-1.088,0.285-2.189,0.462-3.291,0.462c-3.959,0-7.863-1.782-10.447-5.183
				c-4.396-5.782-3.293-13.999,2.488-18.406c1.102-0.844,2.299-1.442,3.523-1.892c1.428-0.503,2.925-0.803,4.422-0.803
				c1.033,0,2.068,0.137,3.087,0.381c2.831,0.694,5.47,2.299,7.374,4.816c3.863,5.061,3.469,12.013-0.598,16.624
				C360.437,908.338,359.811,908.938,359.104,909.468z M403.67,875.539c-2.38,1.81-5.169,2.693-7.944,2.693
				c-3.959,0-7.863-1.795-10.448-5.183c-2.081-2.721-2.884-6-2.585-9.156c0.326-3.55,2.027-6.938,5.074-9.25
				c2.367-1.81,5.156-2.681,7.945-2.681c3.959,0,7.85,1.796,10.448,5.184c1.442,1.904,2.245,4.067,2.53,6.259
				C409.261,867.935,407.534,872.601,403.67,875.539z M482.016,690.375l-28.718,24.486c-0.871,0.749-1.932,1.089-2.979,1.089
				c-1.306,0-2.571-0.544-3.496-1.591l-44.458-52.158c-1.646-1.918-1.415-4.816,0.518-6.476l28.718-24.474
				c0.856-0.748,1.918-1.103,2.979-1.103c1.306,0,2.584,0.544,3.496,1.605l44.444,52.158
				C484.165,685.831,483.934,688.742,482.016,690.375z"/>
		</g>
	</g>
</g>
</svg>
