<?xml version="1.0" encoding="utf-8"?>
<!-- Generator: Adobe Illustrator 15.0.0, SVG Export Plug-In  -->
<!DOCTYPE svg PUBLIC "-//W3C//DTD SVG 1.1//EN" "http://www.w3.org/Graphics/SVG/1.1/DTD/svg11.dtd" [
	<!ENTITY ns_flows "http://ns.adobe.com/Flows/1.0/">
]>
<svg version="1.1"
	 xmlns="http://www.w3.org/2000/svg" xmlns:xlink="http://www.w3.org/1999/xlink" xmlns:a="http://ns.adobe.com/AdobeSVGViewerExtensions/3.0/"
	 x="0px" y="0px" width="1000px" height="1000px" viewBox="0 8 1000 1000"
	 overflow="visible" enable-background="new 0 8 1000 1000" xml:space="preserve">
<defs>
</defs>
<g>
	<text transform="matrix(1 0 0 1 370.6519 994.3008)" fill="#010101" font-family="'HelveticaNeue-Light'" font-size="48">©Paulo Sá Ferreira </text>
</g>
<g>
	<defs>
		<rect id="SVGID_10_" width="1001.574" height="954.963"/>
	</defs>
	<clipPath id="SVGID_11_">
		<use xlink:href="#SVGID_10_"  overflow="visible"/>
	</clipPath>
	<g clip-path="url(#SVGID_11_)">
		<path fill="#010101" d="M406.867,466.501c0,0-147.398,125.842-160.401,260.899c-12.989,135.072-6.812,290.29,6.178,318.859
			c12.988,28.555,67.046,46.627,67.046,46.627l-29.707,350.539h158.443v-278.323l62.338-20.793v299.116h166.248l-20.794-336.585
			c0,0,90.922-46.195,101.304-72.188c10.396-25.978-7.949-249.048-16.877-324.504c-20.779-175.233-146.75-241.2-146.75-241.2
			v444.153l-187.027,5.199V466.501z"/>
		<path fill="#010101" d="M557.549,285.867c0,20.16-29.002,36.504-59.083,36.504c-30.082,0-49.824-16.329-49.824-36.504
			c0-20.159,29.002-6.033,59.098-6.033C537.792,279.82,557.549,265.708,557.549,285.867z"/>
		<path fill="#010101" d="M716.18,168.292l-18.807-28.181l-13.205,1.656C658.982,65.274,593.952,14.773,511.152,14.773
			c-105.553,0-198.951,79.43-212.818,175.219l-6.896,0.864l-11.275,31.968l16.473-2.059
			c2.823,112.334,79.315,193.262,184.22,193.262c114.408,0,214.776-93.283,214.776-199.627c0-14.933-1.34-29.304-3.831-43.07
			L716.18,168.292z M511.152,57.974c59.73,0,107.395,35.136,128.865,89.309l-6.825,0.85l0,0l-32.991,4.133l-256.996,32.112
			C360.01,115.17,432.499,57.974,511.152,57.974z M652.416,214.415c0,81.864-81.777,156.427-171.576,156.427
			c-81.562,0-140.803-65.318-141.25-155.434l8.18-1.021c6.826,31.002,31.579,52.746,63.879,48.7
			c32.328-4.032,60.119-32.343,60.393-64.238l43.503-5.429c6.812,31.003,31.594,52.732,63.907,48.686
			c32.285-4.031,60.105-32.342,60.351-64.238l8.812-1.108C651.033,188.726,652.416,201.268,652.416,214.415z"/>
		<polygon fill="#010101" points="463.373,473.054 483.072,445.981 530.203,445.981 545.641,467.941 525.178,536.111 
			554.928,784.598 500.827,883.122 463.373,761.428 483.072,533.476 		"/>
	</g>
</g>
</svg>
