<?xml version="1.0" encoding="utf-8"?>
<!-- Generator: Adobe Illustrator 15.0.0, SVG Export Plug-In  -->
<!DOCTYPE svg PUBLIC "-//W3C//DTD SVG 1.1//EN" "http://www.w3.org/Graphics/SVG/1.1/DTD/svg11.dtd" [
	<!ENTITY ns_flows "http://ns.adobe.com/Flows/1.0/">
]>
<svg version="1.1"
	 xmlns="http://www.w3.org/2000/svg" xmlns:xlink="http://www.w3.org/1999/xlink" xmlns:a="http://ns.adobe.com/AdobeSVGViewerExtensions/3.0/"
	 x="0px" y="0px" width="1000px" height="1000px" viewBox="0 8 1000 1000"
	 overflow="visible" enable-background="new 0 8 1000 1000" xml:space="preserve">
<defs>
</defs>
<g>
	<text transform="matrix(1 0 0 1 544.2129 983)" fill="#010101" font-family="'HelveticaNeue-Light'" font-size="48">©Fabián Sanabria</text>
</g>
<path fill="#010101" d="M729.49,367.801c-7.389,0-13.956,1.642-19.703,4.105V241.367c46.797-4.927,78.815-32.84,78.815-107.551
	c0,0-16.42,13.956-47.618,9.03c0-9.853-1.643-20.525-5.746-32.841c0,0-9.853,15.6-37.767,15.6l0,0
	C622.761,79.631,568.574,13.951,421.616,36.117c-108.372,16.42-189.65,166.663-105.087,285.709v50.08
	c-5.748-2.464-12.314-4.105-19.705-4.105c-35.303,0-35.303,37.766-35.303,50.08s0,50.081,35.303,50.081
	c7.391,0,13.957-1.641,19.705-4.104v54.186v0.82c0,1.643,12.314,148.601,196.219,148.601c183.082,0,196.218-147.779,196.218-148.601
	v-55.006c5.748,2.464,12.316,4.104,19.704,4.104c35.304,0,35.304-37.767,35.304-50.081
	C764.794,405.566,764.794,367.801,729.49,367.801z M519.315,522.97c-26.272,0-48.438-21.346-48.438-48.438h96.057
	C567.754,501.624,545.588,522.97,519.315,522.97z M514.39,393.252c-63.217,0-142.854,18.883-172.41,26.271V277.488
	c18.062-35.302,50.903-75.53,105.909-75.53c68.143,0,165.842,40.229,239.732,41.871v176.515
	C657.243,411.313,577.607,393.252,514.39,393.252z M298.467,452.363c-9.03,0-18.883-2.463-18.883-33.66
	c0-31.198,9.853-33.66,18.883-33.66c7.389,0,13.957,2.463,19.705,7.388v53.366C312.424,449.08,305.855,452.363,298.467,452.363z
	 M729.49,452.363c-7.389,0-13.956-2.463-19.703-7.389v-53.365c5.747-4.926,12.314-7.389,19.703-7.389
	c9.031,0,18.884,2.463,18.884,33.66C748.374,449.08,738.522,452.363,729.49,452.363z"/>
<path fill="#010101" d="M387.955,315.256h36.125c-5.747,4.105-9.853,10.674-9.853,18.062c0,12.314,9.853,22.166,22.167,22.166
	c12.315,0,22.168-9.852,22.168-22.166c0-7.389-4.105-13.957-9.853-18.062h36.124v-36.944h-97.699v36.944H387.955z"/>
<path fill="#010101" d="M640.824,277.49h-97.699v36.945h36.123c-5.746,4.105-9.852,10.674-9.852,18.062
	c0,12.314,9.852,22.166,22.167,22.166s22.167-9.852,22.167-22.166c0-7.39-4.104-13.957-9.852-18.062h36.124V277.49H640.824z"/>
<polygon fill="#010101" points="325,676.464 37,765 37,941 918.021,941 918.021,765 701,676.464 "/>
<rect fill="none" width="1001.574" height="1000"/>
</svg>
