<?xml version="1.0" encoding="utf-8"?>
<!-- Generator: Adobe Illustrator 15.0.0, SVG Export Plug-In  -->
<!DOCTYPE svg PUBLIC "-//W3C//DTD SVG 1.1//EN" "http://www.w3.org/Graphics/SVG/1.1/DTD/svg11.dtd" [
	<!ENTITY ns_flows "http://ns.adobe.com/Flows/1.0/">
]>
<svg version="1.1"
	 xmlns="http://www.w3.org/2000/svg" xmlns:xlink="http://www.w3.org/1999/xlink" xmlns:a="http://ns.adobe.com/AdobeSVGViewerExtensions/3.0/"
	 x="0px" y="0px" width="1000px" height="1000px" viewBox="-155.843 -18.576 1000 1000"
	 overflow="visible" enable-background="new -155.843 -18.576 1000 1000" xml:space="preserve">
<defs>
</defs>
<g>
	<text transform="matrix(1 0 0 1 472.3701 967.5239)" fill="#010101" font-family="'HelveticaNeue-Light'" font-size="48">© Alex C.</text>
</g>
<polygon fill="#010101" points="281.462,417.781 345.398,535.202 316.559,669.059 352.375,777.624 388.224,668.527 359.405,535.274 
	423.383,417.781 "/>
<path fill="#010101" d="M484.982,367.279l-96.706,344.938l-35.848,127.851l-35.807-127.704l-96.737-345.084
	C96.571,448.674,0,635.579,0,792.841c0,176.526,128.111,127.401,337.054,127.401l8.845-15.738l6.52-11.598l6.518,11.598
	l8.844,15.738c225.109,0,337.158,58.053,337.158-127.401C704.948,635.579,608.337,448.674,484.982,367.279z M604.654,595.09H469.065
	v-20.86h135.589V595.09z"/>
<path fill="#010101" d="M352.418,385.907c106.571,0,192.953-86.391,192.953-192.954C545.372,86.391,458.99,0,352.418,0
	C245.854,0,159.463,86.391,159.463,192.954C159.463,299.517,245.865,385.907,352.418,385.907z M223.19,290.348
	c19.118,2.389,37.433-3.838,52.003-16.104c9.992-8.396,10.774-23.092,19.035-32.906c12.025-14.227,42.45-22.623,58.032-16.907
	c0.073,0.021,0.105,0.042,0.178,0.073c0.062-0.031,0.104-0.052,0.167-0.073c15.593-5.716,46.006,2.68,58.021,16.907
	c8.271,9.814,9.054,24.51,19.034,32.906c14.56,12.266,32.876,18.492,51.995,16.104c9.782-1.251-2.774,5.507-6.499,5.956
	c-18.232,2.304-51.045-0.918-65.573-13.153c-20.224-16.97-13.517-58.845-51.848-44.765c-1.032,0.376-2.169,1.084-3.306,1.251
	c-0.345,0.031-0.658,0.834-1.021,0.834c-0.346,0-0.647,0-0.98,0c-0.334,0-0.646,0-0.992,0c-0.364,0-0.678-0.803-1.011-0.845
	c-1.137-0.167-2.274-0.928-3.307-1.304c-38.33-14.08-31.634,27.827-51.848,44.797c-14.539,12.234-47.352,15.467-65.583,13.162
	C225.965,295.845,213.407,289.097,223.19,290.348z"/>
</svg>
