<?xml version="1.0" encoding="utf-8"?>
<!-- Generator: Adobe Illustrator 16.0.4, SVG Export Plug-In . SVG Version: 6.00 Build 0)  -->
<!DOCTYPE svg PUBLIC "-//W3C//DTD SVG 1.1//EN" "http://www.w3.org/Graphics/SVG/1.1/DTD/svg11.dtd">
<svg version="1.1" xmlns="http://www.w3.org/2000/svg" xmlns:xlink="http://www.w3.org/1999/xlink" x="0px" y="0px" width="1440px"
	 height="900px" viewBox="0 0 1440 900" enable-background="new 0 0 1440 900" xml:space="preserve">
<g id="Layer_1">
</g>
<g id="Layer_01">
</g>
<g id="Layer_4">
</g>
<g id="Layer_2">
	<rect x="-1511.501" y="32.224" fill="none" width="2764.627" height="1370.996"/>
	<text transform="matrix(1 0 0 1 -1511.5 896.6465)" opacity="0.5" fill="#00BCE4" font-family="'Bauhaus93'" font-size="1296">F</text>
	<rect x="-1430.501" y="32.224" fill="none" width="2764.627" height="1370.996"/>
	<text transform="matrix(1 0 0 1 -1430.5 896.6465)" opacity="0.5" fill="#00BCE4" font-family="'Bauhaus93'" font-size="1296">F</text>
	<rect x="-1337.183" y="32.224" fill="none" width="2764.627" height="1370.996"/>
	<text transform="matrix(1 0 0 1 -1337.1816 896.6465)" opacity="0.5" fill="#21368B" font-family="'Bauhaus93'" font-size="1296">F</text>
	<rect x="-740.878" y="193.292" fill="none" width="748.453" height="899.261"/>
	
		<text transform="matrix(1 0 0 1 -740.8789 886.7832)" opacity="0.5" fill="#11175E" font-family="'Bellota-Regular'" font-size="953.9229">n</text>
	<rect x="-353.052" y="256.513" fill="none" width="527.094" height="674.243"/>
	
		<text transform="matrix(1 0 0 1 -353.0547 895.7441)" opacity="0.3" fill="#11175E" font-family="'Bellota-Regular'" font-size="879.2864">t</text>
	<rect x="-261.052" y="256.513" fill="none" width="527.094" height="674.243"/>
	
		<text transform="matrix(1 0 0 1 -261.0547 895.7441)" opacity="0.3" fill="#11175E" font-family="'Bellota-Regular'" font-size="879.2864">t</text>
</g>
<g id="Layer_5">
	<rect x="200.157" fill="none" width="993.686" height="911"/>
	<text transform="matrix(1 0 0 1 200.1582 900.083)" fill="#FF5000" font-family="'Arial-Black'" font-size="1257.12">T</text>
	<g>
		<rect x="232.959" y="0" fill="none" width="993.686" height="911"/>
		<text transform="matrix(1 0 0 1 232.959 900.084)" fill="#F9BE00" font-family="'Arial-Black'" font-size="1257.12">T</text>
	</g>
	<rect x="266.042" y="0" fill="none" width="993.686" height="911"/>
	<text transform="matrix(1 0 0 1 266.043 900.084)" fill="#005581" font-family="'Arial-Black'" font-size="1257.12">T</text>
	<g>
		<rect x="303.66" fill="none" width="993.685" height="911"/>
		<text transform="matrix(1 0 0 1 303.6602 900.083)" fill="#5EC9E2" font-family="'Arial-Black'" font-size="1257.12">T</text>
	</g>
</g>
</svg>
