<?xml version="1.0" encoding="utf-8"?>
<!-- Generator: Adobe Illustrator 15.0.0, SVG Export Plug-In  -->
<!DOCTYPE svg PUBLIC "-//W3C//DTD SVG 1.1//EN" "http://www.w3.org/Graphics/SVG/1.1/DTD/svg11.dtd" [
	<!ENTITY ns_flows "http://ns.adobe.com/Flows/1.0/">
]>
<svg version="1.1"
	 xmlns="http://www.w3.org/2000/svg" xmlns:xlink="http://www.w3.org/1999/xlink" xmlns:a="http://ns.adobe.com/AdobeSVGViewerExtensions/3.0/"
	 x="0px" y="0px" width="1000px" height="1000px" viewBox="0 8 1000 1000"
	 overflow="visible" enable-background="new 0 8 1000 1000" xml:space="preserve">
<defs>
</defs>
<g>
	<text transform="matrix(1 0 0 1 569.2129 991)" fill="#010101" font-family="'HelveticaNeue-Light'" font-size="48">©Thomas Helbig</text>
</g>
<path fill="#010101" d="M434,650.44c13.816-15.152,23.203-31.315,26.986-49.542c12.694,2.752,25.965,4.207,39.802,4.207
	c13.877,0,27.046-1.082,39.538-3.145c3.338,19.41,11.794,35.543,24.641,50.088C523.11,677.225,475.612,676.688,434,650.44z
	 M357.715,384.241c16.042,7.394,36.018,11.753,59.626,11.489c26.551,0.76,64.481-18.206,64.481-72.066v-22h37.93v22
	c0,53.86,37.931,72.826,64.481,72.066c26.572,0.295,48.541-5.27,65.474-14.412C630.56,465.037,583.87,521.66,500.788,521.66
	C436.255,521.66,383.153,463.328,357.715,384.241z M403.666,145.452c93.571,98.031,164.486,95.534,252.412,88.827
	c2.47,12.887,3.824,26.703,3.996,41.41c-16.285-7.97-38.375-11.955-64.461-11.955H405.962c-26.076,0-48.167,3.985-64.451,11.955
	C342.441,226.025,364.754,176.758,403.666,145.452z M880.09,749.241L667.681,635.45c-37.88-18.935-49.157-40.833-52.293-61.993
	c85.874-55.268,120.567-174.904,120.567-294.551c0-22.818-2.356-44.485-6.867-64.785c33.509-15.303,56.156-39.974,64.146-76.7
	c-41.794,30.628-76.042,19.583-99.104-5.786c-40.702-59.908-108.693-95.482-193.343-95.482
	c-151.721,0-235.167,121.377-235.167,242.754c0,107.984,42.27,227.491,121.336,287.42c-1.699,23.314-10.914,48.045-53.062,69.124
	l-212.41,113.791c-37.93,75.86-37.93,197.237-37.93,197.237h303.442l13.777-220.41c64.957,39.751,135.071,39.751,200.029,0
	l13.775,220.41h303.442C918.021,946.479,918.021,825.102,880.09,749.241z"/>
<rect fill="none" width="1001.574" height="1000"/>
</svg>
