<?xml version="1.0" encoding="utf-8"?>
<!-- Generator: Adobe Illustrator 15.0.0, SVG Export Plug-In  -->
<!DOCTYPE svg PUBLIC "-//W3C//DTD SVG 1.1//EN" "http://www.w3.org/Graphics/SVG/1.1/DTD/svg11.dtd" [
	<!ENTITY ns_flows "http://ns.adobe.com/Flows/1.0/">
]>
<svg version="1.1"
	 xmlns="http://www.w3.org/2000/svg" xmlns:xlink="http://www.w3.org/1999/xlink" xmlns:a="http://ns.adobe.com/AdobeSVGViewerExtensions/3.0/"
	 x="0px" y="0px" width="1000px" height="1000px" viewBox="0 6.864 1000 1000"
	 overflow="visible" enable-background="new 0 6.864 1000 1000" xml:space="preserve">
<defs>
</defs>
<g>
	<text transform="matrix(1 0 0 1 485.1987 998.8638)" fill="#010101" font-family="'HelveticaNeue-Light'" font-size="48">© Yaroslaw Bondarenko</text>
</g>
<path fill="#010101" d="M508.805,390.16l0.966-1.648h1.109c101.311,0,183.438-83.461,183.029-186.26
	C692.63,99.917,608.675,18.891,506.759,19.27c-49.495,0.606-95.854,20.076-130.531,55.122
	c-35.198,35.605-54.222,82.571-53.493,132.482c0.095,50.642,19.954,97.996,55.853,133.023
	C413.548,374.006,459.879,390.567,508.805,390.16z M385.807,245.806c13.094,1.335,16.59,17.613,17.225,21.242
	c-1.469-3.8-16.21-10.678-19.082-2.757c-3.022,8.526,2.35,20.493,22.151,18.986c19.859-1.497,26.52-18.986,50.869-37.983
	c24.397-18.958,50.897,0,50.897,0s26.974-18.958,51.38,0c24.398,18.997,31.238,36.486,51.041,37.983
	c19.857,1.507,25.268-10.46,22.256-18.986c-2.861-7.921-17.51-1.043-18.988,2.757c0.598-3.629,4.178-19.916,17.244-21.242
	c14.695-1.459,18.133,14.875,18.133,22.833c0,8.054-2.301,42.134-61.754,42.134s-79.312-36.933-79.312-36.933
	s-19.385,36.933-78.838,36.933c-59.443,0-61.338-34.089-61.338-42.134C367.701,260.681,371.055,244.338,385.807,245.806z"/>
<path fill="#010101" d="M973.673,965.7l-65.6-330.509c-37.918-180.793-37.918-180.793-275.322-180.793l-79.938,220.975
	L526.589,508.62l7.021-6.157c28.111-24.644,31.123-36.478,31.359-39.376c0.133-0.493,0-0.721-0.027-0.796
	c-0.465-2.521-2.455-5.183-5.334-7.722c-3.477-3.079-8.328-6.026-14.014-8.47c-10.506-4.652-23.695-7.827-35.415-7.703
	c-11.408,0.019-24.351,3.344-34.678,8.035c-5.675,2.539-10.535,5.495-14.032,8.593c-3.041,2.69-5.097,5.467-5.666,8.195
	c0,0,0.02,0.133,0,0.379c0.123,2.15,2.123,13.927,32.043,39.206l7.229,6.12l-22.758,161.522l-81.367-216.019
	c-259.404,0-259.404,0-297.671,181.446L26.219,966.459l159.409-0.172l50.083-209.955l-2.141,209.937l534.345-0.426l-2.18-209.994
	l50.584,209.994L973.673,965.7z M605.521,720.121l90.814-58.591l27.324,58.591H605.521z"/>
<rect y="6.864" fill="none" width="1001.574" height="1000"/>
</svg>
