<?xml version="1.0" encoding="utf-8"?>
<!-- Generator: Adobe Illustrator 16.0.4, SVG Export Plug-In . SVG Version: 6.00 Build 0)  -->
<!DOCTYPE svg PUBLIC "-//W3C//DTD SVG 1.1//EN" "http://www.w3.org/Graphics/SVG/1.1/DTD/svg11.dtd">
<svg version="1.1" xmlns="http://www.w3.org/2000/svg" xmlns:xlink="http://www.w3.org/1999/xlink" x="0px" y="0px" width="40px"
	 height="40px" viewBox="0 0 40 40" enable-background="new 0 0 40 40" xml:space="preserve">
<g id="Layer_5">
</g>
<g id="Layer_3">
</g>
<g id="Layer_1">
	<g>
		<rect y="-0.007" fill="none" stroke="#F2E3E3" stroke-miterlimit="10" width="40" height="40.007"/>
	</g>
	<circle fill="#EF4136" cx="31.902" cy="8.212" r="2.544"/>
	<polyline fill="#F2E3E3" points="-0.059,40 5.564,24.942 9.418,29.699 16.107,18.796 22.52,33.244 28.096,25.701 33.82,35.598 
		37.086,31.141 40.08,40 	"/>
	<g>
		<path fill="none" stroke="#EF4136" stroke-width="0.1" stroke-miterlimit="10" d="M28.476,13.741c0,0,8.99-1.27,6.369-11.05"/>
		<path fill="none" stroke="#EF4136" stroke-width="0.1" stroke-miterlimit="10" d="M30.025,14.438c0,0,8.354-3.552,3.289-12.323"/>
		<path fill="none" stroke="#EF4136" stroke-width="0.1" stroke-miterlimit="10" d="M31.701,14.711c0,0,7.148-5.594-0.012-12.754"/>
		<path fill="none" stroke="#EF4136" stroke-width="0.1" stroke-miterlimit="10" d="M33.389,14.542c0,0,5.458-7.254-3.312-12.316"/>
		<path fill="none" stroke="#EF4136" stroke-width="0.1" stroke-miterlimit="10" d="M34.976,13.94c0,0,3.394-8.417-6.388-11.039"/>
		<path fill="none" stroke="#EF4136" stroke-width="0.1" stroke-miterlimit="10" d="M36.354,12.949c0,0,1.099-9.009-9.028-9.009"/>
		<path fill="none" stroke="#EF4136" stroke-width="0.1" stroke-miterlimit="10" d="M37.427,11.635c0,0-1.27-8.987-11.052-6.366"/>
		<path fill="none" stroke="#EF4136" stroke-width="0.1" stroke-miterlimit="10" d="M38.125,10.088c0,0-3.553-8.353-12.322-3.29"/>
		<path fill="none" stroke="#EF4136" stroke-width="0.1" stroke-miterlimit="10" d="M38.398,8.414c0,0-5.594-7.148-12.754,0.012"/>
		<path fill="none" stroke="#EF4136" stroke-width="0.1" stroke-miterlimit="10" d="M38.228,6.724c0,0-7.254-5.456-12.316,3.314"/>
		<path fill="none" stroke="#EF4136" stroke-width="0.1" stroke-miterlimit="10" d="M37.626,5.137c0,0-8.418-3.394-11.039,6.388"/>
		<path fill="none" stroke="#EF4136" stroke-width="0.1" stroke-miterlimit="10" d="M36.634,3.76c0,0-9.008-1.1-9.008,9.027"/>
		<path fill="none" stroke="#EF4136" stroke-width="0.1" stroke-miterlimit="10" d="M35.32,2.687c0,0-8.986,1.27-6.363,11.051"/>
		<path fill="none" stroke="#EF4136" stroke-width="0.1" stroke-miterlimit="10" d="M33.773,1.989c0,0-8.352,3.553-3.288,12.322"/>
		<path fill="none" stroke="#EF4136" stroke-width="0.1" stroke-miterlimit="10" d="M32.097,1.717c0,0-7.146,5.593,0.014,12.752"/>
		<path fill="none" stroke="#EF4136" stroke-width="0.1" stroke-miterlimit="10" d="M30.41,1.887c0,0-5.455,7.253,3.313,12.315"/>
		<path fill="none" stroke="#EF4136" stroke-width="0.1" stroke-miterlimit="10" d="M28.823,2.488c0,0-3.392,8.418,6.388,11.038"/>
		<path fill="none" stroke="#EF4136" stroke-width="0.1" stroke-miterlimit="10" d="M27.447,3.479c0,0-1.098,9.01,9.025,9.009"/>
		<path fill="none" stroke="#EF4136" stroke-width="0.1" stroke-miterlimit="10" d="M26.373,4.793c0,0,1.273,8.986,11.052,6.366"/>
		<path fill="none" stroke="#EF4136" stroke-width="0.1" stroke-miterlimit="10" d="M25.675,6.341c0,0,3.556,8.35,12.322,3.288"/>
		<path fill="none" stroke="#EF4136" stroke-width="0.1" stroke-miterlimit="10" d="M25.404,8.017c0,0,5.594,7.145,12.752-0.015"/>
		<path fill="none" stroke="#EF4136" stroke-width="0.1" stroke-miterlimit="10" d="M25.575,9.704c0,0,7.253,5.453,12.313-3.313"/>
		<path fill="none" stroke="#EF4136" stroke-width="0.1" stroke-miterlimit="10" d="M26.177,11.29c0,0,8.416,3.39,11.035-6.388"/>
		<path fill="none" stroke="#EF4136" stroke-width="0.1" stroke-miterlimit="10" d="M27.167,12.667c0,0,9.008,1.096,9.007-9.027"/>
		<path fill="none" stroke="#EF4136" stroke-width="0.1" stroke-miterlimit="10" d="M28.48,13.741c0,0,8.986-1.274,6.365-11.051"/>
	</g>
</g>
<g id="Layer_2">
</g>
<g id="Layer_4">
</g>
</svg>
