<?xml version="1.0" encoding="utf-8"?>
<!-- Generator: Adobe Illustrator 16.0.4, SVG Export Plug-In . SVG Version: 6.00 Build 0)  -->
<!DOCTYPE svg PUBLIC "-//W3C//DTD SVG 1.1//EN" "http://www.w3.org/Graphics/SVG/1.1/DTD/svg11.dtd">
<svg version="1.1" xmlns="http://www.w3.org/2000/svg" xmlns:xlink="http://www.w3.org/1999/xlink" x="0px" y="0px" width="40px"
	 height="40px" viewBox="0 0 40 40" enable-background="new 0 0 40 40" xml:space="preserve">
<g id="Layer_5">
</g>
<g id="Layer_3">
</g>
<g id="Layer_1">
</g>
<g id="Layer_2">
</g>
<g id="Layer_4">
</g>
<g id="text">
	<g>
		<g id="Layer_1_4_">
			<g>
				<rect x="-0.08" fill="none" stroke="#EF4237" stroke-width="0.2913" stroke-miterlimit="10" width="40" height="40"/>
			</g>
			<circle fill="#EF4237" cx="30.522" cy="9.691" r="3.278"/>
			<polyline fill="#EF4237" points="-0.139,39.977 5.484,24.918 9.338,29.676 16.027,18.772 22.439,33.221 28.016,25.678 
				33.74,35.574 37.006,31.117 40,39.977 			"/>
			<g>
				<path fill="none" stroke="#EF4237" stroke-width="0.1289" stroke-miterlimit="10" d="M26.107,16.816
					c0,0,11.585-1.637,8.207-14.239"/>
				<path fill="none" stroke="#EF4237" stroke-width="0.1289" stroke-miterlimit="10" d="M28.104,17.715
					c0,0,10.764-4.577,4.238-15.88"/>
				<path fill="none" stroke="#EF4237" stroke-width="0.1289" stroke-miterlimit="10" d="M30.264,18.066
					c0,0,9.211-7.208-0.016-16.435"/>
				<path fill="none" stroke="#EF4237" stroke-width="0.1289" stroke-miterlimit="10" d="M32.439,17.847
					c0,0,7.033-9.348-4.268-15.871"/>
				<path fill="none" stroke="#EF4237" stroke-width="0.1289" stroke-miterlimit="10" d="M34.484,17.073
					c0,0,4.373-10.846-8.232-14.225"/>
				<path fill="none" stroke="#EF4237" stroke-width="0.1289" stroke-miterlimit="10" d="M36.261,15.796
					c0,0,1.414-11.609-11.636-11.609"/>
				<path fill="none" stroke="#EF4237" stroke-width="0.1289" stroke-miterlimit="10" d="M37.641,14.102
					c0,0-1.637-11.58-14.24-8.202"/>
				<path fill="none" stroke="#EF4237" stroke-width="0.1289" stroke-miterlimit="10" d="M38.541,12.109
					c0,0-4.578-10.763-15.879-4.238"/>
				<path fill="none" stroke="#EF4237" stroke-width="0.1289" stroke-miterlimit="10" d="M38.893,9.951c0,0-7.207-9.21-16.434,0.016
					"/>
				<path fill="none" stroke="#EF4237" stroke-width="0.1289" stroke-miterlimit="10" d="M38.674,7.775c0,0-9.348-7.032-15.871,4.27
					"/>
				<path fill="none" stroke="#EF4237" stroke-width="0.1289" stroke-miterlimit="10" d="M37.898,5.729
					c0,0-10.846-4.373-14.225,8.232"/>
				<path fill="none" stroke="#EF4237" stroke-width="0.1289" stroke-miterlimit="10" d="M36.619,3.954
					c0,0-11.607-1.417-11.607,11.633"/>
				<path fill="none" stroke="#EF4237" stroke-width="0.1289" stroke-miterlimit="10" d="M34.927,2.57c0,0-11.579,1.637-8.2,14.241"
					/>
				<path fill="none" stroke="#EF4237" stroke-width="0.1289" stroke-miterlimit="10" d="M32.934,1.673
					c0,0-10.762,4.578-4.238,15.877"/>
				<path fill="none" stroke="#EF4237" stroke-width="0.1289" stroke-miterlimit="10" d="M30.772,1.322
					c0,0-9.208,7.208,0.019,16.432"/>
				<path fill="none" stroke="#EF4237" stroke-width="0.1289" stroke-miterlimit="10" d="M28.6,1.541c0,0-7.029,9.348,4.268,15.87"
					/>
				<path fill="none" stroke="#EF4237" stroke-width="0.1289" stroke-miterlimit="10" d="M26.553,2.316
					c0,0-4.369,10.847,8.231,14.224"/>
				<path fill="none" stroke="#EF4237" stroke-width="0.1289" stroke-miterlimit="10" d="M24.781,3.593
					c0,0-1.416,11.61,11.631,11.608"/>
				<path fill="none" stroke="#EF4237" stroke-width="0.1289" stroke-miterlimit="10" d="M23.398,5.286c0,0,1.64,11.58,14.24,8.204"
					/>
				<path fill="none" stroke="#EF4237" stroke-width="0.1289" stroke-miterlimit="10" d="M22.498,7.282
					c0,0,4.581,10.759,15.879,4.235"/>
				<path fill="none" stroke="#EF4237" stroke-width="0.1289" stroke-miterlimit="10" d="M22.148,9.438c0,0,7.21,9.208,16.433-0.019
					"/>
				<path fill="none" stroke="#EF4237" stroke-width="0.1289" stroke-miterlimit="10" d="M22.367,11.614
					c0,0,9.348,7.027,15.869-4.27"/>
				<path fill="none" stroke="#EF4237" stroke-width="0.1289" stroke-miterlimit="10" d="M23.145,13.658
					c0,0,10.845,4.368,14.22-8.231"/>
				<path fill="none" stroke="#EF4237" stroke-width="0.1289" stroke-miterlimit="10" d="M24.422,15.432
					c0,0,11.607,1.413,11.605-11.631"/>
				<path fill="none" stroke="#EF4237" stroke-width="0.1289" stroke-miterlimit="10" d="M26.113,16.816
					c0,0,11.579-1.642,8.201-14.24"/>
			</g>
		</g>
	</g>
</g>
</svg>
