<?xml version="1.0" encoding="utf-8"?>
<!-- Generator: Adobe Illustrator 16.0.4, SVG Export Plug-In . SVG Version: 6.00 Build 0)  -->
<!DOCTYPE svg PUBLIC "-//W3C//DTD SVG 1.1//EN" "http://www.w3.org/Graphics/SVG/1.1/DTD/svg11.dtd">
<svg version="1.1" xmlns="http://www.w3.org/2000/svg" xmlns:xlink="http://www.w3.org/1999/xlink" x="0px" y="0px" width="40px"
	 height="40px" viewBox="0 0 40 40" enable-background="new 0 0 40 40" xml:space="preserve">
<g id="Layer_3">
</g>
<g id="Layer_1">
	<rect y="-0.411" fill="#EF4136" width="14.185" height="40.441"/>
</g>
<g id="Layer_2">
	<path fill="none" stroke="#FFFFFF" stroke-width="0.5" stroke-miterlimit="10" d="M0.915,6.708C0.625,6.354,1.467,4.905,2.02,5.08
		c0.397,0.125,0.272,1.062,0.527,1.336C3.01,6.913,3.593,6.261,3.773,5.879C3.884,5.643,3.978,5.08,4.229,4.983
		c0.443-0.17,1.032,0.623,1.215,0.909c0.196,0.306,0.296,0.881,0.58,1.108c0.689,0.55,1.045-0.389,1.239-0.882
		c0.17-0.432,0.253-1.177,0.787-1.33c0.788-0.227,1.347,0.593,1.654,1.169c0.191,0.358,0.268,1.23,0.705,1.346
		c0.603,0.16,1.059-1,1.196-1.4c0.076-0.22,0.116-0.731,0.319-0.854C12.18,4.896,12.69,5.1,12.872,5.272
		c0.339,0.323,0.65,1.193,0.716,1.663"/>
	<path fill="none" stroke="#FFFFFF" stroke-width="0.5" stroke-miterlimit="10" d="M0.558,11.289c0.223-0.645,0.523-1.605,1.16-1.97
		C2.4,8.929,2.825,9.831,3.031,10.323c0.092,0.219,0.113,0.701,0.306,0.864c0.191,0.161,0.812,0.115,1.034,0.062
		c0.381-0.091,0.461-0.402,0.626-0.755c0.129-0.275,0.28-0.962,0.558-1.103c0.628-0.319,0.966,0.816,1.106,1.205
		c0.082,0.23,0.122,0.491,0.288,0.652c0.281,0.271,1.055,0.417,1.316,0.158c0.377-0.371,0.417-1.173,0.705-1.591
		c0.16-0.231,0.305-0.327,0.658-0.165c0.405,0.188,0.685,0.778,0.843,1.176c0.094,0.233,0.058,0.705,0.251,0.861
		c0.929-0.507,1.162-1.354,1.598-2.22"/>
	<circle fill="#EF4136" cx="33.621" cy="33.212" r="4.122"/>
</g>
<g id="Layer_4">
</g>
</svg>
