<?xml version="1.0" encoding="utf-8"?>
<!-- Generator: Adobe Illustrator 16.0.4, SVG Export Plug-In . SVG Version: 6.00 Build 0)  -->
<!DOCTYPE svg PUBLIC "-//W3C//DTD SVG 1.1//EN" "http://www.w3.org/Graphics/SVG/1.1/DTD/svg11.dtd">
<svg version="1.1" xmlns="http://www.w3.org/2000/svg" xmlns:xlink="http://www.w3.org/1999/xlink" x="0px" y="0px" width="40px"
	 height="40px" viewBox="0 0 40 40" enable-background="new 0 0 40 40" xml:space="preserve">
<g id="Layer_3">
</g>
<g id="Layer_1">
	<rect x="25.815" y="-0.411" fill="#EF4136" width="14.185" height="40.441"/>
</g>
<g id="Layer_2">
	<path fill="none" stroke="#FFFFFF" stroke-width="0.5" stroke-miterlimit="10" d="M26.73,6.708
		c-0.291-0.354,0.552-1.803,1.104-1.628c0.397,0.125,0.272,1.062,0.527,1.336c0.463,0.497,1.046-0.155,1.227-0.537
		c0.111-0.236,0.204-0.799,0.456-0.896c0.443-0.17,1.032,0.623,1.215,0.909c0.196,0.306,0.296,0.881,0.58,1.108
		c0.689,0.55,1.045-0.389,1.239-0.882c0.17-0.432,0.253-1.177,0.787-1.33c0.788-0.227,1.347,0.593,1.654,1.169
		c0.191,0.358,0.268,1.23,0.705,1.346c0.603,0.16,1.059-1,1.196-1.4c0.076-0.22,0.116-0.731,0.319-0.854
		c0.254-0.153,0.765,0.051,0.946,0.224c0.339,0.323,0.65,1.193,0.716,1.663"/>
	<path fill="none" stroke="#FFFFFF" stroke-width="0.5" stroke-miterlimit="10" d="M26.373,11.289
		c0.223-0.645,0.523-1.605,1.16-1.97c0.683-0.391,1.107,0.512,1.313,1.004c0.092,0.219,0.113,0.701,0.306,0.864
		c0.191,0.161,0.812,0.115,1.034,0.062c0.381-0.091,0.461-0.402,0.626-0.755c0.129-0.275,0.28-0.962,0.558-1.103
		c0.628-0.319,0.966,0.816,1.106,1.205c0.082,0.23,0.122,0.491,0.288,0.652c0.281,0.271,1.055,0.417,1.316,0.158
		c0.377-0.371,0.417-1.173,0.705-1.591c0.16-0.231,0.305-0.327,0.658-0.165c0.405,0.188,0.685,0.778,0.843,1.176
		c0.094,0.233,0.058,0.705,0.251,0.861c0.929-0.507,1.162-1.354,1.598-2.22"/>
	<circle fill="#FFFFFF" stroke="#EF4136" stroke-miterlimit="10" cx="33.621" cy="33.212" r="4.122"/>
</g>
<g id="Layer_4">
</g>
</svg>
