<?xml version="1.0" encoding="utf-8"?>
<!-- Generator: Adobe Illustrator 16.0.4, SVG Export Plug-In . SVG Version: 6.00 Build 0)  -->
<!DOCTYPE svg PUBLIC "-//W3C//DTD SVG 1.1//EN" "http://www.w3.org/Graphics/SVG/1.1/DTD/svg11.dtd">
<svg version="1.1" xmlns="http://www.w3.org/2000/svg" xmlns:xlink="http://www.w3.org/1999/xlink" x="0px" y="0px" width="424px"
	 height="424px" viewBox="0 0 424 424" enable-background="new 0 0 424 424" xml:space="preserve">
<g id="Layer_1">
</g>
<g id="Isolation_Mode">
	<path fill="#EF4237" d="M213.455,145.778c40.237,0,72.881,32.611,72.881,72.883c0,40.217-32.644,72.823-72.881,72.823
		c-40.217,0-72.817-32.606-72.817-72.823C140.638,178.389,173.238,145.778,213.455,145.778z"/>
	<g>
		<path fill="none" stroke="#EF4237" stroke-width="2.8638" stroke-miterlimit="10" d="M115.331,376.989
			c0,0,257.471-36.387,182.399-316.451"/>
		<path fill="none" stroke="#EF4237" stroke-width="2.8638" stroke-miterlimit="10" d="M159.693,396.957
			c0,0,239.218-101.715,94.195-352.925"/>
		<path fill="none" stroke="#EF4237" stroke-width="2.8638" stroke-miterlimit="10" d="M207.703,404.758
			c0,0,204.71-160.195-0.348-365.251"/>
		<path fill="none" stroke="#EF4237" stroke-width="2.8638" stroke-miterlimit="10" d="M256.059,399.897
			c0,0,156.311-207.749-94.845-352.73"/>
		<path fill="none" stroke="#EF4237" stroke-width="2.8638" stroke-miterlimit="10" d="M301.506,382.695
			c0,0,97.191-241.051-182.96-316.145"/>
		<path fill="none" stroke="#EF4237" stroke-width="2.8638" stroke-miterlimit="10" d="M340.984,354.309
			c0,0,31.428-258.004-258.598-258.004"/>
		<path fill="none" stroke="#EF4237" stroke-width="2.8638" stroke-miterlimit="10" d="M371.653,316.664
			c0,0-36.376-257.353-316.483-182.29"/>
		<path fill="none" stroke="#EF4237" stroke-width="2.8638" stroke-miterlimit="10" d="M391.663,272.365
			c0,0-101.746-239.208-352.901-94.195"/>
		<path fill="none" stroke="#EF4237" stroke-width="2.8638" stroke-miterlimit="10" d="M399.477,224.402
			c0,0-160.172-204.7-365.229,0.355"/>
		<path fill="none" stroke="#EF4237" stroke-width="2.8638" stroke-miterlimit="10" d="M394.616,176.045
			c0,0-207.747-156.289-352.729,94.888"/>
		<path fill="none" stroke="#EF4237" stroke-width="2.8638" stroke-miterlimit="10" d="M377.383,130.564
			c0,0-241.04-97.179-316.135,182.962"/>
		<path fill="none" stroke="#EF4237" stroke-width="2.8638" stroke-miterlimit="10" d="M348.95,91.129
			c0,0-257.968-31.48-257.968,258.533"/>
		<path fill="none" stroke="#EF4237" stroke-width="2.8638" stroke-miterlimit="10" d="M311.337,60.374
			c0,0-257.339,36.377-182.244,316.494"/>
		<path fill="none" stroke="#EF4237" stroke-width="2.8638" stroke-miterlimit="10" d="M267.041,40.43
			c0,0-239.175,101.746-94.193,352.858"/>
		<path fill="none" stroke="#EF4237" stroke-width="2.8638" stroke-miterlimit="10" d="M219.011,32.626
			c0,0-204.644,160.194,0.413,365.196"/>
		<path fill="none" stroke="#EF4237" stroke-width="2.8638" stroke-miterlimit="10" d="M170.719,37.488
			c0,0-156.222,207.747,94.848,352.697"/>
		<path fill="none" stroke="#EF4237" stroke-width="2.8638" stroke-miterlimit="10" d="M125.23,54.72
			c0,0-97.104,241.074,182.939,316.114"/>
		<path fill="none" stroke="#EF4237" stroke-width="2.8638" stroke-miterlimit="10" d="M85.859,83.109
			c0,0-31.472,258.025,258.49,257.991"/>
		<path fill="none" stroke="#EF4237" stroke-width="2.8638" stroke-miterlimit="10" d="M55.127,120.722
			c0,0,36.439,257.352,316.482,182.322"/>
		<path fill="none" stroke="#EF4237" stroke-width="2.8638" stroke-miterlimit="10" d="M35.116,165.084
			c0,0,101.81,239.109,352.901,94.129"/>
		<path fill="none" stroke="#EF4237" stroke-width="2.8638" stroke-miterlimit="10" d="M27.346,213.016
			c0,0,160.239,204.632,365.209-0.424"/>
		<path fill="none" stroke="#EF4237" stroke-width="2.8638" stroke-miterlimit="10" d="M32.207,261.372
			c0,0,207.746,156.169,352.686-94.897"/>
		<path fill="none" stroke="#EF4237" stroke-width="2.8638" stroke-miterlimit="10" d="M49.484,306.787
			c0,0,241.019,97.082,316.026-182.928"/>
		<path fill="none" stroke="#EF4237" stroke-width="2.8638" stroke-miterlimit="10" d="M77.873,346.225
			c0,0,257.968,31.402,257.927-258.503"/>
		<path fill="none" stroke="#EF4237" stroke-width="2.8638" stroke-miterlimit="10" d="M115.463,376.989
			c0,0,257.339-36.496,182.268-316.483"/>
	</g>
</g>
</svg>
