<?xml version="1.0" encoding="utf-8"?>
<!-- Generator: Adobe Illustrator 16.0.4, SVG Export Plug-In . SVG Version: 6.00 Build 0)  -->
<!DOCTYPE svg PUBLIC "-//W3C//DTD SVG 1.1//EN" "http://www.w3.org/Graphics/SVG/1.1/DTD/svg11.dtd">
<svg version="1.1" xmlns="http://www.w3.org/2000/svg" xmlns:xlink="http://www.w3.org/1999/xlink" x="0px" y="0px" width="1440px"
	 height="900px" viewBox="0 0 1440 900" enable-background="new 0 0 1440 900" xml:space="preserve">
<g id="Layer_1">
</g>
<g id="Layer_01">
	<path fill="#FFDA00" d="M903,648c0,8.284-6.716,15-15,15H596c-8.284,0-15-6.716-15-15v-54c0-8.284,6.716-15,15-15h292
		c8.284,0,15,6.716,15,15V648z"/>
	<path fill="#FFCE00" d="M903,281.402c0,8.284-6.716,15-15,15H486c-8.284,0-15-6.716-15-15V194c0-8.284,6.716-15,15-15h402
		c8.284,0,15,6.716,15,15V281.402z"/>
	<path fill="#009D4E" d="M1127,648c0,8.284-6.716,15-15,15H956c-8.284,0-15-6.716-15-15V194c0-8.284,6.716-15,15-15h156
		c8.284,0,15,6.716,15,15V648z"/>
	<path fill="#FF4338" d="M1127,864.126c0,8.284-6.716,15-15,15H486c-8.284,0-15-6.716-15-15V702c0-8.284,6.716-15,15-15h626
		c8.284,0,15,6.716,15,15V864.126z"/>
	<path fill="#FF5000" d="M15,130.463c0,8.284,6.716,15,15,15h1082c8.284,0,15-6.716,15-15V26c0-8.284-6.716-15-15-15H30
		c-8.284,0-15,6.716-15,15V130.463z"/>
	<path fill="#007549" d="M571,648c0,8.284-6.716,15-15,15h-70c-8.284,0-15-6.716-15-15V330.185c0-8.284,6.716-15,15-15h70
		c8.284,0,15,6.716,15,15V648z"/>
	<path fill="#F7323F" d="M821,497c0,8.284-6.716,15-15,15h-98.5c-8.284,0-15-6.716-15-15v-94c0-8.284,6.716-15,15-15H806
		c8.284,0,15,6.716,15,15V497z"/>
	<path fill="#430098" d="M821,561c0,8.284-6.716,15-15,15h-98.5c-8.284,0-15-6.716-15-15v-31c0-8.284,6.716-15,15-15H806
		c8.284,0,15,6.716,15,15V561z"/>
	<path fill="#77226C" d="M689.5,561c0,8.284-6.716,15-15,15H596c-8.284,0-15-6.716-15-15V403c0-8.284,6.716-15,15-15h78.5
		c8.284,0,15,6.716,15,15V561z"/>
	<path fill="#2F7DE1" d="M902,561c0,8.284-6.716,15-15,15h-45c-8.284,0-15-6.716-15-15V327.543c0-8.284,6.716-15,15-15h45
		c8.284,0,15,6.716,15,15V561z"/>
	<path fill="#6EDBD5" d="M821,370c0,8.284-6.716,15-15,15H594c-8.284,0-15-6.716-15-15v-39.815c0-8.284,6.716-15,15-15h212
		c8.284,0,15,6.716,15,15V370z"/>
	<path fill="#0075C9" d="M397.37,865.222c0,8.284-6.716,15-15,15H30c-8.284,0-15-6.716-15-15V194c0-8.284,6.716-15,15-15h352.37
		c8.284,0,15,6.716,15,15V865.222z"/>
	<path fill="#00A1DF" d="M1414.473,864.126c0,8.284-6.716,15-15,15H1210.45c-8.284,0-15-6.716-15-15V26c0-8.284,6.716-15,15-15
		h189.022c8.284,0,15,6.716,15,15V864.126z"/>
</g>
</svg>
