<?xml version="1.0" encoding="utf-8"?>
<!-- Generator: Adobe Illustrator 16.0.4, SVG Export Plug-In . SVG Version: 6.00 Build 0)  -->
<!DOCTYPE svg PUBLIC "-//W3C//DTD SVG 1.1//EN" "http://www.w3.org/Graphics/SVG/1.1/DTD/svg11.dtd">
<svg version="1.1" xmlns="http://www.w3.org/2000/svg" xmlns:xlink="http://www.w3.org/1999/xlink" x="0px" y="0px" width="1000px"
	 height="1000px" viewBox="0 0 1000 1000" enable-background="new 0 0 1000 1000" xml:space="preserve">
<g id="dark_background" display="none">
	
		<rect x="-5.16" y="-3" display="inline" fill="#0A1C2A" stroke="#FFFFFF" stroke-width="3.6881" stroke-miterlimit="10" width="1008.101" height="1003"/>
</g>
<g id="Layer_2">
</g>
<g id="Layer_1">
	<path fill="none" stroke="#F9F9FA" stroke-width="9" stroke-miterlimit="10" d="M305.042,541.903
		c64.689,9.689,127.979-47.729,110.331-119.506"/>
	<path fill="none" stroke="#F9F9FA" stroke-width="9" stroke-miterlimit="10" d="M146.088,577.325"/>
	<path fill="none" stroke="#F9F9FA" stroke-width="9" stroke-miterlimit="10" d="M292.867,552.86"/>
	<path fill="none" stroke="#F9F9FA" stroke-width="9" stroke-miterlimit="10" d="M614.964,516.163
		c64.06,10.998,172.784,15.486,222.748,43.33c49.84,27.795,43.546,67.762,44.83,112.129c2.708,93.891,17.823,186.465,17.823,280.791
		"/>
	<path fill="none" stroke="#F9F9FA" stroke-width="9" stroke-miterlimit="10" d="M472.26,614.021
		c19.793,62.338-10.849,128.402-20.473,187.85c-7.917,48.895-17.392,99.041-28.457,150.559"/>
	<path fill="none" stroke="#F9F9FA" stroke-width="9" stroke-miterlimit="10" d="M521.188,614.021
		c20.423,69.691,4.804,151.145,12.232,223.428c2.112,20.506,10.013,119.652,16.307,123.131"/>
	<path fill="none" stroke="#F9F9FA" stroke-width="9" stroke-miterlimit="10" d="M676.125,724.103
		c31.156,24.084,88.947,11.074,126.157,12.854c2.162,8.654,2.17,26.85-0.19,35.455c-26.767,1.268-54.13,0.621-81.12,0.621"/>
	<path fill="none" stroke="#F9F9FA" stroke-width="9" stroke-miterlimit="10" d="M415.181,491.698
		c11.802,30.031,42.834,49.816,58.304,80.715c14.427,28.812,15.098,48.955,15.081,82.371"/>
	<path fill="none" stroke="#F9F9FA" stroke-width="9" stroke-miterlimit="10" d="M598.657,499.856
		c-21.5,49.965-58.561,77.791-69.319,130.473"/>
	<path fill="none" stroke="#F9F9FA" stroke-width="9" stroke-miterlimit="10" d="M476.334,609.946
		c3.702,61.633,63.223,27.164,48.929,12.225"/>
	<path fill="none" stroke="#F9F9FA" stroke-width="9" stroke-miterlimit="10" d="M455.953,744.493
		c33.45,30.154,49.269,80.541,81.543,110.082"/>
	<path fill="none" stroke="#F9F9FA" stroke-width="9" stroke-miterlimit="10" d="M447.795,821.962
		c23.802,20.613,38.543,57.053,60.35,81.865c11.222,12.762,26.477,24.121,37.508,36.361"/>
	<path fill="none" stroke="#F9F9FA" stroke-width="9" stroke-miterlimit="10" d="M472.26,658.868
		c21.367,25.838,40.481,50.113,53.003,77.467"/>
	<path fill="none" stroke="#F9F9FA" stroke-width="9" stroke-miterlimit="10" d="M296.934,544.702
		c39.041,32.283,81.038,78.312,112.947,119.682c-18.071,10.525-33.856,26.459-52.888,35.057
		c73.062,23.637,40.564,211.344,21.483,269.287"/>
	<path fill="none" stroke="#F9F9FA" stroke-width="9" stroke-miterlimit="10" d="M680.2,536.554
		c-8.232,27.76-34.502,56.754-53.103,82.66c-13.119,18.27-38.75,34.949-45.467,56.043c14.286,6.643,32.738,7.859,49.219,12.979
		c-13.557,40.125-42.726,64.365-48.291,112.459c-4.82,41.541-15.843,118.496-0.215,155.809"/>
	<path fill="none" stroke="#F9F9FA" stroke-width="9" stroke-miterlimit="10" d="M362.062,169.296
		c-25.864,64.557-8.613,140.318,21.4,195.492c28.854,53.062,59.745,134.68,141.686,130.688
		c23.901-1.176,73.394-12.24,101.933-65.244c15.62-29.012,16.779-49.029,32.614-77.461c22.237-39.926,24.266-181.562-12.042-219.344
		c-15.942-16.596-79.895-14.219-99.133-6.012c-20.489,8.754-31.827,37.533-55.869,38.113c-27.164,0.645-45.715-36.291-78.719-32.896
		c-33.699,3.453-37.028,38.379-64.101,40.746"/>
	<path fill="none" stroke="#F9F9FA" stroke-width="9" stroke-miterlimit="10" d="M341.788,259.302
		c-19.901,25.965,5.615,111.391,44.854,110.082"/>
	<path fill="none" stroke="#F9F9FA" stroke-width="9" stroke-miterlimit="10" d="M329.556,263.378
		c12.911-28.723,0.058-71.092,9.731-104.096c9.027-30.799,23.355-59.662,35.115-87.537c69.319-53.004,154.622-44.457,228.379-25.773
		c57.939,14.684,71.339,46.062,75.87,96.002c3.056,33.641,15.744,75.025,9.599,105.098"/>
	<path fill="none" stroke="#F9F9FA" stroke-width="9" stroke-miterlimit="10" d="M667.959,234.839
		c38.453-7.471,32.929,46.998,28.639,73.5c-6.576,40.648-30.933,39.596-49.02,65.129"/>
	<path fill="none" stroke="#F9F9FA" stroke-width="9" stroke-miterlimit="10" d="M472.26,614.021
		c0.77-33.326,45.053-52.572,57.178-12.24c11.23,37.385-24.995,45.98-52.391,44.143c-4.224-8.232-6.708-18.104-4.787-27.826"/>
	<path fill="none" stroke="#F9F9FA" stroke-width="9" stroke-miterlimit="10" d="M513.031,503.938
		c4.928,20.299-12.895,49.592-20.481,72.135c0.033-26.426,18.361-45.393,20.481-70.369c0,25.631-6.667,56.787,8.157,75.695"/>
	<path fill="none" stroke="#F9F9FA" stroke-width="9" stroke-miterlimit="10" d="M594.574,475.392
		c0.572,19.629,7.926,38.967,28.54,44.846"/>
	<path fill="none" stroke="#F9F9FA" stroke-width="9" stroke-miterlimit="10" d="M394.808,532.478
		c-65.095,11.197-175.558,15.754-226.326,44.109c-50.635,28.291-44.241,68.971-45.533,114.141
		c-2.766,95.572-18.121,189.811-18.121,285.834"/>
</g>
<g id="Layer_4">
</g>
<g id="Layer_3">
</g>
<g id="Layer_5">
</g>
</svg>
