<?xml version="1.0" encoding="utf-8"?>
<!-- Generator: Adobe Illustrator 16.0.4, SVG Export Plug-In . SVG Version: 6.00 Build 0)  -->
<!DOCTYPE svg PUBLIC "-//W3C//DTD SVG 1.1//EN" "http://www.w3.org/Graphics/SVG/1.1/DTD/svg11.dtd">
<svg version="1.1" xmlns="http://www.w3.org/2000/svg" xmlns:xlink="http://www.w3.org/1999/xlink" x="0px" y="0px" width="1000px"
	 height="1000px" viewBox="0 0 1000 1000" enable-background="new 0 0 1000 1000" xml:space="preserve">
<g id="dark_background" display="none">
	
		<rect x="-5.16" y="-3" display="inline" fill="#0A1C2A" stroke="#FFFFFF" stroke-width="3.6881" stroke-miterlimit="10" width="1008.101" height="1003"/>
</g>
<g id="Layer_2">
</g>
<g id="Layer_1">
	<path fill="none" stroke="#FFFFFF" stroke-width="9" stroke-miterlimit="10" d="M348.627,161.315
		c-21.848,58.266-17.781,154.594,13.672,211.227c22.219,40.014,47.168,78.033,91.965,91.029c28.262,8.207,43.27,10.262,65.527-0.012
		c47.34-21.846,47.492-11.971,65.898-58.076c15.945-39.953,31.77-65.039,36.035-110.441c2.613-27.771,3.566-54.484,3.664-82.744"/>
	<path fill="none" stroke="#FFFFFF" stroke-width="9" stroke-miterlimit="10" d="M330.424,547.313
		c-39.898,34.447-101.238,3.391-141.195,37.34c-34.188,29.043-35.668,81.016-37.234,123.699
		c-2.848,77.637,7.277,156.676,7.277,224.963"/>
	<path fill="none" stroke="#FFFFFF" stroke-width="9" stroke-miterlimit="10" d="M643.592,547.313
		c44.289,22.094,111.082,9.73,149.48,38.238c28.656,21.275,21.672,62.912,21.672,96.412c0,57.57,5.613,117.883,0.082,175.111
		c-2.84,29.439-11.383,60.121-11.008,90.805"/>
	<path fill="none" stroke="#FFFFFF" stroke-width="9" stroke-miterlimit="10" d="M344.99,172.241
		c10.164-13.166,32.641-52.41,46.422-61.988c29.352-20.4,58.996-19.568,95.582-18.127c77.645,3.059,130.789,43.305,138.395,120.172"
		/>
	<path fill="none" stroke="#FFFFFF" stroke-width="9" stroke-miterlimit="10" d="M326.787,263.276
		c1.633-5.562,5.695-7.141,3.277-13.986c-20.699-1.465-20.609,24.047-29.402,39.668c20.074,20.383,22.16,39.914,23.031,68.447
		c6.176,0.629,15.074,2.066,21.297,0.551"/>
	<path fill="none" stroke="#FFFFFF" stroke-width="9" stroke-miterlimit="10" d="M621.74,259.638
		c17.168-8.082,31.504-5.584,36.578,11.832c5.664,19.43-14.004,17.404-18.625,30.984c-6.762,19.875,10.422,58.16-25.23,55.502"/>
	<path fill="none" stroke="#FFFFFF" stroke-width="9" stroke-miterlimit="10" d="M392.338,427.146
		c7.793,12.73,9.812,28.566,6.73,43.23c-9.27-2.023-22.191,3.166-30.957,1.742c-0.316,34.416-30.82,45.061-37.316,74.375
		c58.191,17.037,147.676,103.281,174.703,156.396c5.777-52-3.535-87.889-25.578-133.008c-7.66-15.689-17.551-31.641-26.434-44.869
		c-11.043-16.459-54.27-57.959-50.227-61.453"/>
	<path fill="none" stroke="#FFFFFF" stroke-width="9" stroke-miterlimit="10" d="M556.205,459.921
		c-0.875,6.508-1.215,11.262,1.902,16.916c18.41,4.338,28.676-3.145,44.992-5.621c5.77,30.02,34.641,51.182,36.586,78.93
		C578.822,584.919,536.01,660.481,505.24,715.53c-0.102-86.146,3.172-148.967,54.605-219.195"/>
	<path fill="none" stroke="#FFFFFF" stroke-width="9" stroke-miterlimit="10" d="M479.729,565.524
		c-5.332-23.4,17.035-25.479,35.07-21.314c-0.062,1.551,0.789,7.771,1.324,9.854c4.793,1.154,9.66,1.33,14.594,0.535"/>
	<path fill="none" stroke="#FFFFFF" stroke-width="9" stroke-miterlimit="10" d="M501.58,707.542
		c20.934,67.301,3.645,166.311,3.645,236.697"/>
	<path fill="none" stroke="#FFFFFF" stroke-width="9" stroke-miterlimit="10" d="M359.561,234.146
		c11.57,30.104-8.418,43.939,30.43,57.723c22.648,8.037,65.168,1.229,89.074-0.01c-1.199-13.156-0.125-27.201,5.207-38.871
		c5.852-1.271,12.758-1.242,18.707-0.17c0.887,14.035,0.301,28.73,1.195,42.766c31.586,2.1,62.617,5.125,94.805,3.557
		c1.074-17.111-0.285-35.492,4.098-50.605c-28.305-8.734-68.574-5.836-99.598-7.107c-18.484-0.758-37.227,0-55.727,0
		c-11.953,0-72.176,0-60.188,0"/>
</g>
<g id="Layer_4">
</g>
<g id="Layer_3">
</g>
<g id="Layer_5">
</g>
</svg>
