<?xml version="1.0" encoding="utf-8"?>
<!-- Generator: Adobe Illustrator 16.0.4, SVG Export Plug-In . SVG Version: 6.00 Build 0)  -->
<!DOCTYPE svg PUBLIC "-//W3C//DTD SVG 1.1//EN" "http://www.w3.org/Graphics/SVG/1.1/DTD/svg11.dtd">
<svg version="1.1" xmlns="http://www.w3.org/2000/svg" xmlns:xlink="http://www.w3.org/1999/xlink" x="0px" y="0px" width="1000px"
	 height="1000px" viewBox="0 0 1000 1000" enable-background="new 0 0 1000 1000" xml:space="preserve">
<g id="dark_background" display="none">
	
		<rect x="-5.16" y="-3" display="inline" fill="#0A1C2A" stroke="#FFFFFF" stroke-width="3.6881" stroke-miterlimit="10" width="1008.101" height="1003"/>
</g>
<g id="Layer_2">
</g>
<g id="Layer_1">
	<path fill="none" stroke="#FDFDFE" stroke-width="9" stroke-miterlimit="10" d="M362.244,217.404
		c19.457,18.831,11.295,85.974,17.896,119.683c6.616,33.768,23.311,76.006,42.154,104.44c32.132,48.49,83.109,69.639,135.88,44.043
		c50.776-24.62,67.943-66.509,73.147-119.863c2.862-29.312-5.524-134.318,23.128-140.303"/>
	<path fill="none" stroke="#FDFDFE" stroke-width="9" stroke-miterlimit="10" d="M486.332,77.296
		c82.981-17.529,176.37-0.569,192.339,97.649c10.1,62.102-31.067,185.379,31.406,223.571
		c-19.672,13.749-59.154,17.569-83.649,15.017"/>
	<path fill="none" stroke="#FDFDFE" stroke-width="9" stroke-miterlimit="10" d="M634.437,237.413
		c-18.465,6.187-33.764,0.228-47.224,11.993c-0.586-14.481-0.776-29.742-3.829-42.962c-4.75,14.643-7.467,27.954-9.505,42.376
		c-21.202-2.601-40.581,5.384-58.922,7.398c-1.432-25.838-0.854-52.174-0.322-78.136c-22.851,39.468,0.236,87.545-59.719,86.024
		c-0.331-21.612-1.582-41.612-4.505-62.224c-9.355,52.434,4.231,52.126-47.724,62.134c1.618-22.725-1.427-47.604-8.446-68.81
		c-5.432,26.426-13.613,46.931-11.98,74.233"/>
	<path fill="none" stroke="#FDFDFE" stroke-width="9" stroke-miterlimit="10" d="M518.354,77.296
		c-25.583,9.351-51.272-8.001-79.376-3.967c-17.298,2.488-42.564,10.602-58.843,19.798c-40.319,22.772-59.288,55.54-65.927,100.153
		c-11.614,78.048,11.729,154.279-39.934,216.147c19.701,20.952,88.616,22.415,115.988,20.124"/>
	<path fill="none" stroke="#FDFDFE" stroke-width="9" stroke-miterlimit="10" d="M426.29,457.569
		c58.485,154.823-197.434,56.767-245.282,150.904c-29.14,57.321-18.904,139.548-18.904,202.129c0,48.103-4.005,91.512-4.005,139.312
		"/>
	<path fill="none" stroke="#FDFDFE" stroke-width="9" stroke-miterlimit="10" d="M598.409,441.55
		c0,58.809-8.92,94.983,54.023,108.081c41.489,8.627,118.404-10.512,153.554,12.645c27.254,17.952,52.304,80.623,56.911,116.758
		c11.407,89.501-0.302,188.598-0.302,278.881"/>
	<path fill="none" stroke="#FDFDFE" stroke-width="9" stroke-miterlimit="10" d="M266.178,569.643
		c30.855,43.092,44.794,148.831,26.221,199.137c-2.687,7.277-19.59,19.432-21.513,25.725c-5.854,19.214,0.385,48.67,3.182,67.746
		c4.269,29.116,12.619,69.754,32.136,91.664"/>
	<path fill="none" stroke="#FDFDFE" stroke-width="9" stroke-miterlimit="10" d="M766.527,561.642
		c7.907,24.75-8.976,82.119-11.995,112.073C751.45,704.303,735.793,744.989,736,773c0.232,31.61,29.945,60.873,34.532,92.551
		c4.737,32.709-1.894,67.565-3.812,98.348c7.45-4.829,14.59-10.788,19.822-17.992"/>
</g>
<g id="Layer_4">
</g>
<g id="Layer_3">
</g>
<g id="Layer_5">
</g>
</svg>
