<?xml version="1.0" encoding="utf-8"?>
<!-- Generator: Adobe Illustrator 16.0.4, SVG Export Plug-In . SVG Version: 6.00 Build 0)  -->
<!DOCTYPE svg PUBLIC "-//W3C//DTD SVG 1.1//EN" "http://www.w3.org/Graphics/SVG/1.1/DTD/svg11.dtd">
<svg version="1.1" xmlns="http://www.w3.org/2000/svg" xmlns:xlink="http://www.w3.org/1999/xlink" x="0px" y="0px" width="840px"
	 height="230px" viewBox="0 0 840 230" enable-background="new 0 0 840 230" xml:space="preserve">
<g id="Layer_1">
	<path fill="#EF4136" d="M781.221,208.939c0,0.28,0,0.58,0,0.9c0,0.321-0.021,0.66-0.061,1.02h-23.279
		c0.039,1.4,0.319,2.721,0.84,3.96c0.52,1.24,1.239,2.32,2.16,3.24c0.92,0.92,2,1.65,3.24,2.19c1.239,0.54,2.58,0.81,4.02,0.81
		c2.119,0,3.949-0.49,5.49-1.47c1.539-0.979,2.709-2.109,3.51-3.39l3.061,2.4c-1.681,2.121-3.531,3.641-5.551,4.56
		c-2.02,0.92-4.19,1.38-6.51,1.38c-2.08,0-4.011-0.371-5.79-1.11c-1.78-0.74-3.31-1.77-4.59-3.09s-2.29-2.88-3.03-4.68
		c-0.74-1.8-1.109-3.759-1.109-5.88c0-2.12,0.359-4.08,1.08-5.88c0.72-1.8,1.719-3.36,3-4.68c1.279-1.32,2.779-2.349,4.5-3.09
		c1.719-0.74,3.579-1.11,5.58-1.11c2.199,0,4.14,0.37,5.819,1.11c1.681,0.741,3.08,1.74,4.2,3c1.119,1.26,1.97,2.73,2.55,4.41
		C780.93,205.219,781.221,207.019,781.221,208.939z M777.08,207.619c-0.119-2.64-0.97-4.83-2.549-6.57
		c-1.581-1.74-3.831-2.61-6.75-2.61c-1.361,0-2.621,0.25-3.78,0.75c-1.161,0.5-2.181,1.18-3.06,2.04
		c-0.881,0.86-1.581,1.84-2.101,2.94c-0.521,1.101-0.82,2.25-0.899,3.45H777.08z"/>
	<path fill="#EF4136" d="M826.699,205.646c0-2.422-0.641-4.228-1.92-5.42c-1.281-1.19-3.141-1.787-5.58-1.787
		c-1.68,0-3.24,0.3-4.68,0.9c-1.44,0.6-2.661,1.4-3.66,2.4l-2.28-2.7c1.159-1.16,2.69-2.12,4.59-2.88
		c1.899-0.759,4.05-1.14,6.45-1.14c1.52,0,2.939,0.21,4.26,0.63s2.48,1.05,3.48,1.89c0.999,0.84,1.779,1.9,2.34,3.18
		c0.56,1.281,0.84,2.781,0.84,4.5v12.3c0,1.08,0.039,2.2,0.12,3.36c0.079,1.161,0.2,2.14,0.36,2.94h-3.66
		c-0.12-0.68-0.221-1.419-0.301-2.22c-0.08-0.799-0.119-1.58-0.119-2.34h-0.12c-1.28,1.881-2.729,3.23-4.351,4.05
		c-1.619,0.819-3.57,1.23-5.85,1.23c-1.08,0-2.189-0.151-3.33-0.451c-1.141-0.301-2.181-0.792-3.12-1.475
		c-0.94-0.683-1.72-1.566-2.34-2.649c-0.62-1.084-0.931-2.408-0.931-3.973c0-2.167,0.551-3.883,1.65-5.147s2.57-2.207,4.41-2.829
		s3.949-1.024,6.33-1.205c2.379-0.18,4.85-0.271,7.41-0.271V205.646z M825.499,209.779c-1.68,0-3.37,0.07-5.069,0.21
		c-1.701,0.141-3.24,0.42-4.621,0.84c-1.379,0.42-2.51,1.031-3.39,1.83c-0.88,0.801-1.319,1.86-1.319,3.18
		c0,1,0.189,1.84,0.569,2.52c0.38,0.681,0.89,1.23,1.53,1.65c0.639,0.42,1.35,0.72,2.13,0.9c0.78,0.18,1.569,0.27,2.37,0.27
		c1.439,0,2.72-0.249,3.84-0.75c1.119-0.5,2.06-1.179,2.82-2.04c0.76-0.859,1.34-1.85,1.74-2.97c0.398-1.12,0.6-2.3,0.6-3.54v-2.1
		H825.499z"/>
	<g>
		<circle fill="none" stroke="#EF4136" stroke-width="3.5422" stroke-miterlimit="10" cx="732.583" cy="209.886" r="13.054"/>
		
			<line fill="#EF4136" stroke="#EF4136" stroke-width="3.542" stroke-miterlimit="10" x1="719.529" y1="210.27" x2="719.529" y2="178.122"/>
	</g>
	<path fill="#EF4136" d="M803.334,199.111h-7.92v16.38c0,1.041,0.1,1.9,0.301,2.58c0.199,0.681,0.488,1.21,0.869,1.59
		c0.38,0.38,0.83,0.64,1.351,0.78c0.519,0.141,1.08,0.21,1.68,0.21c0.56,0,3.599-0.004,3.599-0.004v3.479
		c0,0-3.759,0.005-4.679,0.005c-0.761,0-1.56-0.1-2.399-0.3s-1.62-0.58-2.34-1.14c-0.721-0.56-1.311-1.32-1.771-2.28
		s-0.69-2.22-0.69-3.78v-17.52h-5.819v-3.42h5.819v-7.92h4.08v7.92h7.92V199.111z"/>
</g>
<g id="Layer_2">
</g>
<g id="Layer_3">
	<g>
		<g>
			<g>
				<path fill="#EF4136" d="M94.323,82.428H72.726v81.217H54.271V82.428h-43.35V67.312h43.35V47.872
					c0-5.496,0.62-10.567,1.863-15.215c1.243-4.646,3.272-8.67,6.087-12.075c2.813-3.403,6.412-6.087,10.799-8.049
					c4.384-1.964,9.719-2.947,16.003-2.947c3.103,0,69.069-0.433,69.069,15.205c0,0.807-68.322,0.7-68.875,0.7
					c-3.534,0-6.381,0.623-8.539,1.866c-2.16,1.244-3.831,2.914-5.006,5.004c-1.18,2.096-1.966,4.486-2.357,7.168
					c-0.393,2.684-0.59,5.467-0.59,8.343v19.439h21.598V82.428z"/>
				<path fill="#EF4136" d="M281.429,90.87c-2.097-3.401-5.041-6.185-8.836-8.345c-3.798-2.159-8.05-3.239-12.762-3.239
					c-2.095,0-4.191,0.23-6.284,0.688c-2.095,0.46-3.959,1.178-5.595,2.16c-1.639,0.981-2.943,2.226-3.926,3.73
					c-0.982,1.506-1.473,3.372-1.473,5.596c0,3.926,1.766,6.84,5.301,8.736c3.534,1.898,8.834,3.632,15.902,5.203
					c4.448,1.048,8.572,2.291,12.37,3.73c3.795,1.441,7.097,3.238,9.914,5.399c2.813,2.16,5.006,4.745,6.578,7.755
					c1.571,3.012,2.355,6.547,2.355,10.604c0,5.496-1.048,10.143-3.142,13.938c-2.095,3.797-4.877,6.906-8.344,9.325
					c-3.471,2.425-7.43,4.157-11.877,5.204c-4.452,1.046-9.033,1.57-13.744,1.57c-7.069,0-13.975-1.374-20.716-4.122
					c-6.741-2.75-12.337-6.938-16.784-12.566l13.154-11.191c2.484,3.667,5.92,6.743,10.307,9.228
					c4.385,2.489,9.193,3.73,14.432,3.73c2.355,0,4.614-0.227,6.772-0.687c2.161-0.457,4.124-1.21,5.892-2.258
					c1.768-1.047,3.172-2.421,4.221-4.122c1.045-1.7,1.569-3.86,1.569-6.481c0-4.318-2.062-7.525-6.183-9.62
					c-4.125-2.091-10.182-4.055-18.161-5.89c-3.143-0.784-6.317-1.733-9.523-2.847c-3.208-1.11-6.12-2.65-8.735-4.613
					c-2.621-1.965-4.748-4.419-6.383-7.362c-1.639-2.946-2.453-6.578-2.453-10.896c0-4.975,1.013-9.26,3.04-12.861
					c2.03-3.6,4.681-6.543,7.951-8.834c3.273-2.289,7.003-3.991,11.195-5.106c4.186-1.108,8.506-1.668,12.958-1.668
					c6.676,0,13.119,1.311,19.338,3.928c6.215,2.618,11.026,6.413,14.432,11.386L281.429,90.87z"/>
				<path fill="#EF4136" d="M363.887,82.428h-24.739v48.348c0,5.611,1.047,9.625,3.141,12.037c2.093,2.416,5.431,3.621,10.015,3.621
					c0.492,0,11.649,0.054,11.649,0.054v15.481h-9.435c0,0-5.722-0.024-6.535-0.024c-8.771,0-15.48-2.422-20.124-7.265
					c-4.647-4.842-6.971-12.106-6.971-21.792v-50.46h-17.867V67.312h17.867V40.609h18.26v26.702h24.739V82.428z M342.288,142.812"/>
				<path fill="#EF4136" d="M677.427,90.87c-2.094-3.401-5.04-6.185-8.833-8.345c-3.8-2.159-8.05-3.239-12.763-3.239
					c-2.096,0-4.189,0.23-6.283,0.688c-2.096,0.46-3.959,1.178-5.596,2.16c-1.639,0.981-2.944,2.226-3.927,3.73
					c-0.981,1.506-1.473,3.372-1.473,5.596c0,3.926,1.767,6.84,5.301,8.736c3.534,1.898,8.836,3.632,15.904,5.203
					c4.448,1.048,8.57,2.291,12.37,3.73c3.793,1.441,7.098,3.238,9.913,5.399c2.815,2.16,5.007,4.745,6.578,7.755
					c1.57,3.012,2.356,6.547,2.356,10.604c0,5.496-1.05,10.143-3.142,13.938c-2.096,3.797-4.878,6.906-8.344,9.325
					c-3.471,2.425-7.431,4.157-11.881,5.204c-4.449,1.046-9.03,1.57-13.741,1.57c-7.069,0-13.974-1.374-20.713-4.122
					c-6.743-2.75-12.339-6.938-16.787-12.566l13.153-11.191c2.486,3.667,5.921,6.743,10.31,9.228c4.383,2.489,9.193,3.73,14.43,3.73
					c2.356,0,4.613-0.227,6.772-0.687c2.16-0.457,4.122-1.21,5.891-2.258c1.768-1.047,3.172-2.421,4.222-4.122
					c1.047-1.7,1.569-3.86,1.569-6.481c0-4.318-2.06-7.525-6.184-9.62c-4.124-2.091-10.18-4.055-18.162-5.89
					c-3.142-0.784-6.314-1.733-9.521-2.847c-3.208-1.11-6.121-2.65-8.736-4.613c-2.619-1.965-4.747-4.419-6.38-7.362
					c-1.64-2.946-2.455-6.578-2.455-10.896c0-4.975,1.009-9.26,3.043-12.861c2.027-3.6,4.678-6.543,7.95-8.834
					c3.272-2.289,7-3.991,11.192-5.106c4.187-1.108,8.507-1.668,12.958-1.668c6.676,0,13.12,1.311,19.338,3.928
					c6.216,2.618,11.026,6.413,14.432,11.386L677.427,90.87z"/>
				<path fill="#EF4136" d="M759.887,82.428h-24.739v48.348c0,5.611,1.047,9.625,3.142,12.037c2.093,2.416,5.43,3.621,10.014,3.621
					c1.699,0,32.934,0.081,34.934,0.081c24.111,0,45.666,3.248,45.666,15.435c0,0-83.954-0.005-84.919-0.005
					c-8.771,0-15.479-2.422-20.126-7.265c-4.646-4.842-6.969-12.106-6.969-21.792v-50.46h-17.867V67.312h17.867V40.609h18.259
					v26.702h24.739V82.428z"/>
			</g>
			<circle fill="none" stroke="#EF4136" stroke-width="15.0208" stroke-miterlimit="10" cx="154.818" cy="111.938" r="43.56"/>
			<path fill="none" stroke="#EF4136" stroke-width="15.0208" stroke-miterlimit="10" d="M593.229,111.938
				c0,24.059-19.506,43.561-43.56,43.561c-24.059,0-43.562-19.502-43.562-43.561c0-24.058,19.503-43.56,43.562-43.56
				C573.724,68.379,593.229,87.881,593.229,111.938z"/>
			<circle fill="none" stroke="#EF4136" stroke-width="15.0208" stroke-miterlimit="10" cx="432.96" cy="113.03" r="43.56"/>
			
				<line fill="none" stroke="#EF4136" stroke-width="15.0208" stroke-miterlimit="10" x1="389.4" y1="113.03" x2="389.4" y2="223.388"/>
		</g>
		<path fill="#FFFFFF" d="M138,18.143c0,1.991-1.615,3.606-3.606,3.606l0,0c-1.993,0-3.605-1.615-3.605-3.606l0,0
			c0-1.991,1.612-3.606,3.605-3.606l0,0C136.385,14.536,138,16.151,138,18.143L138,18.143z"/>
		<path fill="#FFFFFF" d="M808.652,154.472c0,1.841-1.492,3.333-3.333,3.333l0,0c-1.841,0-3.333-1.492-3.333-3.333l0,0
			c0-1.841,1.492-3.333,3.333-3.333l0,0C807.16,151.139,808.652,152.631,808.652,154.472L808.652,154.472z"/>
	</g>
</g>
<g id="Layer_4">
</g>
</svg>
