<?xml version="1.0" encoding="utf-8"?>
<!-- Generator: Adobe Illustrator 16.0.4, SVG Export Plug-In . SVG Version: 6.00 Build 0)  -->
<!DOCTYPE svg PUBLIC "-//W3C//DTD SVG 1.1//EN" "http://www.w3.org/Graphics/SVG/1.1/DTD/svg11.dtd">
<svg version="1.1" xmlns="http://www.w3.org/2000/svg" xmlns:xlink="http://www.w3.org/1999/xlink" x="0px" y="0px" width="40px"
	 height="40px" viewBox="0 0 40 40" enable-background="new 0 0 40 40" xml:space="preserve">
<g id="Layer_3">
</g>
<g id="Layer_1">
	<line fill="none" stroke="#EF4136" stroke-width="0.5" stroke-miterlimit="10" x1="0.514" y1="0" x2="0.514" y2="40"/>
	<line fill="none" stroke="#EF4136" stroke-width="0.5" stroke-miterlimit="10" x1="1.368" y1="0" x2="1.368" y2="40"/>
	<line fill="none" stroke="#EF4136" stroke-width="0.5" stroke-miterlimit="10" x1="2.223" y1="0" x2="2.223" y2="40"/>
	<line fill="none" stroke="#EF4136" stroke-width="0.5" stroke-miterlimit="10" x1="3.077" y1="0" x2="3.077" y2="40"/>
	<line fill="none" stroke="#EF4136" stroke-width="0.5" stroke-miterlimit="10" x1="3.932" y1="0" x2="3.932" y2="40"/>
	<line fill="none" stroke="#EF4136" stroke-width="0.5" stroke-miterlimit="10" x1="4.786" y1="0" x2="4.786" y2="40"/>
	<line fill="none" stroke="#EF4136" stroke-width="0.5" stroke-miterlimit="10" x1="5.641" y1="0" x2="5.641" y2="40"/>
	<line fill="none" stroke="#EF4136" stroke-width="0.5" stroke-miterlimit="10" x1="6.495" y1="0" x2="6.495" y2="40"/>
	<line fill="none" stroke="#EF4136" stroke-width="0.5" stroke-miterlimit="10" x1="7.35" y1="0" x2="7.35" y2="40"/>
	<line fill="none" stroke="#EF4136" stroke-width="0.5" stroke-miterlimit="10" x1="8.204" y1="0" x2="8.204" y2="40"/>
	<line fill="none" stroke="#EF4136" stroke-width="0.5" stroke-miterlimit="10" x1="9.059" y1="0" x2="9.059" y2="40"/>
	<line fill="none" stroke="#EF4136" stroke-width="0.5" stroke-miterlimit="10" x1="9.913" y1="0" x2="9.913" y2="40"/>
	<line fill="none" stroke="#EF4136" stroke-width="0.5" stroke-miterlimit="10" x1="10.768" y1="0" x2="10.768" y2="40"/>
	<line fill="none" stroke="#EF4136" stroke-width="0.5" stroke-miterlimit="10" x1="11.622" y1="0" x2="11.622" y2="40"/>
	<line fill="none" stroke="#EF4136" stroke-width="0.5" stroke-miterlimit="10" x1="12.477" y1="0" x2="12.477" y2="40"/>
	<line fill="none" stroke="#EF4136" stroke-width="0.5" stroke-miterlimit="10" x1="13.331" y1="0" x2="13.331" y2="40"/>
	<line fill="none" stroke="#EF4136" stroke-width="0.5" stroke-miterlimit="10" x1="14.186" y1="0" x2="14.186" y2="40"/>
	<line fill="none" stroke="#EF4136" stroke-width="0.5" stroke-miterlimit="10" x1="15.04" y1="0" x2="15.04" y2="40"/>
	<line fill="none" stroke="#EF4136" stroke-width="0.5" stroke-miterlimit="10" x1="15.895" y1="0" x2="15.895" y2="40"/>
	<line fill="none" stroke="#EF4136" stroke-width="0.5" stroke-miterlimit="10" x1="16.749" y1="0" x2="16.749" y2="40"/>
	<line fill="none" stroke="#EF4136" stroke-width="0.5" stroke-miterlimit="10" x1="17.604" y1="0" x2="17.604" y2="40"/>
	<line fill="none" stroke="#EF4136" stroke-width="0.5" stroke-miterlimit="10" x1="18.458" y1="0" x2="18.458" y2="40"/>
	<line fill="none" stroke="#EF4136" stroke-width="0.5" stroke-miterlimit="10" x1="19.312" y1="0" x2="19.312" y2="40"/>
	<line fill="none" stroke="#EF4136" stroke-width="0.5" stroke-miterlimit="10" x1="20.167" y1="0" x2="20.167" y2="40"/>
	<line fill="none" stroke="#EF4136" stroke-width="0.5" stroke-miterlimit="10" x1="21.021" y1="0" x2="21.021" y2="40"/>
	<line fill="none" stroke="#EF4136" stroke-width="0.5" stroke-miterlimit="10" x1="21.876" y1="0" x2="21.876" y2="40"/>
	<line fill="none" stroke="#EF4136" stroke-width="0.5" stroke-miterlimit="10" x1="22.73" y1="0" x2="22.73" y2="40"/>
	<line fill="none" stroke="#EF4136" stroke-width="0.5" stroke-miterlimit="10" x1="23.585" y1="0" x2="23.585" y2="40"/>
	<line fill="none" stroke="#EF4136" stroke-width="0.5" stroke-miterlimit="10" x1="24.439" y1="0" x2="24.439" y2="40"/>
	<line fill="none" stroke="#EF4136" stroke-width="0.5" stroke-miterlimit="10" x1="25.294" y1="0" x2="25.294" y2="40"/>
	<line fill="none" stroke="#EF4136" stroke-width="0.5" stroke-miterlimit="10" x1="26.148" y1="0" x2="26.148" y2="40"/>
	<line fill="none" stroke="#EF4136" stroke-width="0.5" stroke-miterlimit="10" x1="27.003" y1="0" x2="27.003" y2="40"/>
	<line fill="none" stroke="#EF4136" stroke-width="0.5" stroke-miterlimit="10" x1="27.857" y1="0" x2="27.857" y2="40"/>
	<line fill="none" stroke="#EF4136" stroke-width="0.5" stroke-miterlimit="10" x1="28.712" y1="0" x2="28.712" y2="40"/>
	<line fill="none" stroke="#EF4136" stroke-width="0.5" stroke-miterlimit="10" x1="29.566" y1="0" x2="29.566" y2="40"/>
	<line fill="none" stroke="#EF4136" stroke-width="0.5" stroke-miterlimit="10" x1="30.421" y1="0" x2="30.421" y2="40"/>
	<line fill="none" stroke="#EF4136" stroke-width="0.5" stroke-miterlimit="10" x1="31.275" y1="0" x2="31.275" y2="40"/>
	<line fill="none" stroke="#EF4136" stroke-width="0.5" stroke-miterlimit="10" x1="32.13" y1="0" x2="32.13" y2="40"/>
	<line fill="none" stroke="#EF4136" stroke-width="0.5" stroke-miterlimit="10" x1="32.984" y1="0" x2="32.984" y2="40"/>
	<line fill="none" stroke="#EF4136" stroke-width="0.5" stroke-miterlimit="10" x1="33.839" y1="0" x2="33.839" y2="40"/>
	<line fill="none" stroke="#EF4136" stroke-width="0.5" stroke-miterlimit="10" x1="34.693" y1="0" x2="34.693" y2="40"/>
	<line fill="none" stroke="#EF4136" stroke-width="0.5" stroke-miterlimit="10" x1="35.548" y1="0" x2="35.548" y2="40"/>
	<line fill="none" stroke="#EF4136" stroke-width="0.5" stroke-miterlimit="10" x1="36.402" y1="0" x2="36.402" y2="40"/>
	<line fill="none" stroke="#EF4136" stroke-width="0.5" stroke-miterlimit="10" x1="37.257" y1="0" x2="37.257" y2="40"/>
	<line fill="none" stroke="#EF4136" stroke-width="0.5" stroke-miterlimit="10" x1="38.111" y1="0" x2="38.111" y2="40"/>
	<line fill="none" stroke="#EF4136" stroke-width="0.5" stroke-miterlimit="10" x1="38.966" y1="0" x2="38.966" y2="40"/>
	<line fill="none" stroke="#EF4136" stroke-width="0.5" stroke-miterlimit="10" x1="39.82" y1="0" x2="39.82" y2="40"/>
	<circle fill="#EF4136" cx="34.134" cy="33.212" r="4.122"/>
	<path fill="none" stroke="#FFFFFF" stroke-miterlimit="10" d="M6.19,22.307c0.58-1.327,0.446-5.17,1.701-6.129
		c1.195-0.913,1.879,0.752,2.129,1.791c0.228,0.947,0.234,2.62,1.366,2.842c1.481,0.289,1.122-2.148,1.903-3.221
		c1.229-1.688,2.951-0.636,3.433,1.262c0.294,1.16,0.385,1.715,1.021,1.729c1.016,0.023,1.068-0.791,1.428-1.638
		c0.689-1.623,1.124-4.885,2.56-2.266c0.752,1.371,0.681,5.881,2.771,4.762c1.094-0.586,1.021-4.591,2.596-4.312
		c0.752,0.133,0.775,1.96,1.193,2.675c0.646,1.107,1.409,1.858,2.676,1.475c1.594-0.482,1.684-4.074,3.092-3.979
		c1.434,0.097,1.586,4.665,3.393,3.508"/>
</g>
<g id="Layer_2">
</g>
<g id="Layer_4">
</g>
</svg>
