<?xml version="1.0" encoding="utf-8"?>
<!-- Generator: Adobe Illustrator 16.0.4, SVG Export Plug-In . SVG Version: 6.00 Build 0)  -->
<!DOCTYPE svg PUBLIC "-//W3C//DTD SVG 1.1//EN" "http://www.w3.org/Graphics/SVG/1.1/DTD/svg11.dtd">
<svg version="1.1" xmlns="http://www.w3.org/2000/svg" xmlns:xlink="http://www.w3.org/1999/xlink" x="0px" y="0px" width="40px"
	 height="40px" viewBox="0 0 40 40" enable-background="new 0 0 40 40" xml:space="preserve">
<g id="Layer_3">
</g>
<g id="Layer_1">
</g>
<g id="Layer_2">
	<path fill="none" stroke="#EF4136" stroke-miterlimit="10" d="M4.055,22.116c0.58-1.327,0.446-5.17,1.701-6.129
		c1.195-0.913,1.879,0.752,2.129,1.791c0.228,0.947,0.234,2.62,1.366,2.842c1.481,0.289,1.122-2.148,1.903-3.221
		c1.229-1.688,2.951-0.636,3.433,1.262c0.294,1.16,0.385,1.715,1.021,1.729c1.016,0.023,1.068-0.791,1.428-1.638
		c0.689-1.623,1.124-4.885,2.56-2.266c0.752,1.371,0.681,5.881,2.771,4.762c1.094-0.586,1.021-4.591,2.596-4.312
		c0.752,0.133,0.775,1.96,1.193,2.675c0.646,1.107,1.409,1.858,2.676,1.475c1.594-0.482,1.684-4.074,3.092-3.979
		c1.434,0.097,1.586,4.665,3.393,3.508"/>
	<rect x="-0.019" y="-0.19" fill="none" stroke="#EF4136" stroke-miterlimit="10" width="40" height="40"/>
	<line fill="none" stroke="#EF4136" stroke-width="0.25" stroke-miterlimit="10" x1="2.469" y1="5.844" x2="4.366" y2="12.943"/>
	<line fill="none" stroke="#EF4136" stroke-width="0.25" stroke-miterlimit="10" x1="11.407" y1="4.604" x2="12.574" y2="11.886"/>
	<line fill="none" stroke="#EF4136" stroke-width="0.25" stroke-miterlimit="10" x1="20" y1="4.56" x2="20" y2="11.499"/>
	<line fill="none" stroke="#EF4136" stroke-width="0.25" stroke-miterlimit="10" x1="29.36" y1="4.896" x2="26.809" y2="11.499"/>
	<line fill="none" stroke="#EF4136" stroke-width="0.25" stroke-miterlimit="10" x1="37.451" y1="5.827" x2="32.544" y2="12.37"/>
	<line fill="none" stroke="#EF4136" stroke-width="0.25" stroke-miterlimit="10" x1="37.451" y1="32.056" x2="35.554" y2="24.956"/>
	<line fill="none" stroke="#EF4136" stroke-width="0.25" stroke-miterlimit="10" x1="28.513" y1="33.296" x2="27.346" y2="26.014"/>
	<line fill="none" stroke="#EF4136" stroke-width="0.25" stroke-miterlimit="10" x1="19.92" y1="33.34" x2="19.92" y2="26.4"/>
	<line fill="none" stroke="#EF4136" stroke-width="0.25" stroke-miterlimit="10" x1="10.56" y1="33.004" x2="13.111" y2="26.4"/>
	<line fill="none" stroke="#EF4136" stroke-width="0.25" stroke-miterlimit="10" x1="2.469" y1="32.072" x2="7.376" y2="25.529"/>
	<circle fill="#EF4136" cx="34.737" cy="35.163" r="3.093"/>
</g>
<g id="Layer_4">
</g>
</svg>
