<?xml version="1.0" encoding="utf-8"?>
<!-- Generator: Adobe Illustrator 16.0.4, SVG Export Plug-In . SVG Version: 6.00 Build 0)  -->
<!DOCTYPE svg PUBLIC "-//W3C//DTD SVG 1.1//EN" "http://www.w3.org/Graphics/SVG/1.1/DTD/svg11.dtd">
<svg version="1.1" xmlns="http://www.w3.org/2000/svg" xmlns:xlink="http://www.w3.org/1999/xlink" x="0px" y="0px" width="40px"
	 height="40px" viewBox="0 0 40 40" enable-background="new 0 0 40 40" xml:space="preserve">
<g id="Layer_5">
	<rect x="1" y="0.667" fill="#FFFFFF" width="39.333" height="39"/>
</g>
<g id="Layer_3">
</g>
<g id="Layer_1">
</g>
<g id="Layer_2">
	<g>
		<path fill="none" stroke="#EF4136" stroke-width="2.0228" stroke-miterlimit="10" d="M10.161,19.139
			c-0.185,0.619-0.431,1.236-0.762,1.665c-0.844,1.096-1.529-0.467-1.872-1.665c-0.351-1.033-0.917-2.72-1.769-1.827
			c-0.394,0.41-0.677,1.121-0.88,1.803"/>
		<path fill="none" stroke="#EF4136" stroke-width="2.0228" stroke-miterlimit="10" d="M15.443,19.212
			c-0.184,0.619-0.432,1.237-0.762,1.666c-0.844,1.096-1.53-0.468-1.872-1.666c-0.351-1.032-0.917-2.719-1.769-1.827
			c-0.393,0.41-0.676,1.121-0.879,1.803"/>
		<path fill="none" stroke="#EF4136" stroke-width="2.0228" stroke-miterlimit="10" d="M20.722,19.237
			c-0.185,0.618-0.432,1.235-0.763,1.665c-0.844,1.095-1.529-0.468-1.872-1.665c-0.351-1.033-0.917-2.72-1.768-1.828
			c-0.393,0.41-0.676,1.121-0.88,1.803"/>
		<path fill="none" stroke="#EF4136" stroke-width="2.0228" stroke-miterlimit="10" d="M25.99,19.286
			c-0.185,0.619-0.432,1.236-0.762,1.665c-0.844,1.096-1.529-0.467-1.872-1.665c-0.351-1.033-0.917-2.72-1.769-1.828
			c-0.394,0.41-0.677,1.122-0.88,1.803"/>
		<path fill="none" stroke="#EF4136" stroke-width="2.0228" stroke-miterlimit="10" d="M31.263,19.334
			c-0.185,0.62-0.432,1.237-0.763,1.666c-0.844,1.096-1.529-0.467-1.872-1.666c-0.351-1.031-0.917-2.718-1.768-1.827
			c-0.394,0.411-0.677,1.122-0.88,1.804"/>
		<path fill="none" stroke="#EF4136" stroke-width="2.0228" stroke-miterlimit="10" d="M36.545,19.384
			c-0.184,0.619-0.432,1.236-0.762,1.666c-0.844,1.095-1.53-0.468-1.872-1.666c-0.352-1.032-0.918-2.719-1.769-1.828
			c-0.393,0.411-0.677,1.122-0.88,1.804"/>
	</g>
	<circle fill="#EF4136" cx="34.651" cy="35.354" r="3.092"/>
	<line fill="none" stroke="#EF4136" stroke-width="0.75" stroke-miterlimit="10" x1="2.487" y1="6.034" x2="4.385" y2="13.134"/>
	<line fill="none" stroke="#EF4136" stroke-width="0.75" stroke-miterlimit="10" x1="11.426" y1="2.794" x2="12.593" y2="10.076"/>
	<line fill="none" stroke="#EF4136" stroke-width="0.75" stroke-miterlimit="10" x1="20.019" y1="1" x2="20.019" y2="7.939"/>
	<line fill="none" stroke="#EF4136" stroke-width="0.75" stroke-miterlimit="10" x1="29.379" y1="3.086" x2="26.827" y2="9.689"/>
	<line fill="none" stroke="#EF4136" stroke-width="0.75" stroke-miterlimit="10" x1="37.47" y1="6.018" x2="32.562" y2="12.561"/>
	<line fill="none" stroke="#EF4136" stroke-width="0.75" stroke-miterlimit="10" x1="37.47" y1="31.6" x2="35.572" y2="24.5"/>
	<line fill="none" stroke="#EF4136" stroke-width="0.75" stroke-miterlimit="10" x1="28.531" y1="34.84" x2="27.364" y2="27.558"/>
	<line fill="none" stroke="#EF4136" stroke-width="0.75" stroke-miterlimit="10" x1="19.938" y1="36.634" x2="19.938" y2="29.694"/>
	<line fill="none" stroke="#EF4136" stroke-width="0.75" stroke-miterlimit="10" x1="10.578" y1="34.548" x2="13.13" y2="27.944"/>
	<line fill="none" stroke="#EF4136" stroke-width="0.75" stroke-miterlimit="10" x1="2.487" y1="31.616" x2="7.395" y2="25.073"/>
</g>
<g id="Layer_4">
</g>
</svg>
