<?xml version="1.0" encoding="utf-8"?>
<!-- Generator: Adobe Illustrator 16.0.4, SVG Export Plug-In . SVG Version: 6.00 Build 0)  -->
<!DOCTYPE svg PUBLIC "-//W3C//DTD SVG 1.1//EN" "http://www.w3.org/Graphics/SVG/1.1/DTD/svg11.dtd">
<svg version="1.1" xmlns="http://www.w3.org/2000/svg" xmlns:xlink="http://www.w3.org/1999/xlink" x="0px" y="0px" width="40px"
	 height="40px" viewBox="0 0 40 40" enable-background="new 0 0 40 40" xml:space="preserve">
<g id="Layer_5">
	<rect x="1" y="0.667" fill="#FFFFFF" width="39.333" height="39"/>
</g>
<g id="Layer_3">
	<line fill="none" stroke="#EF4136" stroke-width="0.5" stroke-miterlimit="10" x1="0.854" y1="0" x2="0.854" y2="40"/>
	<line fill="none" stroke="#EF4136" stroke-width="0.5" stroke-miterlimit="10" x1="1.709" y1="0" x2="1.709" y2="40"/>
	<line fill="none" stroke="#EF4136" stroke-width="0.5" stroke-miterlimit="10" x1="2.563" y1="0" x2="2.563" y2="40"/>
	<line fill="none" stroke="#EF4136" stroke-width="0.5" stroke-miterlimit="10" x1="3.418" y1="0" x2="3.418" y2="40"/>
	<line fill="none" stroke="#EF4136" stroke-width="0.5" stroke-miterlimit="10" x1="4.272" y1="0" x2="4.272" y2="40"/>
	<line fill="none" stroke="#EF4136" stroke-width="0.5" stroke-miterlimit="10" x1="5.127" y1="0" x2="5.127" y2="40"/>
	<line fill="none" stroke="#EF4136" stroke-width="0.5" stroke-miterlimit="10" x1="5.981" y1="0" x2="5.981" y2="40"/>
	<line fill="none" stroke="#EF4136" stroke-width="0.5" stroke-miterlimit="10" x1="6.836" y1="0" x2="6.836" y2="40"/>
	<line fill="none" stroke="#EF4136" stroke-width="0.5" stroke-miterlimit="10" x1="7.69" y1="0" x2="7.69" y2="40"/>
	<line fill="none" stroke="#EF4136" stroke-width="0.5" stroke-miterlimit="10" x1="8.545" y1="0" x2="8.545" y2="40"/>
	<line fill="none" stroke="#EF4136" stroke-width="0.5" stroke-miterlimit="10" x1="9.399" y1="0" x2="9.399" y2="40"/>
	<line fill="none" stroke="#EF4136" stroke-width="0.5" stroke-miterlimit="10" x1="10.254" y1="0" x2="10.254" y2="40"/>
	<line fill="none" stroke="#EF4136" stroke-width="0.5" stroke-miterlimit="10" x1="11.108" y1="0" x2="11.108" y2="40"/>
	<line fill="none" stroke="#EF4136" stroke-width="0.5" stroke-miterlimit="10" x1="11.963" y1="0" x2="11.963" y2="40"/>
	<line fill="none" stroke="#EF4136" stroke-width="0.5" stroke-miterlimit="10" x1="12.817" y1="0" x2="12.817" y2="40"/>
	<line fill="none" stroke="#EF4136" stroke-width="0.5" stroke-miterlimit="10" x1="13.672" y1="0" x2="13.672" y2="40"/>
	<line fill="none" stroke="#EF4136" stroke-width="0.5" stroke-miterlimit="10" x1="14.526" y1="0" x2="14.526" y2="40"/>
	<line fill="none" stroke="#EF4136" stroke-width="0.5" stroke-miterlimit="10" x1="15.381" y1="0" x2="15.381" y2="40"/>
	<line fill="none" stroke="#EF4136" stroke-width="0.5" stroke-miterlimit="10" x1="16.235" y1="0" x2="16.235" y2="40"/>
	<line fill="none" stroke="#EF4136" stroke-width="0.5" stroke-miterlimit="10" x1="17.09" y1="0" x2="17.09" y2="40"/>
	<line fill="none" stroke="#EF4136" stroke-width="0.5" stroke-miterlimit="10" x1="17.944" y1="0" x2="17.944" y2="40"/>
	<line fill="none" stroke="#EF4136" stroke-width="0.5" stroke-miterlimit="10" x1="18.799" y1="0" x2="18.799" y2="40"/>
	<line fill="none" stroke="#EF4136" stroke-width="0.5" stroke-miterlimit="10" x1="19.653" y1="0" x2="19.653" y2="40"/>
	<line fill="none" stroke="#EF4136" stroke-width="0.5" stroke-miterlimit="10" x1="20.508" y1="0" x2="20.508" y2="40"/>
	<line fill="none" stroke="#EF4136" stroke-width="0.5" stroke-miterlimit="10" x1="21.362" y1="0" x2="21.362" y2="40"/>
	<line fill="none" stroke="#EF4136" stroke-width="0.5" stroke-miterlimit="10" x1="22.217" y1="0" x2="22.217" y2="40"/>
	<line fill="none" stroke="#EF4136" stroke-width="0.5" stroke-miterlimit="10" x1="23.071" y1="0" x2="23.071" y2="40"/>
	<line fill="none" stroke="#EF4136" stroke-width="0.5" stroke-miterlimit="10" x1="23.926" y1="0" x2="23.926" y2="40"/>
	<line fill="none" stroke="#EF4136" stroke-width="0.5" stroke-miterlimit="10" x1="24.78" y1="0" x2="24.78" y2="40"/>
	<line fill="none" stroke="#EF4136" stroke-width="0.5" stroke-miterlimit="10" x1="25.635" y1="0" x2="25.635" y2="40"/>
	<line fill="none" stroke="#EF4136" stroke-width="0.5" stroke-miterlimit="10" x1="26.489" y1="0" x2="26.489" y2="40"/>
	<line fill="none" stroke="#EF4136" stroke-width="0.5" stroke-miterlimit="10" x1="27.344" y1="0" x2="27.344" y2="40"/>
	<line fill="none" stroke="#EF4136" stroke-width="0.5" stroke-miterlimit="10" x1="28.198" y1="0" x2="28.198" y2="40"/>
	<line fill="none" stroke="#EF4136" stroke-width="0.5" stroke-miterlimit="10" x1="29.053" y1="0" x2="29.053" y2="40"/>
	<line fill="none" stroke="#EF4136" stroke-width="0.5" stroke-miterlimit="10" x1="29.907" y1="0" x2="29.907" y2="40"/>
	<line fill="none" stroke="#EF4136" stroke-width="0.5" stroke-miterlimit="10" x1="30.762" y1="0" x2="30.762" y2="40"/>
	<line fill="none" stroke="#EF4136" stroke-width="0.5" stroke-miterlimit="10" x1="31.616" y1="0" x2="31.616" y2="40"/>
	<line fill="none" stroke="#EF4136" stroke-width="0.5" stroke-miterlimit="10" x1="32.471" y1="0" x2="32.471" y2="40"/>
	<line fill="none" stroke="#EF4136" stroke-width="0.5" stroke-miterlimit="10" x1="33.325" y1="0" x2="33.325" y2="40"/>
	<line fill="none" stroke="#EF4136" stroke-width="0.5" stroke-miterlimit="10" x1="34.18" y1="0" x2="34.18" y2="40"/>
	<line fill="none" stroke="#EF4136" stroke-width="0.5" stroke-miterlimit="10" x1="35.034" y1="0" x2="35.034" y2="40"/>
	<line fill="none" stroke="#EF4136" stroke-width="0.5" stroke-miterlimit="10" x1="35.889" y1="0" x2="35.889" y2="40"/>
	<line fill="none" stroke="#EF4136" stroke-width="0.5" stroke-miterlimit="10" x1="36.743" y1="0" x2="36.743" y2="40"/>
	<line fill="none" stroke="#EF4136" stroke-width="0.5" stroke-miterlimit="10" x1="37.598" y1="0" x2="37.598" y2="40"/>
	<line fill="none" stroke="#EF4136" stroke-width="0.5" stroke-miterlimit="10" x1="38.452" y1="0" x2="38.452" y2="40"/>
	<line fill="none" stroke="#EF4136" stroke-width="0.5" stroke-miterlimit="10" x1="39.307" y1="0" x2="39.307" y2="40"/>
	<circle fill="#EF4136" cx="33.62" cy="33.212" r="4.122"/>
</g>
<g id="Layer_1">
</g>
<g id="Layer_2">
	<g>
		<path fill="none" stroke="#FDFDFE" stroke-width="2.0228" stroke-miterlimit="10" d="M9.556,18.305
			c-0.185,0.619-0.431,1.236-0.763,1.665c-0.844,1.096-1.528-0.467-1.871-1.665c-0.352-1.033-0.918-2.72-1.769-1.827
			c-0.394,0.41-0.677,1.121-0.88,1.803"/>
		<path fill="none" stroke="#FDFDFE" stroke-width="2.0228" stroke-miterlimit="10" d="M14.838,18.378
			c-0.184,0.619-0.432,1.237-0.762,1.666c-0.844,1.096-1.529-0.468-1.872-1.666c-0.351-1.032-0.917-2.719-1.769-1.827
			c-0.393,0.41-0.677,1.121-0.88,1.803"/>
		<path fill="none" stroke="#FDFDFE" stroke-width="2.0228" stroke-miterlimit="10" d="M20.117,18.403
			c-0.186,0.618-0.433,1.235-0.764,1.665c-0.844,1.095-1.529-0.468-1.871-1.665c-0.352-1.033-0.918-2.72-1.769-1.828
			c-0.394,0.41-0.677,1.121-0.88,1.803"/>
		<path fill="none" stroke="#FDFDFE" stroke-width="2.0228" stroke-miterlimit="10" d="M25.385,18.452
			c-0.186,0.619-0.432,1.236-0.763,1.665c-0.844,1.096-1.529-0.467-1.872-1.665c-0.351-1.033-0.917-2.72-1.769-1.828
			c-0.394,0.41-0.677,1.122-0.88,1.803"/>
		<path fill="none" stroke="#FDFDFE" stroke-width="2.0228" stroke-miterlimit="10" d="M30.657,18.5
			c-0.185,0.62-0.433,1.237-0.763,1.666c-0.844,1.096-1.529-0.467-1.871-1.666c-0.352-1.031-0.918-2.718-1.769-1.827
			c-0.394,0.411-0.677,1.122-0.88,1.804"/>
		<path fill="none" stroke="#FDFDFE" stroke-width="2.0228" stroke-miterlimit="10" d="M35.939,18.55
			c-0.184,0.619-0.432,1.236-0.762,1.666c-0.844,1.095-1.529-0.468-1.872-1.666c-0.352-1.032-0.918-2.719-1.769-1.828
			c-0.393,0.411-0.677,1.122-0.88,1.804"/>
	</g>
</g>
<g id="Layer_4">
</g>
</svg>
