<?xml version="1.0" encoding="utf-8"?>
<!-- Generator: Adobe Illustrator 16.0.4, SVG Export Plug-In . SVG Version: 6.00 Build 0)  -->
<!DOCTYPE svg PUBLIC "-//W3C//DTD SVG 1.1//EN" "http://www.w3.org/Graphics/SVG/1.1/DTD/svg11.dtd">
<svg version="1.1" xmlns="http://www.w3.org/2000/svg" xmlns:xlink="http://www.w3.org/1999/xlink" x="0px" y="0px" width="40px"
	 height="40px" viewBox="0 0 40 40" enable-background="new 0 0 40 40" xml:space="preserve">
<g id="Layer_5">
	<rect x="1" y="0.667" fill="#FFFFFF" width="39.333" height="39"/>
</g>
<g id="Layer_3">
	<line fill="none" stroke="#000000" stroke-width="0.5" stroke-miterlimit="10" x1="0.5" y1="0" x2="0.5" y2="40"/>
	<line fill="none" stroke="#000000" stroke-width="0.5" stroke-miterlimit="10" x1="1.354" y1="0" x2="1.354" y2="40"/>
	<line fill="none" stroke="#000000" stroke-width="0.5" stroke-miterlimit="10" x1="2.209" y1="0" x2="2.209" y2="40"/>
	<line fill="none" stroke="#000000" stroke-width="0.5" stroke-miterlimit="10" x1="3.063" y1="0" x2="3.063" y2="40"/>
	<line fill="none" stroke="#000000" stroke-width="0.5" stroke-miterlimit="10" x1="3.918" y1="0" x2="3.918" y2="40"/>
	<line fill="none" stroke="#000000" stroke-width="0.5" stroke-miterlimit="10" x1="4.772" y1="0" x2="4.772" y2="40"/>
	<line fill="none" stroke="#000000" stroke-width="0.5" stroke-miterlimit="10" x1="5.627" y1="0" x2="5.627" y2="40"/>
	<line fill="none" stroke="#000000" stroke-width="0.5" stroke-miterlimit="10" x1="6.481" y1="0" x2="6.481" y2="40"/>
	<line fill="none" stroke="#000000" stroke-width="0.5" stroke-miterlimit="10" x1="7.336" y1="0" x2="7.336" y2="40"/>
	<line fill="none" stroke="#000000" stroke-width="0.5" stroke-miterlimit="10" x1="8.19" y1="0" x2="8.19" y2="40"/>
	<line fill="none" stroke="#000000" stroke-width="0.5" stroke-miterlimit="10" x1="9.045" y1="0" x2="9.045" y2="40"/>
	<line fill="none" stroke="#000000" stroke-width="0.5" stroke-miterlimit="10" x1="9.899" y1="0" x2="9.899" y2="40"/>
	<line fill="none" stroke="#000000" stroke-width="0.5" stroke-miterlimit="10" x1="10.754" y1="0" x2="10.754" y2="40"/>
	<line fill="none" stroke="#000000" stroke-width="0.5" stroke-miterlimit="10" x1="11.608" y1="0" x2="11.608" y2="40"/>
	<line fill="none" stroke="#000000" stroke-width="0.5" stroke-miterlimit="10" x1="12.463" y1="0" x2="12.463" y2="40"/>
	<line fill="none" stroke="#000000" stroke-width="0.5" stroke-miterlimit="10" x1="13.317" y1="0" x2="13.317" y2="40"/>
	<line fill="none" stroke="#000000" stroke-width="0.5" stroke-miterlimit="10" x1="14.172" y1="0" x2="14.172" y2="40"/>
	<line fill="none" stroke="#000000" stroke-width="0.5" stroke-miterlimit="10" x1="15.026" y1="0" x2="15.026" y2="40"/>
	<line fill="none" stroke="#000000" stroke-width="0.5" stroke-miterlimit="10" x1="15.881" y1="0" x2="15.881" y2="40"/>
	<line fill="none" stroke="#000000" stroke-width="0.5" stroke-miterlimit="10" x1="16.735" y1="0" x2="16.735" y2="40"/>
	<line fill="none" stroke="#000000" stroke-width="0.5" stroke-miterlimit="10" x1="17.59" y1="0" x2="17.59" y2="40"/>
	<line fill="none" stroke="#000000" stroke-width="0.5" stroke-miterlimit="10" x1="18.444" y1="0" x2="18.444" y2="40"/>
	<line fill="none" stroke="#000000" stroke-width="0.5" stroke-miterlimit="10" x1="19.299" y1="0" x2="19.299" y2="40"/>
	<line fill="none" stroke="#000000" stroke-width="0.5" stroke-miterlimit="10" x1="20.153" y1="0" x2="20.153" y2="40"/>
	<line fill="none" stroke="#000000" stroke-width="0.5" stroke-miterlimit="10" x1="21.008" y1="0" x2="21.008" y2="40"/>
	<line fill="none" stroke="#000000" stroke-width="0.5" stroke-miterlimit="10" x1="21.862" y1="0" x2="21.862" y2="40"/>
	<line fill="none" stroke="#000000" stroke-width="0.5" stroke-miterlimit="10" x1="22.717" y1="0" x2="22.717" y2="40"/>
	<line fill="none" stroke="#000000" stroke-width="0.5" stroke-miterlimit="10" x1="23.571" y1="0" x2="23.571" y2="40"/>
	<line fill="none" stroke="#000000" stroke-width="0.5" stroke-miterlimit="10" x1="24.426" y1="0" x2="24.426" y2="40"/>
	<line fill="none" stroke="#000000" stroke-width="0.5" stroke-miterlimit="10" x1="25.28" y1="0" x2="25.28" y2="40"/>
	<line fill="none" stroke="#000000" stroke-width="0.5" stroke-miterlimit="10" x1="26.135" y1="0" x2="26.135" y2="40"/>
	<line fill="none" stroke="#000000" stroke-width="0.5" stroke-miterlimit="10" x1="26.989" y1="0" x2="26.989" y2="40"/>
	<line fill="none" stroke="#000000" stroke-width="0.5" stroke-miterlimit="10" x1="27.844" y1="0" x2="27.844" y2="40"/>
	<line fill="none" stroke="#000000" stroke-width="0.5" stroke-miterlimit="10" x1="28.698" y1="0" x2="28.698" y2="40"/>
	<line fill="none" stroke="#000000" stroke-width="0.5" stroke-miterlimit="10" x1="29.553" y1="0" x2="29.553" y2="40"/>
	<line fill="none" stroke="#000000" stroke-width="0.5" stroke-miterlimit="10" x1="30.407" y1="0" x2="30.407" y2="40"/>
	<line fill="none" stroke="#000000" stroke-width="0.5" stroke-miterlimit="10" x1="31.262" y1="0" x2="31.262" y2="40"/>
	<line fill="none" stroke="#000000" stroke-width="0.5" stroke-miterlimit="10" x1="32.116" y1="0" x2="32.116" y2="40"/>
	<line fill="none" stroke="#000000" stroke-width="0.5" stroke-miterlimit="10" x1="32.971" y1="0" x2="32.971" y2="40"/>
	<line fill="none" stroke="#000000" stroke-width="0.5" stroke-miterlimit="10" x1="33.825" y1="0" x2="33.825" y2="40"/>
	<line fill="none" stroke="#000000" stroke-width="0.5" stroke-miterlimit="10" x1="34.68" y1="0" x2="34.68" y2="40"/>
	<line fill="none" stroke="#000000" stroke-width="0.5" stroke-miterlimit="10" x1="35.534" y1="0" x2="35.534" y2="40"/>
	<line fill="none" stroke="#000000" stroke-width="0.5" stroke-miterlimit="10" x1="36.389" y1="0" x2="36.389" y2="40"/>
	<line fill="none" stroke="#000000" stroke-width="0.5" stroke-miterlimit="10" x1="37.243" y1="0" x2="37.243" y2="40"/>
	<line fill="none" stroke="#000000" stroke-width="0.5" stroke-miterlimit="10" x1="38.098" y1="0" x2="38.098" y2="40"/>
	<line fill="none" stroke="#000000" stroke-width="0.5" stroke-miterlimit="10" x1="38.952" y1="0" x2="38.952" y2="40"/>
	<line fill="none" stroke="#000000" stroke-width="0.5" stroke-miterlimit="10" x1="39.807" y1="0" x2="39.807" y2="40"/>
</g>
<g id="Layer_1">
</g>
<g id="Layer_2">
	<circle fill="#EF4136" cx="33.62" cy="33.212" r="4.122"/>
	<g>
		<path fill="none" stroke="#FDFDFE" stroke-width="2.0228" stroke-miterlimit="10" d="M9.806,19.555
			c-0.185,0.619-0.431,1.236-0.763,1.665c-0.844,1.096-1.528-0.467-1.871-1.665c-0.352-1.033-0.918-2.72-1.769-1.827
			c-0.394,0.41-0.677,1.121-0.88,1.803"/>
		<path fill="none" stroke="#FDFDFE" stroke-width="2.0228" stroke-miterlimit="10" d="M15.088,19.628
			c-0.184,0.619-0.432,1.237-0.762,1.666c-0.844,1.096-1.529-0.468-1.872-1.666c-0.351-1.032-0.917-2.719-1.769-1.827
			c-0.393,0.41-0.677,1.121-0.88,1.803"/>
		<path fill="none" stroke="#FDFDFE" stroke-width="2.0228" stroke-miterlimit="10" d="M20.367,19.653
			c-0.186,0.618-0.433,1.235-0.764,1.665c-0.844,1.095-1.529-0.468-1.871-1.665c-0.352-1.033-0.918-2.72-1.769-1.828
			c-0.394,0.41-0.677,1.121-0.88,1.803"/>
		<path fill="none" stroke="#FDFDFE" stroke-width="2.0228" stroke-miterlimit="10" d="M25.635,19.702
			c-0.186,0.619-0.432,1.236-0.763,1.665C24.028,22.463,23.343,20.9,23,19.702c-0.351-1.033-0.917-2.72-1.769-1.828
			c-0.394,0.41-0.677,1.122-0.88,1.803"/>
		<path fill="none" stroke="#FDFDFE" stroke-width="2.0228" stroke-miterlimit="10" d="M30.907,19.75
			c-0.185,0.62-0.433,1.237-0.763,1.666c-0.844,1.096-1.529-0.467-1.871-1.666c-0.352-1.031-0.918-2.718-1.769-1.827
			c-0.394,0.411-0.677,1.122-0.88,1.804"/>
		<path fill="none" stroke="#FDFDFE" stroke-width="2.0228" stroke-miterlimit="10" d="M36.189,19.8
			c-0.184,0.619-0.432,1.236-0.762,1.666c-0.844,1.095-1.529-0.468-1.872-1.666c-0.352-1.032-0.918-2.719-1.769-1.828
			c-0.393,0.411-0.677,1.122-0.88,1.804"/>
	</g>
</g>
<g id="Layer_4">
</g>
</svg>
