<?xml version="1.0" encoding="utf-8"?>
<!-- Generator: Adobe Illustrator 16.0.4, SVG Export Plug-In . SVG Version: 6.00 Build 0)  -->
<!DOCTYPE svg PUBLIC "-//W3C//DTD SVG 1.1//EN" "http://www.w3.org/Graphics/SVG/1.1/DTD/svg11.dtd">
<svg version="1.1" xmlns="http://www.w3.org/2000/svg" xmlns:xlink="http://www.w3.org/1999/xlink" x="0px" y="0px" width="1510px"
	 height="1177px" viewBox="0 0 1510 1177" enable-background="new 0 0 1510 1177" xml:space="preserve">
<g id="Layer_1">
</g>
<g id="Isolation_Mode">
	<path fill="#EF4237" d="M1245.455,273.778c40.237,0,72.881,32.611,72.881,72.883c0,40.217-32.644,72.824-72.881,72.824
		c-40.217,0-72.817-32.607-72.817-72.824C1172.638,306.389,1205.238,273.778,1245.455,273.778z"/>
	<polyline fill="#EF4237" points="4.036,1177 214.318,842.328 358.434,948.068 608.598,705.759 848.372,1026.852 1056.907,859.213 
		1270.99,1079.156 1393.114,980.103 1505.09,1177 	"/>
	<g>
		<path fill="none" stroke="#EF4237" stroke-width="2.8638" stroke-miterlimit="10" d="M1147.331,504.989
			c0,0,257.471-36.387,182.399-316.451"/>
		<path fill="none" stroke="#EF4237" stroke-width="2.8638" stroke-miterlimit="10" d="M1191.693,524.957
			c0,0,239.218-101.715,94.195-352.925"/>
		<path fill="none" stroke="#EF4237" stroke-width="2.8638" stroke-miterlimit="10" d="M1239.703,532.758
			c0,0,204.71-160.195-0.348-365.251"/>
		<path fill="none" stroke="#EF4237" stroke-width="2.8638" stroke-miterlimit="10" d="M1288.059,527.897
			c0,0,156.311-207.749-94.845-352.73"/>
		<path fill="none" stroke="#EF4237" stroke-width="2.8638" stroke-miterlimit="10" d="M1333.506,510.695
			c0,0,97.191-241.051-182.96-316.145"/>
		<path fill="none" stroke="#EF4237" stroke-width="2.8638" stroke-miterlimit="10" d="M1372.984,482.309
			c0,0,31.428-258.004-258.598-258.004"/>
		<path fill="none" stroke="#EF4237" stroke-width="2.8638" stroke-miterlimit="10" d="M1403.653,444.664
			c0,0-36.376-257.352-316.483-182.29"/>
		<path fill="none" stroke="#EF4237" stroke-width="2.8638" stroke-miterlimit="10" d="M1423.663,400.366
			c0,0-101.746-239.208-352.901-94.195"/>
		<path fill="none" stroke="#EF4237" stroke-width="2.8638" stroke-miterlimit="10" d="M1431.477,352.402
			c0,0-160.172-204.7-365.229,0.355"/>
		<path fill="none" stroke="#EF4237" stroke-width="2.8638" stroke-miterlimit="10" d="M1426.616,304.045
			c0,0-207.747-156.289-352.729,94.889"/>
		<path fill="none" stroke="#EF4237" stroke-width="2.8638" stroke-miterlimit="10" d="M1409.383,258.564
			c0,0-241.04-97.179-316.135,182.962"/>
		<path fill="none" stroke="#EF4237" stroke-width="2.8638" stroke-miterlimit="10" d="M1380.95,219.129
			c0,0-257.968-31.48-257.968,258.533"/>
		<path fill="none" stroke="#EF4237" stroke-width="2.8638" stroke-miterlimit="10" d="M1343.337,188.374
			c0,0-257.339,36.377-182.244,316.494"/>
		<path fill="none" stroke="#EF4237" stroke-width="2.8638" stroke-miterlimit="10" d="M1299.041,168.43
			c0,0-239.175,101.746-94.193,352.858"/>
		<path fill="none" stroke="#EF4237" stroke-width="2.8638" stroke-miterlimit="10" d="M1251.011,160.626
			c0,0-204.644,160.194,0.413,365.196"/>
		<path fill="none" stroke="#EF4237" stroke-width="2.8638" stroke-miterlimit="10" d="M1202.719,165.488
			c0,0-156.222,207.747,94.848,352.697"/>
		<path fill="none" stroke="#EF4237" stroke-width="2.8638" stroke-miterlimit="10" d="M1157.23,182.72
			c0,0-97.104,241.074,182.939,316.114"/>
		<path fill="none" stroke="#EF4237" stroke-width="2.8638" stroke-miterlimit="10" d="M1117.859,211.109
			c0,0-31.472,258.025,258.49,257.991"/>
		<path fill="none" stroke="#EF4237" stroke-width="2.8638" stroke-miterlimit="10" d="M1087.127,248.722
			c0,0,36.439,257.352,316.482,182.322"/>
		<path fill="none" stroke="#EF4237" stroke-width="2.8638" stroke-miterlimit="10" d="M1067.116,293.084
			c0,0,101.81,239.109,352.901,94.129"/>
		<path fill="none" stroke="#EF4237" stroke-width="2.8638" stroke-miterlimit="10" d="M1059.346,341.016
			c0,0,160.239,204.632,365.209-0.424"/>
		<path fill="none" stroke="#EF4237" stroke-width="2.8638" stroke-miterlimit="10" d="M1064.207,389.372
			c0,0,207.746,156.169,352.686-94.897"/>
		<path fill="none" stroke="#EF4237" stroke-width="2.8638" stroke-miterlimit="10" d="M1081.484,434.787
			c0,0,241.019,97.082,316.026-182.928"/>
		<path fill="none" stroke="#EF4237" stroke-width="2.8638" stroke-miterlimit="10" d="M1109.873,474.225
			c0,0,257.968,31.402,257.927-258.503"/>
		<path fill="none" stroke="#EF4237" stroke-width="2.8638" stroke-miterlimit="10" d="M1147.463,504.989
			c0,0,257.339-36.496,182.268-316.483"/>
	</g>
	<g id="Layer_2_4_">
	</g>
</g>
</svg>
