<?xml version="1.0" encoding="utf-8"?>
<!-- Generator: Adobe Illustrator 16.0.4, SVG Export Plug-In . SVG Version: 6.00 Build 0)  -->
<!DOCTYPE svg PUBLIC "-//W3C//DTD SVG 1.1//EN" "http://www.w3.org/Graphics/SVG/1.1/DTD/svg11.dtd">
<svg version="1.1" xmlns="http://www.w3.org/2000/svg" xmlns:xlink="http://www.w3.org/1999/xlink" x="0px" y="0px" width="9.125px"
	 height="303.578px" viewBox="0 0 9.125 303.578" enable-background="new 0 0 9.125 303.578" xml:space="preserve">
<g id="Layer_1">
</g>
<g id="Layer_5">
	<line fill="none" stroke="#EF4323" stroke-width="9" stroke-miterlimit="10" x1="4.542" y1="0" x2="4.542" y2="304.229"/>
	<line fill="none" stroke="#F1F2F2" stroke-width="0.25" stroke-miterlimit="10" x1="-0.728" y1="0.145" x2="9.858" y2="0.145"/>
	<line fill="none" stroke="#F1F2F2" stroke-width="0.25" stroke-miterlimit="10" x1="-0.728" y1="4.73" x2="9.858" y2="4.73"/>
	<line fill="none" stroke="#F1F2F2" stroke-width="0.25" stroke-miterlimit="10" x1="-0.728" y1="10.164" x2="9.858" y2="10.164"/>
	<line fill="none" stroke="#F1F2F2" stroke-width="0.25" stroke-miterlimit="10" x1="-0.728" y1="15.598" x2="9.858" y2="15.598"/>
	<line fill="none" stroke="#F1F2F2" stroke-width="0.25" stroke-miterlimit="10" x1="-0.728" y1="21.031" x2="9.858" y2="21.031"/>
	<line fill="none" stroke="#F1F2F2" stroke-width="0.25" stroke-miterlimit="10" x1="-0.728" y1="26.465" x2="9.858" y2="26.465"/>
	<line fill="none" stroke="#F1F2F2" stroke-width="0.25" stroke-miterlimit="10" x1="-0.728" y1="31.898" x2="9.858" y2="31.898"/>
	<line fill="none" stroke="#F1F2F2" stroke-width="0.25" stroke-miterlimit="10" x1="-0.728" y1="37.332" x2="9.858" y2="37.332"/>
	<line fill="none" stroke="#F1F2F2" stroke-width="0.25" stroke-miterlimit="10" x1="-0.728" y1="42.766" x2="9.858" y2="42.766"/>
	<line fill="none" stroke="#F1F2F2" stroke-width="0.25" stroke-miterlimit="10" x1="-0.728" y1="48.199" x2="9.858" y2="48.199"/>
	<line fill="none" stroke="#F1F2F2" stroke-width="0.25" stroke-miterlimit="10" x1="-0.728" y1="53.633" x2="9.858" y2="53.633"/>
	<line fill="none" stroke="#F1F2F2" stroke-width="0.25" stroke-miterlimit="10" x1="-0.728" y1="59.066" x2="9.858" y2="59.066"/>
	<line fill="none" stroke="#F1F2F2" stroke-width="0.25" stroke-miterlimit="10" x1="-0.728" y1="64.5" x2="9.858" y2="64.5"/>
	<line fill="none" stroke="#F1F2F2" stroke-width="0.25" stroke-miterlimit="10" x1="-0.728" y1="69.934" x2="9.858" y2="69.934"/>
	<line fill="none" stroke="#F1F2F2" stroke-width="0.25" stroke-miterlimit="10" x1="-0.728" y1="75.367" x2="9.858" y2="75.367"/>
	<line fill="none" stroke="#F1F2F2" stroke-width="0.25" stroke-miterlimit="10" x1="-0.728" y1="80.801" x2="9.858" y2="80.801"/>
	<line fill="none" stroke="#F1F2F2" stroke-width="0.25" stroke-miterlimit="10" x1="-0.728" y1="86.234" x2="9.858" y2="86.234"/>
	<line fill="none" stroke="#F1F2F2" stroke-width="0.25" stroke-miterlimit="10" x1="-0.728" y1="91.668" x2="9.858" y2="91.668"/>
	<line fill="none" stroke="#F1F2F2" stroke-width="0.25" stroke-miterlimit="10" x1="-0.728" y1="97.102" x2="9.858" y2="97.102"/>
	
		<line fill="none" stroke="#F1F2F2" stroke-width="0.25" stroke-miterlimit="10" x1="-0.728" y1="102.535" x2="9.858" y2="102.535"/>
	
		<line fill="none" stroke="#F1F2F2" stroke-width="0.25" stroke-miterlimit="10" x1="-0.728" y1="107.969" x2="9.858" y2="107.969"/>
	
		<line fill="none" stroke="#F1F2F2" stroke-width="0.25" stroke-miterlimit="10" x1="-0.728" y1="113.402" x2="9.858" y2="113.402"/>
	
		<line fill="none" stroke="#F1F2F2" stroke-width="0.25" stroke-miterlimit="10" x1="-0.728" y1="118.836" x2="9.858" y2="118.836"/>
	<line fill="none" stroke="#F1F2F2" stroke-width="0.25" stroke-miterlimit="10" x1="-0.728" y1="124.27" x2="9.858" y2="124.27"/>
	
		<line fill="none" stroke="#F1F2F2" stroke-width="0.25" stroke-miterlimit="10" x1="-0.728" y1="129.703" x2="9.858" y2="129.703"/>
	
		<line fill="none" stroke="#F1F2F2" stroke-width="0.25" stroke-miterlimit="10" x1="-0.728" y1="135.137" x2="9.858" y2="135.137"/>
	<line fill="none" stroke="#F1F2F2" stroke-width="0.25" stroke-miterlimit="10" x1="-0.728" y1="140.57" x2="9.858" y2="140.57"/>
	
		<line fill="none" stroke="#F1F2F2" stroke-width="0.25" stroke-miterlimit="10" x1="-0.728" y1="146.004" x2="9.858" y2="146.004"/>
	
		<line fill="none" stroke="#F1F2F2" stroke-width="0.25" stroke-miterlimit="10" x1="-0.728" y1="151.438" x2="9.858" y2="151.438"/>
	
		<line fill="none" stroke="#F1F2F2" stroke-width="0.25" stroke-miterlimit="10" x1="-0.728" y1="156.871" x2="9.858" y2="156.871"/>
	
		<line fill="none" stroke="#F1F2F2" stroke-width="0.25" stroke-miterlimit="10" x1="-0.728" y1="162.305" x2="9.858" y2="162.305"/>
	
		<line fill="none" stroke="#F1F2F2" stroke-width="0.25" stroke-miterlimit="10" x1="-0.728" y1="167.738" x2="9.858" y2="167.738"/>
	
		<line fill="none" stroke="#F1F2F2" stroke-width="0.25" stroke-miterlimit="10" x1="-0.728" y1="173.172" x2="9.858" y2="173.172"/>
	
		<line fill="none" stroke="#F1F2F2" stroke-width="0.25" stroke-miterlimit="10" x1="-0.728" y1="178.605" x2="9.858" y2="178.605"/>
	
		<line fill="none" stroke="#F1F2F2" stroke-width="0.25" stroke-miterlimit="10" x1="-0.728" y1="184.039" x2="9.858" y2="184.039"/>
	
		<line fill="none" stroke="#F1F2F2" stroke-width="0.25" stroke-miterlimit="10" x1="-0.728" y1="189.473" x2="9.858" y2="189.473"/>
	
		<line fill="none" stroke="#F1F2F2" stroke-width="0.25" stroke-miterlimit="10" x1="-0.728" y1="194.906" x2="9.858" y2="194.906"/>
	<line fill="none" stroke="#F1F2F2" stroke-width="0.25" stroke-miterlimit="10" x1="-0.728" y1="200.34" x2="9.858" y2="200.34"/>
	
		<line fill="none" stroke="#F1F2F2" stroke-width="0.25" stroke-miterlimit="10" x1="-0.728" y1="205.773" x2="9.858" y2="205.773"/>
	
		<line fill="none" stroke="#F1F2F2" stroke-width="0.25" stroke-miterlimit="10" x1="-0.728" y1="211.207" x2="9.858" y2="211.207"/>
	
		<line fill="none" stroke="#F1F2F2" stroke-width="0.25" stroke-miterlimit="10" x1="-0.728" y1="216.641" x2="9.858" y2="216.641"/>
	
		<line fill="none" stroke="#F1F2F2" stroke-width="0.25" stroke-miterlimit="10" x1="-0.728" y1="222.074" x2="9.858" y2="222.074"/>
	
		<line fill="none" stroke="#F1F2F2" stroke-width="0.25" stroke-miterlimit="10" x1="-0.728" y1="227.508" x2="9.858" y2="227.508"/>
	
		<line fill="none" stroke="#F1F2F2" stroke-width="0.25" stroke-miterlimit="10" x1="-0.728" y1="232.941" x2="9.858" y2="232.941"/>
	
		<line fill="none" stroke="#F1F2F2" stroke-width="0.25" stroke-miterlimit="10" x1="-0.728" y1="238.375" x2="9.858" y2="238.375"/>
	
		<line fill="none" stroke="#F1F2F2" stroke-width="0.25" stroke-miterlimit="10" x1="-0.728" y1="243.809" x2="9.858" y2="243.809"/>
	
		<line fill="none" stroke="#F1F2F2" stroke-width="0.25" stroke-miterlimit="10" x1="-0.728" y1="249.242" x2="9.858" y2="249.242"/>
	
		<line fill="none" stroke="#F1F2F2" stroke-width="0.25" stroke-miterlimit="10" x1="-0.728" y1="254.676" x2="9.858" y2="254.676"/>
	
		<line fill="none" stroke="#F1F2F2" stroke-width="0.25" stroke-miterlimit="10" x1="-0.728" y1="260.109" x2="9.858" y2="260.109"/>
	
		<line fill="none" stroke="#F1F2F2" stroke-width="0.25" stroke-miterlimit="10" x1="-0.728" y1="265.543" x2="9.858" y2="265.543"/>
	
		<line fill="none" stroke="#F1F2F2" stroke-width="0.25" stroke-miterlimit="10" x1="-0.728" y1="270.977" x2="9.858" y2="270.977"/>
	<line fill="none" stroke="#F1F2F2" stroke-width="0.25" stroke-miterlimit="10" x1="-0.728" y1="276.41" x2="9.858" y2="276.41"/>
	
		<line fill="none" stroke="#F1F2F2" stroke-width="0.25" stroke-miterlimit="10" x1="-0.728" y1="281.844" x2="9.858" y2="281.844"/>
	
		<line fill="none" stroke="#F1F2F2" stroke-width="0.25" stroke-miterlimit="10" x1="-0.728" y1="287.277" x2="9.858" y2="287.277"/>
	
		<line fill="none" stroke="#F1F2F2" stroke-width="0.25" stroke-miterlimit="10" x1="-0.728" y1="292.711" x2="9.858" y2="292.711"/>
	
		<line fill="none" stroke="#F1F2F2" stroke-width="0.25" stroke-miterlimit="10" x1="-0.728" y1="298.145" x2="9.858" y2="298.145"/>
	
		<line fill="none" stroke="#F1F2F2" stroke-width="0.25" stroke-miterlimit="10" x1="-0.728" y1="303.578" x2="9.858" y2="303.578"/>
</g>
<g id="Layer_4">
</g>
<g id="Layer_3">
</g>
<g id="Layer_2">
</g>
</svg>
